%FSLAX44Y44*%
%MOMM*%
G71*
G01*
G75*
G04 Layer_Color=16711935*
%ADD10C,1.5000*%
%ADD11R,5.2500X1.0000*%
%ADD12R,1.0000X0.9000*%
%ADD13R,0.9000X1.0000*%
%ADD14R,1.3000X0.6000*%
%ADD15R,2.0000X2.2000*%
%ADD16R,1.0000X1.6000*%
%ADD17R,1.8000X1.6000*%
%ADD18R,4.0000X3.0000*%
%ADD19R,10.4000X10.5000*%
%ADD20R,3.5000X1.1000*%
%ADD21R,5.0000X3.0000*%
%ADD22R,1.5000X1.0000*%
%ADD23R,5.7000X2.5000*%
%ADD24R,1.6000X3.0000*%
%ADD25R,2.5000X5.7000*%
%ADD26R,1.0000X1.5000*%
%ADD27R,3.2000X1.6000*%
%ADD28R,0.9000X1.5000*%
%ADD29R,0.6800X1.3000*%
%ADD30R,6.2300X5.2500*%
%ADD31R,10.3000X5.2500*%
%ADD32R,1.6000X0.5000*%
%ADD33R,0.5000X1.6000*%
%ADD34R,2.2000X2.0000*%
%ADD35R,2.1000X1.8500*%
%ADD36R,1.5000X0.9000*%
%ADD37R,1.5000X1.3000*%
G04:AMPARAMS|DCode=38|XSize=2mm|YSize=3.4mm|CornerRadius=0mm|HoleSize=0mm|Usage=FLASHONLY|Rotation=180.000|XOffset=0mm|YOffset=0mm|HoleType=Round|Shape=Octagon|*
%AMOCTAGOND38*
4,1,8,0.5000,-1.7000,-0.5000,-1.7000,-1.0000,-1.2000,-1.0000,1.2000,-0.5000,1.7000,0.5000,1.7000,1.0000,1.2000,1.0000,-1.2000,0.5000,-1.7000,0.0*
%
%ADD38OCTAGOND38*%

%ADD39R,0.6000X1.6000*%
%ADD40R,0.7000X2.0000*%
%ADD41R,4.6000X4.7000*%
%ADD42R,0.6000X0.9000*%
%ADD43C,0.6000*%
%ADD44C,0.5000*%
%ADD45C,0.4000*%
%ADD46C,1.0000*%
%ADD47C,2.0000*%
%ADD48C,1.2000*%
%ADD49C,1.5000*%
%ADD50C,1.3000*%
%ADD51R,3.8000X1.6000*%
%ADD52R,3.8000X2.0000*%
%ADD53R,10.8000X4.1000*%
%ADD54R,3.6000X2.6000*%
%ADD55R,3.6000X2.4000*%
%ADD56R,3.6000X2.4000*%
%ADD57R,10.7000X4.4000*%
%ADD58R,2.0000X2.0000*%
%ADD59C,2.4000*%
%ADD60C,4.7600*%
%ADD61R,1.6900X1.6900*%
%ADD62C,1.6900*%
%ADD63C,2.5000*%
%ADD64C,2.0000*%
%ADD65R,1.6000X1.6000*%
%ADD66C,1.6000*%
%ADD67O,2.6000X3.0000*%
%ADD68O,3.0000X2.6000*%
%ADD69C,8.0000*%
%ADD70O,1.0000X2.0000*%
%ADD71O,1.0000X2.0000*%
%ADD72C,1.2700*%
%ADD73C,1.2000*%
%ADD74C,1.0000*%
%ADD75R,8.3000X3.0000*%
%ADD76R,11.4000X5.8000*%
%ADD77R,11.3000X5.8000*%
%ADD78R,8.7000X3.0000*%
%ADD79R,7.8000X6.1000*%
%ADD80R,8.2000X3.4000*%
%ADD81R,8.8000X2.5000*%
%ADD82R,5.0000X5.6000*%
%ADD83R,2.1000X14.7000*%
%ADD84R,1.9000X15.7000*%
%ADD85R,5.2000X5.1000*%
%ADD86R,5.2000X9.5000*%
%ADD87R,12.2000X5.4000*%
%ADD88R,11.0000X4.2000*%
%ADD89R,3.7000X0.8000*%
%ADD90R,5.5000X0.6000*%
%ADD91R,1.6000X0.3000*%
%ADD92C,0.2000*%
%ADD93C,0.2500*%
%ADD94C,0.2540*%
%ADD95C,0.1500*%
%ADD96R,0.9000X0.6000*%
%ADD97C,1.7000*%
%ADD98R,5.4500X1.2000*%
%ADD99R,1.2000X1.1000*%
%ADD100R,1.1000X1.2000*%
%ADD101R,1.5000X0.8000*%
%ADD102R,2.2000X2.4000*%
%ADD103R,1.2000X1.8000*%
%ADD104R,2.0000X1.8000*%
%ADD105R,4.2000X3.2000*%
%ADD106R,10.6000X10.7000*%
%ADD107R,3.7000X1.3000*%
%ADD108R,5.2000X3.2000*%
%ADD109R,1.7000X1.2000*%
%ADD110R,5.9000X2.7000*%
%ADD111R,1.8000X3.2000*%
%ADD112R,2.7000X5.9000*%
%ADD113R,1.2000X1.7000*%
%ADD114R,3.4000X1.8000*%
%ADD115R,1.1000X1.7000*%
%ADD116R,0.8800X1.5000*%
%ADD117R,6.4300X5.4500*%
%ADD118R,10.5000X5.4500*%
%ADD119R,1.8000X0.7000*%
%ADD120R,0.7000X1.8000*%
%ADD121R,2.4000X2.2000*%
%ADD122R,2.3000X2.0500*%
%ADD123R,1.7000X1.1000*%
%ADD124R,1.7000X1.5000*%
G04:AMPARAMS|DCode=125|XSize=2.2mm|YSize=3.6mm|CornerRadius=0mm|HoleSize=0mm|Usage=FLASHONLY|Rotation=180.000|XOffset=0mm|YOffset=0mm|HoleType=Round|Shape=Octagon|*
%AMOCTAGOND125*
4,1,8,0.5500,-1.8000,-0.5500,-1.8000,-1.1000,-1.2500,-1.1000,1.2500,-0.5500,1.8000,0.5500,1.8000,1.1000,1.2500,1.1000,-1.2500,0.5500,-1.8000,0.0*
%
%ADD125OCTAGOND125*%

%ADD126R,0.8000X1.8000*%
%ADD127R,0.9000X2.2000*%
%ADD128R,0.8000X1.1000*%
%ADD129C,1.9000*%
%ADD130R,4.7500X4.8500*%
%ADD131R,0.7500X1.0500*%
%ADD132R,2.2032X2.2032*%
%ADD133C,2.6032*%
%ADD134C,2.5000*%
%ADD135C,4.9600*%
%ADD136R,1.8900X1.8900*%
%ADD137C,1.8900*%
%ADD138C,2.7000*%
%ADD139C,2.2000*%
%ADD140R,1.8000X1.8000*%
%ADD141C,1.8000*%
%ADD142O,2.8000X3.2000*%
%ADD143O,3.2000X2.8000*%
%ADD144C,8.2000*%
%ADD145O,1.2000X2.2000*%
%ADD146O,1.2000X2.2000*%
D132*
X-30000Y1762000D02*
D03*
X1780000Y1712000D02*
D03*
X1779000Y241000D02*
D03*
X-30000Y240000D02*
D03*
D133*
Y1832001D02*
D03*
X1780000Y1782001D02*
D03*
X1779000Y171000D02*
D03*
X-30000Y170000D02*
D03*
D134*
Y1952000D02*
D03*
X1780000Y1902000D02*
D03*
X1779000Y51000D02*
D03*
X-30000Y50000D02*
D03*
D135*
X1652000Y139050D02*
D03*
Y388950D02*
D03*
Y1141050D02*
D03*
Y1390950D02*
D03*
D136*
X1637800Y319400D02*
D03*
Y1321400D02*
D03*
D137*
X1666200Y305550D02*
D03*
X1637800Y291700D02*
D03*
X1666200Y277850D02*
D03*
X1637800Y264000D02*
D03*
X1666200Y250150D02*
D03*
X1637800Y236300D02*
D03*
X1666200Y222450D02*
D03*
X1637800Y208600D02*
D03*
X1666200Y1307550D02*
D03*
X1637800Y1293700D02*
D03*
X1666200Y1279850D02*
D03*
X1637800Y1266000D02*
D03*
X1666200Y1252150D02*
D03*
X1637800Y1238300D02*
D03*
X1666200Y1224450D02*
D03*
X1637800Y1210600D02*
D03*
D138*
X1095000Y36000D02*
D03*
X1045000D02*
D03*
X1145000D02*
D03*
X1095000Y1038000D02*
D03*
X1045000D02*
D03*
X1145000D02*
D03*
D139*
X382000Y266500D02*
D03*
Y191500D02*
D03*
X1352100Y732900D02*
D03*
X1275900Y555100D02*
D03*
X1352100D02*
D03*
Y656700D02*
D03*
X1457433Y732900D02*
D03*
X1381233Y555100D02*
D03*
X1457433D02*
D03*
Y656700D02*
D03*
X1562767Y732900D02*
D03*
X1486567Y555100D02*
D03*
X1562767D02*
D03*
Y656700D02*
D03*
X1668100Y732900D02*
D03*
X1591900Y555100D02*
D03*
X1668100D02*
D03*
Y656700D02*
D03*
X382000Y1268500D02*
D03*
Y1193500D02*
D03*
X1352100Y1734900D02*
D03*
X1275900Y1557100D02*
D03*
X1352100D02*
D03*
Y1658700D02*
D03*
X1457433Y1734900D02*
D03*
X1381233Y1557100D02*
D03*
X1457433D02*
D03*
Y1658700D02*
D03*
X1562767Y1734900D02*
D03*
X1486567Y1557100D02*
D03*
X1562767D02*
D03*
Y1658700D02*
D03*
X1668100Y1734900D02*
D03*
X1591900Y1557100D02*
D03*
X1668100D02*
D03*
Y1658700D02*
D03*
D140*
X819000Y219000D02*
D03*
Y1221000D02*
D03*
D141*
Y239000D02*
D03*
Y299000D02*
D03*
Y279000D02*
D03*
Y259000D02*
D03*
Y1241000D02*
D03*
Y1301000D02*
D03*
Y1281000D02*
D03*
Y1261000D02*
D03*
D142*
X687000Y854500D02*
D03*
Y799500D02*
D03*
X729000Y854500D02*
D03*
Y799500D02*
D03*
X645000Y854500D02*
D03*
Y799500D02*
D03*
X603000Y854500D02*
D03*
Y799500D02*
D03*
X240000Y854500D02*
D03*
Y799500D02*
D03*
X282000Y854500D02*
D03*
Y799500D02*
D03*
X198000Y854500D02*
D03*
Y799500D02*
D03*
X156000Y854500D02*
D03*
Y799500D02*
D03*
X929000Y854500D02*
D03*
Y799500D02*
D03*
X971000Y854500D02*
D03*
Y799500D02*
D03*
X887000Y854500D02*
D03*
Y799500D02*
D03*
X845000Y854500D02*
D03*
Y799500D02*
D03*
X480000Y854500D02*
D03*
Y799500D02*
D03*
X522000Y854500D02*
D03*
Y799500D02*
D03*
X438000Y854500D02*
D03*
Y799500D02*
D03*
X396000Y854500D02*
D03*
Y799500D02*
D03*
X1488000Y854500D02*
D03*
Y799500D02*
D03*
X1530000Y854500D02*
D03*
Y799500D02*
D03*
X1446000Y854500D02*
D03*
Y799500D02*
D03*
X1404000Y854500D02*
D03*
Y799500D02*
D03*
X687000Y1856500D02*
D03*
Y1801500D02*
D03*
X729000Y1856500D02*
D03*
Y1801500D02*
D03*
X645000Y1856500D02*
D03*
Y1801500D02*
D03*
X603000Y1856500D02*
D03*
Y1801500D02*
D03*
X240000Y1856500D02*
D03*
Y1801500D02*
D03*
X282000Y1856500D02*
D03*
Y1801500D02*
D03*
X198000Y1856500D02*
D03*
Y1801500D02*
D03*
X156000Y1856500D02*
D03*
Y1801500D02*
D03*
X929000Y1856500D02*
D03*
Y1801500D02*
D03*
X971000Y1856500D02*
D03*
Y1801500D02*
D03*
X887000Y1856500D02*
D03*
Y1801500D02*
D03*
X845000Y1856500D02*
D03*
Y1801500D02*
D03*
X480000Y1856500D02*
D03*
Y1801500D02*
D03*
X522000Y1856500D02*
D03*
Y1801500D02*
D03*
X438000Y1856500D02*
D03*
Y1801500D02*
D03*
X396000Y1856500D02*
D03*
Y1801500D02*
D03*
X1488000Y1856500D02*
D03*
Y1801500D02*
D03*
X1530000Y1856500D02*
D03*
Y1801500D02*
D03*
X1446000Y1856500D02*
D03*
Y1801500D02*
D03*
X1404000Y1856500D02*
D03*
Y1801500D02*
D03*
D143*
X146500Y371000D02*
D03*
X201500D02*
D03*
Y413000D02*
D03*
X146500D02*
D03*
Y1373000D02*
D03*
X201500D02*
D03*
Y1415000D02*
D03*
X146500D02*
D03*
D144*
X1700000Y950000D02*
D03*
X50000D02*
D03*
Y50000D02*
D03*
X1700000D02*
D03*
Y1952000D02*
D03*
X50000D02*
D03*
Y1052000D02*
D03*
X1700000D02*
D03*
D145*
X876000Y64000D02*
D03*
X844000D02*
D03*
X936000D02*
D03*
X968000D02*
D03*
X876000Y1066000D02*
D03*
X844000D02*
D03*
X936000D02*
D03*
X968000D02*
D03*
D146*
X860000Y64000D02*
D03*
X952000D02*
D03*
X860000Y1066000D02*
D03*
X952000D02*
D03*
M02*
