%FSLAX44Y44*%
%MOMM*%
G71*
G01*
G75*
G04 Layer_Color=65535*
%ADD10C,1.5000*%
%ADD11R,5.2500X1.0000*%
%ADD12R,1.0000X0.9000*%
%ADD13R,0.9000X1.0000*%
%ADD14R,1.3000X0.6000*%
%ADD15R,2.0000X2.2000*%
%ADD16R,1.0000X1.6000*%
%ADD17R,1.8000X1.6000*%
%ADD18R,4.0000X3.0000*%
%ADD19R,10.4000X10.5000*%
%ADD20R,3.5000X1.1000*%
%ADD21R,5.0000X3.0000*%
%ADD22R,1.5000X1.0000*%
%ADD23R,5.7000X2.5000*%
%ADD24R,1.6000X3.0000*%
%ADD25R,2.5000X5.7000*%
%ADD26R,1.0000X1.5000*%
%ADD27R,3.2000X1.6000*%
%ADD28R,0.9000X1.5000*%
%ADD29R,0.6800X1.3000*%
%ADD30R,6.2300X5.2500*%
%ADD31R,10.3000X5.2500*%
%ADD32R,1.6000X0.5000*%
%ADD33R,0.5000X1.6000*%
%ADD34R,2.2000X2.0000*%
%ADD35R,2.1000X1.8500*%
%ADD36R,1.5000X0.9000*%
%ADD37R,1.5000X1.3000*%
G04:AMPARAMS|DCode=38|XSize=2mm|YSize=3.4mm|CornerRadius=0mm|HoleSize=0mm|Usage=FLASHONLY|Rotation=180.000|XOffset=0mm|YOffset=0mm|HoleType=Round|Shape=Octagon|*
%AMOCTAGOND38*
4,1,8,0.5000,-1.7000,-0.5000,-1.7000,-1.0000,-1.2000,-1.0000,1.2000,-0.5000,1.7000,0.5000,1.7000,1.0000,1.2000,1.0000,-1.2000,0.5000,-1.7000,0.0*
%
%ADD38OCTAGOND38*%

%ADD39R,0.6000X1.6000*%
%ADD40R,0.7000X2.0000*%
%ADD41R,4.6000X4.7000*%
%ADD42R,0.6000X0.9000*%
%ADD43C,0.6000*%
%ADD44C,0.5000*%
%ADD45C,0.4000*%
%ADD46C,1.0000*%
%ADD47C,2.0000*%
%ADD48C,1.2000*%
%ADD49C,1.5000*%
%ADD50C,1.3000*%
%ADD51R,3.8000X1.6000*%
%ADD52R,3.8000X2.0000*%
%ADD53R,10.8000X4.1000*%
%ADD54R,3.6000X2.6000*%
%ADD55R,3.6000X2.4000*%
%ADD56R,3.6000X2.4000*%
%ADD57R,10.7000X4.4000*%
%ADD58R,2.0000X2.0000*%
%ADD59C,2.4000*%
%ADD60C,4.7600*%
%ADD61R,1.6900X1.6900*%
%ADD62C,1.6900*%
%ADD63C,2.5000*%
%ADD64C,2.0000*%
%ADD65R,1.6000X1.6000*%
%ADD66C,1.6000*%
%ADD67O,2.6000X3.0000*%
%ADD68O,3.0000X2.6000*%
%ADD69C,8.0000*%
%ADD70O,1.0000X2.0000*%
%ADD71O,1.0000X2.0000*%
%ADD72C,1.2700*%
%ADD73C,1.2000*%
%ADD74C,1.0000*%
%ADD75R,8.3000X3.0000*%
%ADD76R,11.4000X5.8000*%
%ADD77R,11.3000X5.8000*%
%ADD78R,8.7000X3.0000*%
%ADD79R,7.8000X6.1000*%
%ADD80R,8.2000X3.4000*%
%ADD81R,8.8000X2.5000*%
%ADD82R,5.0000X5.6000*%
%ADD83R,2.1000X14.7000*%
%ADD84R,1.9000X15.7000*%
%ADD85R,5.2000X5.1000*%
%ADD86R,5.2000X9.5000*%
%ADD87R,12.2000X5.4000*%
%ADD88R,11.0000X4.2000*%
%ADD89R,3.7000X0.8000*%
%ADD90R,5.5000X0.6000*%
%ADD91R,1.6000X0.3000*%
%ADD92C,0.2000*%
%ADD93C,0.2500*%
%ADD94C,0.2540*%
%ADD95C,0.1500*%
G36*
X127237Y656076D02*
X128532D01*
Y606892D01*
X54109D01*
Y607540D01*
X53462D01*
Y608834D01*
X54109D01*
Y609481D01*
X53462D01*
Y610775D01*
X54109D01*
Y611423D01*
X53462D01*
Y613364D01*
X54109D01*
Y614011D01*
X53462D01*
Y617247D01*
X54109D01*
Y617894D01*
X53462D01*
Y619188D01*
X54109D01*
Y619836D01*
X53462D01*
Y621130D01*
X54109D01*
Y621777D01*
X53462D01*
Y623718D01*
X54109D01*
Y624366D01*
X53462D01*
Y625013D01*
X54109D01*
Y625660D01*
X53462D01*
Y627601D01*
X55403D01*
Y626954D01*
X56051D01*
Y627601D01*
X57992D01*
Y626954D01*
X58639D01*
Y627601D01*
X59934D01*
Y626954D01*
X60581D01*
Y627601D01*
X61875D01*
Y626954D01*
X62522D01*
Y627601D01*
X63816D01*
Y626954D01*
X64464D01*
Y627601D01*
X65758D01*
Y626954D01*
X66405D01*
Y627601D01*
X68347D01*
Y626954D01*
X68994D01*
Y627601D01*
X69641D01*
Y626954D01*
X70288D01*
Y627601D01*
X72229D01*
Y626954D01*
X72877D01*
Y627601D01*
X73524D01*
Y626954D01*
X74171D01*
Y627601D01*
X74818D01*
Y626954D01*
X75465D01*
Y627601D01*
X77407D01*
Y626954D01*
X78054D01*
Y627601D01*
X80642D01*
Y626954D01*
X81290D01*
Y627601D01*
X83231D01*
Y626954D01*
X83878D01*
Y627601D01*
X85820D01*
Y626954D01*
X86467D01*
Y627601D01*
X88408D01*
Y626954D01*
X89055D01*
Y627601D01*
X90997D01*
Y626954D01*
X91644D01*
Y627601D01*
X93585D01*
Y626954D01*
X94233D01*
Y627601D01*
X98116D01*
Y626954D01*
X98763D01*
Y627601D01*
X100704D01*
Y626954D01*
X101351D01*
Y627601D01*
X102646D01*
Y626954D01*
X103293D01*
Y627601D01*
X104587D01*
Y626954D01*
X110411D01*
Y627601D01*
X111706D01*
Y628248D01*
X111059D01*
Y629543D01*
X111706D01*
Y630190D01*
X111059D01*
Y630837D01*
X111706D01*
Y655429D01*
X111059D01*
Y656076D01*
X111706D01*
Y656723D01*
X113647D01*
Y656076D01*
X114294D01*
Y656723D01*
X120119D01*
Y656076D01*
X120766D01*
Y656723D01*
X124002D01*
Y656076D01*
X124649D01*
Y656723D01*
X127237D01*
Y656076D01*
D02*
G37*
G36*
X127885Y602362D02*
X128532D01*
Y601068D01*
X127885D01*
Y600421D01*
X128532D01*
Y599774D01*
X127885D01*
Y599127D01*
X128532D01*
Y597832D01*
X127885D01*
Y597185D01*
X128532D01*
Y595891D01*
X127885D01*
Y595244D01*
X128532D01*
Y592655D01*
X127885D01*
Y592008D01*
X128532D01*
Y590714D01*
X127885D01*
Y590066D01*
X128532D01*
Y588772D01*
X127885D01*
Y588125D01*
X128532D01*
Y586184D01*
X127885D01*
Y585536D01*
X128532D01*
Y582948D01*
X127885D01*
Y582301D01*
X128532D01*
Y580359D01*
X127885D01*
Y579712D01*
X128532D01*
Y579065D01*
X127885D01*
Y578418D01*
X128532D01*
Y577123D01*
X127885D01*
Y576476D01*
X128532D01*
Y575182D01*
X127885D01*
Y574535D01*
X128532D01*
Y573888D01*
X127885D01*
Y573241D01*
X128532D01*
Y570652D01*
X127885D01*
Y570005D01*
X128532D01*
Y569358D01*
X127885D01*
Y568711D01*
X128532D01*
Y567416D01*
X127885D01*
Y566769D01*
X128532D01*
Y564827D01*
X127885D01*
Y564180D01*
X128532D01*
Y560298D01*
X127885D01*
Y559650D01*
X128532D01*
Y558356D01*
X127885D01*
Y557709D01*
X128532D01*
Y544766D01*
X127885D01*
Y544119D01*
X128532D01*
Y542177D01*
X127885D01*
Y541530D01*
X128532D01*
Y539589D01*
X127885D01*
Y538941D01*
X128532D01*
Y537647D01*
X127885D01*
Y537000D01*
X128532D01*
Y535706D01*
X127885D01*
Y535059D01*
X128532D01*
Y532470D01*
X127237D01*
Y531823D01*
X126590D01*
Y532470D01*
X125943D01*
Y533117D01*
X125296D01*
Y532470D01*
X124649D01*
Y533117D01*
X123354D01*
Y533764D01*
X121413D01*
Y534411D01*
X119472D01*
Y535059D01*
X117530D01*
Y535706D01*
X115589D01*
Y536353D01*
X113000D01*
Y537000D01*
X110411D01*
Y537647D01*
X109117D01*
Y538294D01*
X107823D01*
Y538941D01*
X107176D01*
Y538294D01*
X106529D01*
Y538941D01*
X104587D01*
Y539589D01*
X102646D01*
Y540236D01*
X101998D01*
Y540883D01*
X101351D01*
Y540236D01*
X100704D01*
Y540883D01*
X99410D01*
Y541530D01*
X98763D01*
Y540883D01*
X98116D01*
Y541530D01*
X96821D01*
Y542177D01*
X94880D01*
Y542824D01*
X92938D01*
Y543471D01*
X90350D01*
Y544119D01*
X87761D01*
Y544766D01*
X86467D01*
Y545413D01*
X83878D01*
Y546060D01*
X83231D01*
Y561592D01*
X83878D01*
Y562239D01*
X83231D01*
Y563533D01*
X83878D01*
Y564180D01*
X83231D01*
Y565475D01*
X83878D01*
Y564827D01*
X85172D01*
Y564180D01*
X87761D01*
Y563533D01*
X89055D01*
Y562886D01*
X91644D01*
Y562239D01*
X92938D01*
Y561592D01*
X94880D01*
Y560945D01*
X95527D01*
Y561592D01*
X96174D01*
Y560945D01*
X98116D01*
Y560298D01*
X100057D01*
Y559650D01*
X101998D01*
Y559003D01*
X104587D01*
Y558356D01*
X106529D01*
Y557709D01*
X108470D01*
Y557062D01*
X109117D01*
Y556415D01*
X110411D01*
Y563533D01*
X109764D01*
Y564180D01*
X110411D01*
Y564827D01*
X109764D01*
Y565475D01*
X110411D01*
Y566769D01*
X109764D01*
Y567416D01*
X110411D01*
Y568063D01*
X109764D01*
Y568711D01*
X110411D01*
Y569358D01*
X109764D01*
Y570005D01*
X110411D01*
Y570652D01*
X109764D01*
Y571299D01*
X110411D01*
Y571946D01*
X109764D01*
Y573888D01*
X110411D01*
Y576476D01*
X108470D01*
Y575829D01*
X107176D01*
Y575182D01*
X105234D01*
Y574535D01*
X103293D01*
Y573888D01*
X101351D01*
Y573241D01*
X100057D01*
Y572593D01*
X98116D01*
Y571946D01*
X96821D01*
Y571299D01*
X94880D01*
Y570652D01*
X92938D01*
Y570005D01*
X90997D01*
Y569358D01*
X89055D01*
Y568711D01*
X87761D01*
Y568063D01*
X85820D01*
Y567416D01*
X83878D01*
Y566769D01*
X82584D01*
Y566122D01*
X80642D01*
Y565475D01*
X79348D01*
Y564827D01*
X78701D01*
Y565475D01*
X78054D01*
Y564827D01*
X76760D01*
Y564180D01*
X75465D01*
Y563533D01*
X74171D01*
Y562886D01*
X73524D01*
Y563533D01*
X72877D01*
Y562886D01*
X71582D01*
Y562239D01*
X70288D01*
Y561592D01*
X68347D01*
Y560945D01*
X66405D01*
Y560298D01*
X64464D01*
Y559650D01*
X63169D01*
Y559003D01*
X61228D01*
Y558356D01*
X59286D01*
Y557709D01*
X57992D01*
Y557062D01*
X56051D01*
Y556415D01*
X53462D01*
Y558356D01*
X54109D01*
Y559003D01*
X53462D01*
Y559650D01*
X54109D01*
Y560298D01*
X53462D01*
Y561592D01*
X54109D01*
Y562239D01*
X53462D01*
Y563533D01*
X54109D01*
Y564180D01*
X53462D01*
Y564827D01*
X54109D01*
Y565475D01*
X53462D01*
Y567416D01*
X54109D01*
Y568063D01*
X53462D01*
Y569358D01*
X54109D01*
Y570005D01*
X53462D01*
Y570652D01*
X54109D01*
Y571299D01*
X53462D01*
Y571946D01*
X54109D01*
Y572593D01*
X53462D01*
Y573888D01*
X54109D01*
Y574535D01*
X53462D01*
Y575182D01*
X54109D01*
Y575829D01*
X53462D01*
Y577123D01*
X54756D01*
Y577771D01*
X55403D01*
Y577123D01*
X56051D01*
Y577771D01*
X56698D01*
Y578418D01*
X58639D01*
Y579065D01*
X61228D01*
Y579712D01*
X63169D01*
Y580359D01*
X64464D01*
Y581006D01*
X65758D01*
Y581654D01*
X66405D01*
Y581006D01*
X67052D01*
Y581654D01*
X67699D01*
Y582301D01*
X69641D01*
Y582948D01*
X71582D01*
Y583595D01*
X73524D01*
Y584242D01*
X74818D01*
Y584889D01*
X75465D01*
Y584242D01*
X76112D01*
Y584889D01*
X77407D01*
Y585536D01*
X79348D01*
Y586184D01*
X81290D01*
Y586831D01*
X82584D01*
Y587478D01*
X84525D01*
Y588125D01*
X85820D01*
Y588772D01*
X88408D01*
Y589419D01*
X89703D01*
Y590066D01*
X91644D01*
Y590714D01*
X92938D01*
Y591361D01*
X93585D01*
Y590714D01*
X94233D01*
Y591361D01*
X96174D01*
Y592008D01*
X96821D01*
Y592655D01*
X99410D01*
Y593302D01*
X100704D01*
Y593949D01*
X102646D01*
Y594597D01*
X104587D01*
Y595244D01*
X106529D01*
Y595891D01*
X107823D01*
Y596538D01*
X109764D01*
Y597185D01*
X111706D01*
Y597832D01*
X113647D01*
Y598479D01*
X114294D01*
Y597832D01*
X114942D01*
Y598479D01*
X115589D01*
Y599127D01*
X116883D01*
Y599774D01*
X118824D01*
Y600421D01*
X119472D01*
Y599774D01*
X120119D01*
Y600421D01*
X120766D01*
Y601068D01*
X122707D01*
Y601715D01*
X124649D01*
Y602362D01*
X125943D01*
Y603009D01*
X126590D01*
Y602362D01*
X127237D01*
Y603009D01*
X127885D01*
Y602362D01*
D02*
G37*
G36*
X55403Y545413D02*
X57992D01*
Y544766D01*
X59934D01*
Y544119D01*
X61875D01*
Y543471D01*
X63816D01*
Y542824D01*
X66405D01*
Y542177D01*
X68347D01*
Y541530D01*
X70288D01*
Y540883D01*
X72229D01*
Y540236D01*
X74171D01*
Y539589D01*
X76760D01*
Y538941D01*
X78054D01*
Y538294D01*
X78701D01*
Y538941D01*
X79348D01*
Y538294D01*
X80642D01*
Y537647D01*
X83231D01*
Y537000D01*
X85172D01*
Y536353D01*
X87114D01*
Y535706D01*
X87761D01*
Y535059D01*
X88408D01*
Y535706D01*
X89703D01*
Y535059D01*
X90350D01*
Y534411D01*
X90997D01*
Y535059D01*
X91644D01*
Y534411D01*
X93585D01*
Y533764D01*
X95527D01*
Y533117D01*
X96821D01*
Y532470D01*
X99410D01*
Y531823D01*
X101998D01*
Y531176D01*
X103940D01*
Y530528D01*
X105234D01*
Y529881D01*
X105881D01*
Y530528D01*
X106529D01*
Y529881D01*
X107823D01*
Y529234D01*
X109764D01*
Y528587D01*
X111706D01*
Y527940D01*
X112353D01*
Y528587D01*
X113000D01*
Y527940D01*
X114942D01*
Y527293D01*
X116236D01*
Y526646D01*
X118824D01*
Y525998D01*
X119472D01*
Y525351D01*
X120119D01*
Y525998D01*
X120766D01*
Y525351D01*
X122060D01*
Y524704D01*
X125296D01*
Y524057D01*
X127237D01*
Y523410D01*
X127885D01*
Y498818D01*
X127237D01*
Y498171D01*
X124649D01*
Y497524D01*
X122707D01*
Y496877D01*
X121413D01*
Y496229D01*
X118824D01*
Y495582D01*
X116236D01*
Y494935D01*
X114942D01*
Y494288D01*
X112353D01*
Y493641D01*
X110411D01*
Y492994D01*
X108470D01*
Y492346D01*
X105881D01*
Y491699D01*
X104587D01*
Y491052D01*
X101998D01*
Y490405D01*
X100057D01*
Y489758D01*
X98116D01*
Y489111D01*
X96174D01*
Y488464D01*
X93585D01*
Y487816D01*
X91644D01*
Y487169D01*
X90350D01*
Y486522D01*
X89703D01*
Y487169D01*
X89055D01*
Y486522D01*
X87761D01*
Y485875D01*
X85820D01*
Y485228D01*
X83878D01*
Y484581D01*
X81290D01*
Y483933D01*
X78701D01*
Y483286D01*
X77407D01*
Y482639D01*
X74818D01*
Y481992D01*
X73524D01*
Y481345D01*
X70935D01*
Y480698D01*
X68347D01*
Y480051D01*
X67052D01*
Y479403D01*
X64464D01*
Y478756D01*
X62522D01*
Y478109D01*
X60581D01*
Y477462D01*
X57992D01*
Y476815D01*
X56051D01*
Y476168D01*
X54756D01*
Y475521D01*
X54109D01*
Y496229D01*
X54756D01*
Y496877D01*
X56051D01*
Y497524D01*
X56698D01*
Y496877D01*
X57345D01*
Y497524D01*
X58639D01*
Y498171D01*
X61228D01*
Y498818D01*
X62522D01*
Y499465D01*
X64464D01*
Y500112D01*
X66405D01*
Y500760D01*
X68994D01*
Y501407D01*
X70935D01*
Y502054D01*
X72229D01*
Y502701D01*
X74171D01*
Y503348D01*
X76112D01*
Y503995D01*
X78054D01*
Y504642D01*
X80642D01*
Y505289D01*
X81937D01*
Y505937D01*
X83878D01*
Y506584D01*
X86467D01*
Y507231D01*
X87761D01*
Y507878D01*
X88408D01*
Y507231D01*
X89055D01*
Y507878D01*
X90350D01*
Y508525D01*
X91644D01*
Y509173D01*
X94233D01*
Y509820D01*
X96821D01*
Y510467D01*
X98116D01*
Y511114D01*
X100057D01*
Y511761D01*
X100704D01*
Y512408D01*
X99410D01*
Y513055D01*
X98763D01*
Y512408D01*
X98116D01*
Y513055D01*
X96821D01*
Y513703D01*
X94880D01*
Y514350D01*
X94233D01*
Y513703D01*
X93585D01*
Y514350D01*
X92291D01*
Y514997D01*
X89703D01*
Y515644D01*
X88408D01*
Y516291D01*
X87761D01*
Y515644D01*
X87114D01*
Y516291D01*
X85172D01*
Y516938D01*
X82584D01*
Y517585D01*
X80642D01*
Y518233D01*
X79348D01*
Y518880D01*
X78701D01*
Y518233D01*
X78054D01*
Y518880D01*
X76760D01*
Y519527D01*
X74171D01*
Y520174D01*
X72229D01*
Y520821D01*
X71582D01*
Y520174D01*
X70935D01*
Y520821D01*
X70288D01*
Y521468D01*
X69641D01*
Y520821D01*
X68994D01*
Y521468D01*
X67699D01*
Y522116D01*
X65111D01*
Y522763D01*
X62522D01*
Y523410D01*
X60581D01*
Y524057D01*
X57992D01*
Y524704D01*
X55403D01*
Y525351D01*
X54109D01*
Y546060D01*
X55403D01*
Y545413D01*
D02*
G37*
G36*
X145358Y773858D02*
X144711D01*
Y773211D01*
X145358D01*
Y770622D01*
X146005D01*
Y769975D01*
X145358D01*
Y768680D01*
X146005D01*
Y768033D01*
X145358D01*
Y767386D01*
X146005D01*
Y766739D01*
X145358D01*
Y766092D01*
X146005D01*
Y764150D01*
X145358D01*
Y763503D01*
X146005D01*
Y754443D01*
X74818D01*
Y753796D01*
X74171D01*
Y753149D01*
X73524D01*
Y753796D01*
X72877D01*
Y752502D01*
X71582D01*
Y751854D01*
X70935D01*
Y750560D01*
X70288D01*
Y748619D01*
X69641D01*
Y747325D01*
X68994D01*
Y742794D01*
X68347D01*
Y742147D01*
X68994D01*
Y740853D01*
X68347D01*
Y740206D01*
X68994D01*
Y739559D01*
X68347D01*
Y738912D01*
X68994D01*
Y737617D01*
X68347D01*
Y736970D01*
X68994D01*
Y736323D01*
X68347D01*
Y735676D01*
X68994D01*
Y735029D01*
X68347D01*
Y734381D01*
X68994D01*
Y733734D01*
X125943D01*
Y713673D01*
X51521D01*
Y759620D01*
X52168D01*
Y761562D01*
X52815D01*
Y763503D01*
X53462D01*
Y765445D01*
X54109D01*
Y766739D01*
X54756D01*
Y768033D01*
X55403D01*
Y769328D01*
X56051D01*
Y769975D01*
X56698D01*
Y770622D01*
X57345D01*
Y771269D01*
X57992D01*
Y771916D01*
X58639D01*
Y772563D01*
X59934D01*
Y773211D01*
X61228D01*
Y773858D01*
X63169D01*
Y774505D01*
X63816D01*
Y773858D01*
X64464D01*
Y774505D01*
X65111D01*
Y773858D01*
X65758D01*
Y774505D01*
X67699D01*
Y773858D01*
X68347D01*
Y774505D01*
X69641D01*
Y773858D01*
X70288D01*
Y774505D01*
X70935D01*
Y773858D01*
X71582D01*
Y774505D01*
X72877D01*
Y773858D01*
X73524D01*
Y774505D01*
X75465D01*
Y773858D01*
X76112D01*
Y774505D01*
X77407D01*
Y773858D01*
X78054D01*
Y774505D01*
X78701D01*
Y773858D01*
X79348D01*
Y774505D01*
X80642D01*
Y773858D01*
X81290D01*
Y774505D01*
X82584D01*
Y773858D01*
X83231D01*
Y774505D01*
X83878D01*
Y773858D01*
X84525D01*
Y774505D01*
X86467D01*
Y773858D01*
X87114D01*
Y774505D01*
X87761D01*
Y773858D01*
X88408D01*
Y774505D01*
X90350D01*
Y773858D01*
X90997D01*
Y774505D01*
X92938D01*
Y773858D01*
X93585D01*
Y774505D01*
X94880D01*
Y773858D01*
X95527D01*
Y774505D01*
X96821D01*
Y773858D01*
X97468D01*
Y774505D01*
X99410D01*
Y773858D01*
X100057D01*
Y774505D01*
X100704D01*
Y773858D01*
X101351D01*
Y774505D01*
X103293D01*
Y773858D01*
X103940D01*
Y774505D01*
X105881D01*
Y773858D01*
X106529D01*
Y774505D01*
X108470D01*
Y773858D01*
X109117D01*
Y774505D01*
X111059D01*
Y773858D01*
X111706D01*
Y774505D01*
X113647D01*
Y773858D01*
X114294D01*
Y774505D01*
X116236D01*
Y773858D01*
X116883D01*
Y774505D01*
X117530D01*
Y773858D01*
X118177D01*
Y774505D01*
X119472D01*
Y773858D01*
X120119D01*
Y774505D01*
X121413D01*
Y773858D01*
X122060D01*
Y774505D01*
X124002D01*
Y773858D01*
X124649D01*
Y774505D01*
X125296D01*
Y773858D01*
X125943D01*
Y774505D01*
X127237D01*
Y773858D01*
X127885D01*
Y774505D01*
X129179D01*
Y773858D01*
X129826D01*
Y774505D01*
X130473D01*
Y773858D01*
X131120D01*
Y774505D01*
X132415D01*
Y773858D01*
X133062D01*
Y774505D01*
X135003D01*
Y773858D01*
X135650D01*
Y774505D01*
X136945D01*
Y773858D01*
X137592D01*
Y774505D01*
X139533D01*
Y773858D01*
X140180D01*
Y774505D01*
X140828D01*
Y773858D01*
X141475D01*
Y774505D01*
X142122D01*
Y773858D01*
X142769D01*
Y774505D01*
X145358D01*
Y773858D01*
D02*
G37*
G36*
X126590Y708495D02*
X128532D01*
Y659312D01*
X127885D01*
Y658665D01*
X127237D01*
Y659312D01*
X125943D01*
Y658665D01*
X124649D01*
Y659312D01*
X124002D01*
Y658665D01*
X123354D01*
Y659312D01*
X122707D01*
Y658665D01*
X121413D01*
Y659312D01*
X120766D01*
Y658665D01*
X119472D01*
Y659312D01*
X118824D01*
Y658665D01*
X116883D01*
Y659312D01*
X116236D01*
Y658665D01*
X114294D01*
Y659312D01*
X113647D01*
Y658665D01*
X113000D01*
Y659312D01*
X112353D01*
Y658665D01*
X111059D01*
Y659312D01*
X110411D01*
Y658665D01*
X109764D01*
Y659312D01*
X109117D01*
Y658665D01*
X106529D01*
Y659312D01*
X105881D01*
Y658665D01*
X104587D01*
Y659312D01*
X103940D01*
Y658665D01*
X101998D01*
Y659312D01*
X101351D01*
Y658665D01*
X100057D01*
Y659312D01*
X99410D01*
Y658665D01*
X98116D01*
Y659312D01*
X97468D01*
Y658665D01*
X96174D01*
Y659312D01*
X95527D01*
Y658665D01*
X94880D01*
Y659312D01*
X94233D01*
Y658665D01*
X92938D01*
Y659312D01*
X92291D01*
Y658665D01*
X91644D01*
Y659312D01*
X90997D01*
Y658665D01*
X90350D01*
Y659312D01*
X89703D01*
Y658665D01*
X88408D01*
Y659312D01*
X87761D01*
Y658665D01*
X85820D01*
Y659312D01*
X85172D01*
Y658665D01*
X84525D01*
Y659312D01*
X83878D01*
Y658665D01*
X83231D01*
Y659312D01*
X82584D01*
Y660606D01*
X83231D01*
Y661253D01*
X82584D01*
Y662548D01*
X83231D01*
Y663195D01*
X82584D01*
Y664489D01*
X83231D01*
Y665136D01*
X82584D01*
Y666430D01*
X83231D01*
Y667078D01*
X82584D01*
Y669019D01*
X83231D01*
Y669666D01*
X82584D01*
Y670313D01*
X83231D01*
Y670960D01*
X82584D01*
Y671608D01*
X83231D01*
Y672255D01*
X82584D01*
Y674196D01*
X83231D01*
Y674843D01*
X82584D01*
Y676785D01*
X83231D01*
Y677432D01*
X82584D01*
Y678726D01*
X83231D01*
Y679373D01*
X82584D01*
Y681962D01*
X83231D01*
Y682609D01*
X82584D01*
Y683904D01*
X83231D01*
Y684551D01*
X82584D01*
Y685198D01*
X83231D01*
Y685845D01*
X82584D01*
Y689728D01*
X83231D01*
Y690375D01*
X82584D01*
Y691022D01*
X83231D01*
Y691669D01*
X82584D01*
Y692317D01*
X83231D01*
Y692964D01*
X82584D01*
Y693611D01*
X83231D01*
Y694258D01*
X82584D01*
Y694905D01*
X83231D01*
Y695552D01*
X82584D01*
Y696199D01*
X83231D01*
Y696847D01*
X82584D01*
Y698788D01*
X83231D01*
Y699435D01*
X82584D01*
Y700082D01*
X83231D01*
Y700730D01*
X82584D01*
Y701377D01*
X83231D01*
Y702024D01*
X82584D01*
Y702671D01*
X83231D01*
Y703318D01*
X82584D01*
Y703965D01*
X83231D01*
Y704612D01*
X82584D01*
Y705907D01*
X83231D01*
Y706554D01*
X82584D01*
Y708495D01*
X83878D01*
Y709143D01*
X84525D01*
Y708495D01*
X85820D01*
Y709143D01*
X86467D01*
Y708495D01*
X87114D01*
Y709143D01*
X88408D01*
Y708495D01*
X89055D01*
Y709143D01*
X89703D01*
Y708495D01*
X90350D01*
Y709143D01*
X90997D01*
Y708495D01*
X92291D01*
Y709143D01*
X92938D01*
Y708495D01*
X93585D01*
Y709143D01*
X94233D01*
Y708495D01*
X96174D01*
Y709143D01*
X96821D01*
Y708495D01*
X98116D01*
Y709143D01*
X98763D01*
Y679373D01*
X111706D01*
Y708495D01*
X113647D01*
Y709143D01*
X116236D01*
Y708495D01*
X116883D01*
Y709143D01*
X118824D01*
Y708495D01*
X119472D01*
Y709143D01*
X120119D01*
Y708495D01*
X120766D01*
Y709143D01*
X121413D01*
Y708495D01*
X122060D01*
Y709143D01*
X124002D01*
Y708495D01*
X124649D01*
Y709143D01*
X125296D01*
Y708495D01*
X125943D01*
Y709143D01*
X126590D01*
Y708495D01*
D02*
G37*
G36*
X70935Y658018D02*
X52815D01*
Y709143D01*
X70935D01*
Y658018D01*
D02*
G37*
G36*
X127237Y1658076D02*
X128532D01*
Y1608892D01*
X54109D01*
Y1609540D01*
X53462D01*
Y1610834D01*
X54109D01*
Y1611481D01*
X53462D01*
Y1612775D01*
X54109D01*
Y1613423D01*
X53462D01*
Y1615364D01*
X54109D01*
Y1616011D01*
X53462D01*
Y1619247D01*
X54109D01*
Y1619894D01*
X53462D01*
Y1621188D01*
X54109D01*
Y1621835D01*
X53462D01*
Y1623130D01*
X54109D01*
Y1623777D01*
X53462D01*
Y1625718D01*
X54109D01*
Y1626366D01*
X53462D01*
Y1627013D01*
X54109D01*
Y1627660D01*
X53462D01*
Y1629601D01*
X55403D01*
Y1628954D01*
X56051D01*
Y1629601D01*
X57992D01*
Y1628954D01*
X58639D01*
Y1629601D01*
X59934D01*
Y1628954D01*
X60581D01*
Y1629601D01*
X61875D01*
Y1628954D01*
X62522D01*
Y1629601D01*
X63816D01*
Y1628954D01*
X64464D01*
Y1629601D01*
X65758D01*
Y1628954D01*
X66405D01*
Y1629601D01*
X68347D01*
Y1628954D01*
X68994D01*
Y1629601D01*
X69641D01*
Y1628954D01*
X70288D01*
Y1629601D01*
X72229D01*
Y1628954D01*
X72877D01*
Y1629601D01*
X73524D01*
Y1628954D01*
X74171D01*
Y1629601D01*
X74818D01*
Y1628954D01*
X75465D01*
Y1629601D01*
X77407D01*
Y1628954D01*
X78054D01*
Y1629601D01*
X80642D01*
Y1628954D01*
X81290D01*
Y1629601D01*
X83231D01*
Y1628954D01*
X83878D01*
Y1629601D01*
X85820D01*
Y1628954D01*
X86467D01*
Y1629601D01*
X88408D01*
Y1628954D01*
X89055D01*
Y1629601D01*
X90997D01*
Y1628954D01*
X91644D01*
Y1629601D01*
X93585D01*
Y1628954D01*
X94233D01*
Y1629601D01*
X98116D01*
Y1628954D01*
X98763D01*
Y1629601D01*
X100704D01*
Y1628954D01*
X101351D01*
Y1629601D01*
X102646D01*
Y1628954D01*
X103293D01*
Y1629601D01*
X104587D01*
Y1628954D01*
X110411D01*
Y1629601D01*
X111706D01*
Y1630249D01*
X111059D01*
Y1631543D01*
X111706D01*
Y1632190D01*
X111059D01*
Y1632837D01*
X111706D01*
Y1657429D01*
X111059D01*
Y1658076D01*
X111706D01*
Y1658723D01*
X113647D01*
Y1658076D01*
X114294D01*
Y1658723D01*
X120119D01*
Y1658076D01*
X120766D01*
Y1658723D01*
X124002D01*
Y1658076D01*
X124649D01*
Y1658723D01*
X127237D01*
Y1658076D01*
D02*
G37*
G36*
X127885Y1604362D02*
X128532D01*
Y1603068D01*
X127885D01*
Y1602421D01*
X128532D01*
Y1601774D01*
X127885D01*
Y1601127D01*
X128532D01*
Y1599832D01*
X127885D01*
Y1599185D01*
X128532D01*
Y1597891D01*
X127885D01*
Y1597244D01*
X128532D01*
Y1594655D01*
X127885D01*
Y1594008D01*
X128532D01*
Y1592714D01*
X127885D01*
Y1592066D01*
X128532D01*
Y1590772D01*
X127885D01*
Y1590125D01*
X128532D01*
Y1588184D01*
X127885D01*
Y1587536D01*
X128532D01*
Y1584948D01*
X127885D01*
Y1584301D01*
X128532D01*
Y1582359D01*
X127885D01*
Y1581712D01*
X128532D01*
Y1581065D01*
X127885D01*
Y1580418D01*
X128532D01*
Y1579123D01*
X127885D01*
Y1578476D01*
X128532D01*
Y1577182D01*
X127885D01*
Y1576535D01*
X128532D01*
Y1575888D01*
X127885D01*
Y1575240D01*
X128532D01*
Y1572652D01*
X127885D01*
Y1572005D01*
X128532D01*
Y1571358D01*
X127885D01*
Y1570710D01*
X128532D01*
Y1569416D01*
X127885D01*
Y1568769D01*
X128532D01*
Y1566828D01*
X127885D01*
Y1566180D01*
X128532D01*
Y1562298D01*
X127885D01*
Y1561650D01*
X128532D01*
Y1560356D01*
X127885D01*
Y1559709D01*
X128532D01*
Y1546766D01*
X127885D01*
Y1546119D01*
X128532D01*
Y1544177D01*
X127885D01*
Y1543530D01*
X128532D01*
Y1541589D01*
X127885D01*
Y1540941D01*
X128532D01*
Y1539647D01*
X127885D01*
Y1539000D01*
X128532D01*
Y1537706D01*
X127885D01*
Y1537059D01*
X128532D01*
Y1534470D01*
X127237D01*
Y1533823D01*
X126590D01*
Y1534470D01*
X125943D01*
Y1535117D01*
X125296D01*
Y1534470D01*
X124649D01*
Y1535117D01*
X123354D01*
Y1535764D01*
X121413D01*
Y1536411D01*
X119472D01*
Y1537059D01*
X117530D01*
Y1537706D01*
X115589D01*
Y1538353D01*
X113000D01*
Y1539000D01*
X110411D01*
Y1539647D01*
X109117D01*
Y1540294D01*
X107823D01*
Y1540941D01*
X107176D01*
Y1540294D01*
X106529D01*
Y1540941D01*
X104587D01*
Y1541589D01*
X102646D01*
Y1542236D01*
X101998D01*
Y1542883D01*
X101351D01*
Y1542236D01*
X100704D01*
Y1542883D01*
X99410D01*
Y1543530D01*
X98763D01*
Y1542883D01*
X98116D01*
Y1543530D01*
X96821D01*
Y1544177D01*
X94880D01*
Y1544824D01*
X92938D01*
Y1545471D01*
X90350D01*
Y1546119D01*
X87761D01*
Y1546766D01*
X86467D01*
Y1547413D01*
X83878D01*
Y1548060D01*
X83231D01*
Y1563592D01*
X83878D01*
Y1564239D01*
X83231D01*
Y1565533D01*
X83878D01*
Y1566180D01*
X83231D01*
Y1567475D01*
X83878D01*
Y1566828D01*
X85172D01*
Y1566180D01*
X87761D01*
Y1565533D01*
X89055D01*
Y1564886D01*
X91644D01*
Y1564239D01*
X92938D01*
Y1563592D01*
X94880D01*
Y1562945D01*
X95527D01*
Y1563592D01*
X96174D01*
Y1562945D01*
X98116D01*
Y1562298D01*
X100057D01*
Y1561650D01*
X101998D01*
Y1561003D01*
X104587D01*
Y1560356D01*
X106529D01*
Y1559709D01*
X108470D01*
Y1559062D01*
X109117D01*
Y1558415D01*
X110411D01*
Y1565533D01*
X109764D01*
Y1566180D01*
X110411D01*
Y1566828D01*
X109764D01*
Y1567475D01*
X110411D01*
Y1568769D01*
X109764D01*
Y1569416D01*
X110411D01*
Y1570063D01*
X109764D01*
Y1570710D01*
X110411D01*
Y1571358D01*
X109764D01*
Y1572005D01*
X110411D01*
Y1572652D01*
X109764D01*
Y1573299D01*
X110411D01*
Y1573946D01*
X109764D01*
Y1575888D01*
X110411D01*
Y1578476D01*
X108470D01*
Y1577829D01*
X107176D01*
Y1577182D01*
X105234D01*
Y1576535D01*
X103293D01*
Y1575888D01*
X101351D01*
Y1575240D01*
X100057D01*
Y1574593D01*
X98116D01*
Y1573946D01*
X96821D01*
Y1573299D01*
X94880D01*
Y1572652D01*
X92938D01*
Y1572005D01*
X90997D01*
Y1571358D01*
X89055D01*
Y1570710D01*
X87761D01*
Y1570063D01*
X85820D01*
Y1569416D01*
X83878D01*
Y1568769D01*
X82584D01*
Y1568122D01*
X80642D01*
Y1567475D01*
X79348D01*
Y1566828D01*
X78701D01*
Y1567475D01*
X78054D01*
Y1566828D01*
X76760D01*
Y1566180D01*
X75465D01*
Y1565533D01*
X74171D01*
Y1564886D01*
X73524D01*
Y1565533D01*
X72877D01*
Y1564886D01*
X71582D01*
Y1564239D01*
X70288D01*
Y1563592D01*
X68347D01*
Y1562945D01*
X66405D01*
Y1562298D01*
X64464D01*
Y1561650D01*
X63169D01*
Y1561003D01*
X61228D01*
Y1560356D01*
X59286D01*
Y1559709D01*
X57992D01*
Y1559062D01*
X56051D01*
Y1558415D01*
X53462D01*
Y1560356D01*
X54109D01*
Y1561003D01*
X53462D01*
Y1561650D01*
X54109D01*
Y1562298D01*
X53462D01*
Y1563592D01*
X54109D01*
Y1564239D01*
X53462D01*
Y1565533D01*
X54109D01*
Y1566180D01*
X53462D01*
Y1566828D01*
X54109D01*
Y1567475D01*
X53462D01*
Y1569416D01*
X54109D01*
Y1570063D01*
X53462D01*
Y1571358D01*
X54109D01*
Y1572005D01*
X53462D01*
Y1572652D01*
X54109D01*
Y1573299D01*
X53462D01*
Y1573946D01*
X54109D01*
Y1574593D01*
X53462D01*
Y1575888D01*
X54109D01*
Y1576535D01*
X53462D01*
Y1577182D01*
X54109D01*
Y1577829D01*
X53462D01*
Y1579123D01*
X54756D01*
Y1579771D01*
X55403D01*
Y1579123D01*
X56051D01*
Y1579771D01*
X56698D01*
Y1580418D01*
X58639D01*
Y1581065D01*
X61228D01*
Y1581712D01*
X63169D01*
Y1582359D01*
X64464D01*
Y1583006D01*
X65758D01*
Y1583654D01*
X66405D01*
Y1583006D01*
X67052D01*
Y1583654D01*
X67699D01*
Y1584301D01*
X69641D01*
Y1584948D01*
X71582D01*
Y1585595D01*
X73524D01*
Y1586242D01*
X74818D01*
Y1586889D01*
X75465D01*
Y1586242D01*
X76112D01*
Y1586889D01*
X77407D01*
Y1587536D01*
X79348D01*
Y1588184D01*
X81290D01*
Y1588831D01*
X82584D01*
Y1589478D01*
X84525D01*
Y1590125D01*
X85820D01*
Y1590772D01*
X88408D01*
Y1591419D01*
X89703D01*
Y1592066D01*
X91644D01*
Y1592714D01*
X92938D01*
Y1593361D01*
X93585D01*
Y1592714D01*
X94233D01*
Y1593361D01*
X96174D01*
Y1594008D01*
X96821D01*
Y1594655D01*
X99410D01*
Y1595302D01*
X100704D01*
Y1595949D01*
X102646D01*
Y1596597D01*
X104587D01*
Y1597244D01*
X106529D01*
Y1597891D01*
X107823D01*
Y1598538D01*
X109764D01*
Y1599185D01*
X111706D01*
Y1599832D01*
X113647D01*
Y1600479D01*
X114294D01*
Y1599832D01*
X114942D01*
Y1600479D01*
X115589D01*
Y1601127D01*
X116883D01*
Y1601774D01*
X118824D01*
Y1602421D01*
X119472D01*
Y1601774D01*
X120119D01*
Y1602421D01*
X120766D01*
Y1603068D01*
X122707D01*
Y1603715D01*
X124649D01*
Y1604362D01*
X125943D01*
Y1605009D01*
X126590D01*
Y1604362D01*
X127237D01*
Y1605009D01*
X127885D01*
Y1604362D01*
D02*
G37*
G36*
X55403Y1547413D02*
X57992D01*
Y1546766D01*
X59934D01*
Y1546119D01*
X61875D01*
Y1545471D01*
X63816D01*
Y1544824D01*
X66405D01*
Y1544177D01*
X68347D01*
Y1543530D01*
X70288D01*
Y1542883D01*
X72229D01*
Y1542236D01*
X74171D01*
Y1541589D01*
X76760D01*
Y1540941D01*
X78054D01*
Y1540294D01*
X78701D01*
Y1540941D01*
X79348D01*
Y1540294D01*
X80642D01*
Y1539647D01*
X83231D01*
Y1539000D01*
X85172D01*
Y1538353D01*
X87114D01*
Y1537706D01*
X87761D01*
Y1537059D01*
X88408D01*
Y1537706D01*
X89703D01*
Y1537059D01*
X90350D01*
Y1536411D01*
X90997D01*
Y1537059D01*
X91644D01*
Y1536411D01*
X93585D01*
Y1535764D01*
X95527D01*
Y1535117D01*
X96821D01*
Y1534470D01*
X99410D01*
Y1533823D01*
X101998D01*
Y1533176D01*
X103940D01*
Y1532529D01*
X105234D01*
Y1531881D01*
X105881D01*
Y1532529D01*
X106529D01*
Y1531881D01*
X107823D01*
Y1531234D01*
X109764D01*
Y1530587D01*
X111706D01*
Y1529940D01*
X112353D01*
Y1530587D01*
X113000D01*
Y1529940D01*
X114942D01*
Y1529293D01*
X116236D01*
Y1528646D01*
X118824D01*
Y1527998D01*
X119472D01*
Y1527351D01*
X120119D01*
Y1527998D01*
X120766D01*
Y1527351D01*
X122060D01*
Y1526704D01*
X125296D01*
Y1526057D01*
X127237D01*
Y1525410D01*
X127885D01*
Y1500818D01*
X127237D01*
Y1500171D01*
X124649D01*
Y1499524D01*
X122707D01*
Y1498877D01*
X121413D01*
Y1498229D01*
X118824D01*
Y1497582D01*
X116236D01*
Y1496935D01*
X114942D01*
Y1496288D01*
X112353D01*
Y1495641D01*
X110411D01*
Y1494994D01*
X108470D01*
Y1494346D01*
X105881D01*
Y1493699D01*
X104587D01*
Y1493052D01*
X101998D01*
Y1492405D01*
X100057D01*
Y1491758D01*
X98116D01*
Y1491111D01*
X96174D01*
Y1490464D01*
X93585D01*
Y1489816D01*
X91644D01*
Y1489169D01*
X90350D01*
Y1488522D01*
X89703D01*
Y1489169D01*
X89055D01*
Y1488522D01*
X87761D01*
Y1487875D01*
X85820D01*
Y1487228D01*
X83878D01*
Y1486581D01*
X81290D01*
Y1485934D01*
X78701D01*
Y1485286D01*
X77407D01*
Y1484639D01*
X74818D01*
Y1483992D01*
X73524D01*
Y1483345D01*
X70935D01*
Y1482698D01*
X68347D01*
Y1482051D01*
X67052D01*
Y1481404D01*
X64464D01*
Y1480756D01*
X62522D01*
Y1480109D01*
X60581D01*
Y1479462D01*
X57992D01*
Y1478815D01*
X56051D01*
Y1478168D01*
X54756D01*
Y1477520D01*
X54109D01*
Y1498229D01*
X54756D01*
Y1498877D01*
X56051D01*
Y1499524D01*
X56698D01*
Y1498877D01*
X57345D01*
Y1499524D01*
X58639D01*
Y1500171D01*
X61228D01*
Y1500818D01*
X62522D01*
Y1501465D01*
X64464D01*
Y1502112D01*
X66405D01*
Y1502760D01*
X68994D01*
Y1503407D01*
X70935D01*
Y1504054D01*
X72229D01*
Y1504701D01*
X74171D01*
Y1505348D01*
X76112D01*
Y1505995D01*
X78054D01*
Y1506642D01*
X80642D01*
Y1507289D01*
X81937D01*
Y1507937D01*
X83878D01*
Y1508584D01*
X86467D01*
Y1509231D01*
X87761D01*
Y1509878D01*
X88408D01*
Y1509231D01*
X89055D01*
Y1509878D01*
X90350D01*
Y1510525D01*
X91644D01*
Y1511172D01*
X94233D01*
Y1511820D01*
X96821D01*
Y1512467D01*
X98116D01*
Y1513114D01*
X100057D01*
Y1513761D01*
X100704D01*
Y1514408D01*
X99410D01*
Y1515055D01*
X98763D01*
Y1514408D01*
X98116D01*
Y1515055D01*
X96821D01*
Y1515703D01*
X94880D01*
Y1516350D01*
X94233D01*
Y1515703D01*
X93585D01*
Y1516350D01*
X92291D01*
Y1516997D01*
X89703D01*
Y1517644D01*
X88408D01*
Y1518291D01*
X87761D01*
Y1517644D01*
X87114D01*
Y1518291D01*
X85172D01*
Y1518938D01*
X82584D01*
Y1519585D01*
X80642D01*
Y1520233D01*
X79348D01*
Y1520880D01*
X78701D01*
Y1520233D01*
X78054D01*
Y1520880D01*
X76760D01*
Y1521527D01*
X74171D01*
Y1522174D01*
X72229D01*
Y1522821D01*
X71582D01*
Y1522174D01*
X70935D01*
Y1522821D01*
X70288D01*
Y1523468D01*
X69641D01*
Y1522821D01*
X68994D01*
Y1523468D01*
X67699D01*
Y1524115D01*
X65111D01*
Y1524763D01*
X62522D01*
Y1525410D01*
X60581D01*
Y1526057D01*
X57992D01*
Y1526704D01*
X55403D01*
Y1527351D01*
X54109D01*
Y1548060D01*
X55403D01*
Y1547413D01*
D02*
G37*
G36*
X145358Y1775858D02*
X144711D01*
Y1775211D01*
X145358D01*
Y1772622D01*
X146005D01*
Y1771975D01*
X145358D01*
Y1770681D01*
X146005D01*
Y1770033D01*
X145358D01*
Y1769386D01*
X146005D01*
Y1768739D01*
X145358D01*
Y1768092D01*
X146005D01*
Y1766150D01*
X145358D01*
Y1765503D01*
X146005D01*
Y1756443D01*
X74818D01*
Y1755796D01*
X74171D01*
Y1755149D01*
X73524D01*
Y1755796D01*
X72877D01*
Y1754502D01*
X71582D01*
Y1753855D01*
X70935D01*
Y1752560D01*
X70288D01*
Y1750619D01*
X69641D01*
Y1749324D01*
X68994D01*
Y1744794D01*
X68347D01*
Y1744147D01*
X68994D01*
Y1742853D01*
X68347D01*
Y1742206D01*
X68994D01*
Y1741559D01*
X68347D01*
Y1740912D01*
X68994D01*
Y1739617D01*
X68347D01*
Y1738970D01*
X68994D01*
Y1738323D01*
X68347D01*
Y1737676D01*
X68994D01*
Y1737029D01*
X68347D01*
Y1736381D01*
X68994D01*
Y1735734D01*
X125943D01*
Y1715673D01*
X51521D01*
Y1761620D01*
X52168D01*
Y1763562D01*
X52815D01*
Y1765503D01*
X53462D01*
Y1767445D01*
X54109D01*
Y1768739D01*
X54756D01*
Y1770033D01*
X55403D01*
Y1771328D01*
X56051D01*
Y1771975D01*
X56698D01*
Y1772622D01*
X57345D01*
Y1773269D01*
X57992D01*
Y1773916D01*
X58639D01*
Y1774563D01*
X59934D01*
Y1775211D01*
X61228D01*
Y1775858D01*
X63169D01*
Y1776505D01*
X63816D01*
Y1775858D01*
X64464D01*
Y1776505D01*
X65111D01*
Y1775858D01*
X65758D01*
Y1776505D01*
X67699D01*
Y1775858D01*
X68347D01*
Y1776505D01*
X69641D01*
Y1775858D01*
X70288D01*
Y1776505D01*
X70935D01*
Y1775858D01*
X71582D01*
Y1776505D01*
X72877D01*
Y1775858D01*
X73524D01*
Y1776505D01*
X75465D01*
Y1775858D01*
X76112D01*
Y1776505D01*
X77407D01*
Y1775858D01*
X78054D01*
Y1776505D01*
X78701D01*
Y1775858D01*
X79348D01*
Y1776505D01*
X80642D01*
Y1775858D01*
X81290D01*
Y1776505D01*
X82584D01*
Y1775858D01*
X83231D01*
Y1776505D01*
X83878D01*
Y1775858D01*
X84525D01*
Y1776505D01*
X86467D01*
Y1775858D01*
X87114D01*
Y1776505D01*
X87761D01*
Y1775858D01*
X88408D01*
Y1776505D01*
X90350D01*
Y1775858D01*
X90997D01*
Y1776505D01*
X92938D01*
Y1775858D01*
X93585D01*
Y1776505D01*
X94880D01*
Y1775858D01*
X95527D01*
Y1776505D01*
X96821D01*
Y1775858D01*
X97468D01*
Y1776505D01*
X99410D01*
Y1775858D01*
X100057D01*
Y1776505D01*
X100704D01*
Y1775858D01*
X101351D01*
Y1776505D01*
X103293D01*
Y1775858D01*
X103940D01*
Y1776505D01*
X105881D01*
Y1775858D01*
X106529D01*
Y1776505D01*
X108470D01*
Y1775858D01*
X109117D01*
Y1776505D01*
X111059D01*
Y1775858D01*
X111706D01*
Y1776505D01*
X113647D01*
Y1775858D01*
X114294D01*
Y1776505D01*
X116236D01*
Y1775858D01*
X116883D01*
Y1776505D01*
X117530D01*
Y1775858D01*
X118177D01*
Y1776505D01*
X119472D01*
Y1775858D01*
X120119D01*
Y1776505D01*
X121413D01*
Y1775858D01*
X122060D01*
Y1776505D01*
X124002D01*
Y1775858D01*
X124649D01*
Y1776505D01*
X125296D01*
Y1775858D01*
X125943D01*
Y1776505D01*
X127237D01*
Y1775858D01*
X127885D01*
Y1776505D01*
X129179D01*
Y1775858D01*
X129826D01*
Y1776505D01*
X130473D01*
Y1775858D01*
X131120D01*
Y1776505D01*
X132415D01*
Y1775858D01*
X133062D01*
Y1776505D01*
X135003D01*
Y1775858D01*
X135650D01*
Y1776505D01*
X136945D01*
Y1775858D01*
X137592D01*
Y1776505D01*
X139533D01*
Y1775858D01*
X140180D01*
Y1776505D01*
X140828D01*
Y1775858D01*
X141475D01*
Y1776505D01*
X142122D01*
Y1775858D01*
X142769D01*
Y1776505D01*
X145358D01*
Y1775858D01*
D02*
G37*
G36*
X126590Y1710495D02*
X128532D01*
Y1661312D01*
X127885D01*
Y1660665D01*
X127237D01*
Y1661312D01*
X125943D01*
Y1660665D01*
X124649D01*
Y1661312D01*
X124002D01*
Y1660665D01*
X123354D01*
Y1661312D01*
X122707D01*
Y1660665D01*
X121413D01*
Y1661312D01*
X120766D01*
Y1660665D01*
X119472D01*
Y1661312D01*
X118824D01*
Y1660665D01*
X116883D01*
Y1661312D01*
X116236D01*
Y1660665D01*
X114294D01*
Y1661312D01*
X113647D01*
Y1660665D01*
X113000D01*
Y1661312D01*
X112353D01*
Y1660665D01*
X111059D01*
Y1661312D01*
X110411D01*
Y1660665D01*
X109764D01*
Y1661312D01*
X109117D01*
Y1660665D01*
X106529D01*
Y1661312D01*
X105881D01*
Y1660665D01*
X104587D01*
Y1661312D01*
X103940D01*
Y1660665D01*
X101998D01*
Y1661312D01*
X101351D01*
Y1660665D01*
X100057D01*
Y1661312D01*
X99410D01*
Y1660665D01*
X98116D01*
Y1661312D01*
X97468D01*
Y1660665D01*
X96174D01*
Y1661312D01*
X95527D01*
Y1660665D01*
X94880D01*
Y1661312D01*
X94233D01*
Y1660665D01*
X92938D01*
Y1661312D01*
X92291D01*
Y1660665D01*
X91644D01*
Y1661312D01*
X90997D01*
Y1660665D01*
X90350D01*
Y1661312D01*
X89703D01*
Y1660665D01*
X88408D01*
Y1661312D01*
X87761D01*
Y1660665D01*
X85820D01*
Y1661312D01*
X85172D01*
Y1660665D01*
X84525D01*
Y1661312D01*
X83878D01*
Y1660665D01*
X83231D01*
Y1661312D01*
X82584D01*
Y1662606D01*
X83231D01*
Y1663253D01*
X82584D01*
Y1664547D01*
X83231D01*
Y1665195D01*
X82584D01*
Y1666489D01*
X83231D01*
Y1667136D01*
X82584D01*
Y1668430D01*
X83231D01*
Y1669078D01*
X82584D01*
Y1671019D01*
X83231D01*
Y1671666D01*
X82584D01*
Y1672313D01*
X83231D01*
Y1672961D01*
X82584D01*
Y1673608D01*
X83231D01*
Y1674255D01*
X82584D01*
Y1676196D01*
X83231D01*
Y1676843D01*
X82584D01*
Y1678785D01*
X83231D01*
Y1679432D01*
X82584D01*
Y1680726D01*
X83231D01*
Y1681373D01*
X82584D01*
Y1683962D01*
X83231D01*
Y1684609D01*
X82584D01*
Y1685904D01*
X83231D01*
Y1686551D01*
X82584D01*
Y1687198D01*
X83231D01*
Y1687845D01*
X82584D01*
Y1691728D01*
X83231D01*
Y1692375D01*
X82584D01*
Y1693022D01*
X83231D01*
Y1693669D01*
X82584D01*
Y1694317D01*
X83231D01*
Y1694964D01*
X82584D01*
Y1695611D01*
X83231D01*
Y1696258D01*
X82584D01*
Y1696905D01*
X83231D01*
Y1697552D01*
X82584D01*
Y1698199D01*
X83231D01*
Y1698847D01*
X82584D01*
Y1700788D01*
X83231D01*
Y1701435D01*
X82584D01*
Y1702082D01*
X83231D01*
Y1702729D01*
X82584D01*
Y1703377D01*
X83231D01*
Y1704024D01*
X82584D01*
Y1704671D01*
X83231D01*
Y1705318D01*
X82584D01*
Y1705965D01*
X83231D01*
Y1706612D01*
X82584D01*
Y1707907D01*
X83231D01*
Y1708554D01*
X82584D01*
Y1710495D01*
X83878D01*
Y1711142D01*
X84525D01*
Y1710495D01*
X85820D01*
Y1711142D01*
X86467D01*
Y1710495D01*
X87114D01*
Y1711142D01*
X88408D01*
Y1710495D01*
X89055D01*
Y1711142D01*
X89703D01*
Y1710495D01*
X90350D01*
Y1711142D01*
X90997D01*
Y1710495D01*
X92291D01*
Y1711142D01*
X92938D01*
Y1710495D01*
X93585D01*
Y1711142D01*
X94233D01*
Y1710495D01*
X96174D01*
Y1711142D01*
X96821D01*
Y1710495D01*
X98116D01*
Y1711142D01*
X98763D01*
Y1681373D01*
X111706D01*
Y1710495D01*
X113647D01*
Y1711142D01*
X116236D01*
Y1710495D01*
X116883D01*
Y1711142D01*
X118824D01*
Y1710495D01*
X119472D01*
Y1711142D01*
X120119D01*
Y1710495D01*
X120766D01*
Y1711142D01*
X121413D01*
Y1710495D01*
X122060D01*
Y1711142D01*
X124002D01*
Y1710495D01*
X124649D01*
Y1711142D01*
X125296D01*
Y1710495D01*
X125943D01*
Y1711142D01*
X126590D01*
Y1710495D01*
D02*
G37*
G36*
X70935Y1660018D02*
X52815D01*
Y1711142D01*
X70935D01*
Y1660018D01*
D02*
G37*
D43*
X434369Y555661D02*
G03*
X434450Y555500I-850J-527D01*
G01*
X886369Y555661D02*
G03*
X886450Y555500I-850J-527D01*
G01*
X434369Y1557661D02*
G03*
X434450Y1557500I-850J-527D01*
G01*
X886369Y1557661D02*
G03*
X886450Y1557500I-850J-527D01*
G01*
D44*
X137500Y79600D02*
X194500D01*
X386500Y106400D02*
X443500D01*
X137500Y1081600D02*
X194500D01*
X386500Y1108400D02*
X443500D01*
D46*
X728450Y568600D02*
G03*
X728450Y568600I-2583J0D01*
G01*
X276450D02*
G03*
X276450Y568600I-2583J0D01*
G01*
X728450Y1570600D02*
G03*
X728450Y1570600I-2583J0D01*
G01*
X276450D02*
G03*
X276450Y1570600I-2583J0D01*
G01*
D92*
X1527667Y185000D02*
G03*
X1520333Y185000I-3667J0D01*
G01*
X1800050Y175400D02*
G03*
X1807000Y182350I0J6950D01*
G01*
X1754000Y175350D02*
G03*
X1747050Y168400I0J-6950D01*
G01*
X1807000Y345650D02*
G03*
X1800050Y352600I-6950J0D01*
G01*
X1747050Y359600D02*
G03*
X1754000Y352650I6950J0D01*
G01*
X1161000Y36000D02*
G03*
X1161000Y36000I-16000J0D01*
G01*
X1111000D02*
G03*
X1111000Y36000I-16000J0D01*
G01*
X1061000D02*
G03*
X1061000Y36000I-16000J0D01*
G01*
X350863Y254110D02*
G03*
X351388Y203253I31137J-25110D01*
G01*
X413136Y203890D02*
G03*
X412612Y254747I-31137J25110D01*
G01*
X349949Y115413D02*
G03*
X234051Y115413I-57949J-23413D01*
G01*
Y68587D02*
G03*
X349949Y68587I57949J23413D01*
G01*
X543413Y158051D02*
G03*
X543413Y273949I-23413J57949D01*
G01*
X496587D02*
G03*
X496587Y158051I23413J-57949D01*
G01*
X840200Y79000D02*
G03*
X879800Y79000I19800J-15000D01*
G01*
X932200D02*
G03*
X971800Y79000I19800J-15000D01*
G01*
X1106231Y186500D02*
X1106254Y186477D01*
X1041500Y186500D02*
X1106231D01*
X1041500Y151500D02*
X1041523Y151477D01*
X1106254D01*
X1016500Y192500D02*
X1131500D01*
X1016500Y145500D02*
X1131500D01*
X1016500D02*
Y161500D01*
Y176500D02*
Y192500D01*
X1131500Y176500D02*
Y192500D01*
Y145500D02*
Y161500D01*
X1504000Y185000D02*
Y285000D01*
X1544000Y185000D02*
Y285000D01*
X1504000D02*
X1544000D01*
X1504000Y185000D02*
X1520333D01*
X1527666D02*
X1544000D01*
X1754000Y175350D02*
X1800000D01*
X1754000Y352650D02*
X1800000D01*
X1623000Y334000D02*
X1717000D01*
X1747000Y110000D02*
Y418000D01*
X1623000Y194000D02*
X1717000D01*
X1623000Y110000D02*
Y418000D01*
X1807000Y182350D02*
Y345650D01*
X1623000Y418000D02*
X1747000D01*
X1623000Y110000D02*
X1747000D01*
X1717000D02*
Y418000D01*
X1495500Y125000D02*
X1532500D01*
X1495500Y155000D02*
X1532500D01*
X1020000Y81000D02*
X1170000D01*
Y5000D02*
Y81000D01*
X1160000Y5000D02*
Y13000D01*
X1130000Y5000D02*
Y13000D01*
X1160000D01*
X1110000Y5000D02*
Y13000D01*
X1080000Y5000D02*
Y13000D01*
X1110000D01*
X1060000Y5000D02*
Y13000D01*
X1030000Y5000D02*
Y13000D01*
X1060000D01*
X1120000Y5000D02*
Y81000D01*
X1070000Y5000D02*
Y81000D01*
X1020000Y5000D02*
Y81000D01*
Y5000D02*
X1170000D01*
X1285400Y46500D02*
Y65814D01*
X1205000Y39000D02*
Y45000D01*
X1221000Y39000D02*
Y45000D01*
X1232750Y20186D02*
Y39500D01*
X136000Y57700D02*
Y127800D01*
X196000Y57700D02*
Y127800D01*
X241000Y282000D02*
X252000D01*
Y178000D02*
Y282000D01*
X240100Y178000D02*
X252000D01*
X329500Y176500D02*
Y281500D01*
X434500Y176500D02*
Y281500D01*
X410300Y176500D02*
X434500D01*
X410300Y281500D02*
X434500D01*
X329500Y176500D02*
X353700D01*
X329500Y281500D02*
X353700D01*
X604650Y235350D02*
X617150D01*
X359500Y159500D02*
X359600Y115050D01*
X359500Y24500D02*
Y68900D01*
X224500Y117000D02*
Y131350D01*
Y54100D02*
Y67000D01*
X252650Y159500D02*
X359500D01*
X254100Y24500D02*
X359500D01*
X224500Y54100D02*
X254100Y24500D01*
X224500Y131350D02*
X252650Y159500D01*
X445000Y58200D02*
Y128300D01*
X385000Y58200D02*
Y128300D01*
X184300Y451000D02*
Y491000D01*
X209300Y451000D02*
Y491000D01*
X139200Y451000D02*
Y491000D01*
Y451000D02*
X209200D01*
X139200Y491000D02*
X209200D01*
X543050Y148400D02*
X587500Y148500D01*
X452500D02*
X496900D01*
X545000Y283500D02*
X559350D01*
X482100D02*
X495000D01*
X587500Y148500D02*
Y255350D01*
X452500Y148500D02*
Y253900D01*
X482100Y283500D01*
X559350D02*
X587500Y255350D01*
X556350Y722850D02*
Y735350D01*
X957000Y687000D02*
X973000Y703000D01*
X957000Y653000D02*
X973000Y637000D01*
X1023000D01*
X973000Y703000D02*
X1023000D01*
Y682000D02*
Y703000D01*
Y637000D02*
Y658000D01*
X957000Y653000D02*
Y658000D01*
Y682000D02*
Y687000D01*
Y611000D02*
X973000Y627000D01*
X957000Y577000D02*
X973000Y561000D01*
X1023000D01*
X973000Y627000D02*
X1023000D01*
Y606000D02*
Y627000D01*
Y561000D02*
Y582000D01*
X957000Y577000D02*
Y582000D01*
Y606000D02*
Y611000D01*
X505000D02*
X521000Y627000D01*
X505000Y577000D02*
X521000Y561000D01*
X571000D01*
X521000Y627000D02*
X571000D01*
Y606000D02*
Y627000D01*
Y561000D02*
Y582000D01*
X505000Y577000D02*
Y582000D01*
Y606000D02*
Y611000D01*
Y687000D02*
X521000Y703000D01*
X505000Y653000D02*
X521000Y637000D01*
X571000D01*
X521000Y703000D02*
X571000D01*
Y682000D02*
Y703000D01*
Y637000D02*
Y658000D01*
X505000Y653000D02*
Y658000D01*
Y682000D02*
Y687000D01*
X853000Y490000D02*
Y496000D01*
X869000Y490000D02*
Y496000D01*
X400000Y486000D02*
Y492000D01*
X416000Y486000D02*
Y492000D01*
X669650Y645350D02*
X682150D01*
X200650D02*
X213150D01*
X646850Y684650D02*
X659350D01*
X222850D02*
X235350D01*
X939000Y233000D02*
X1025000D01*
X939000Y319000D02*
X1025000D01*
Y233000D02*
Y319000D01*
X939000Y233000D02*
Y319000D01*
X942000Y136500D02*
Y173500D01*
X972000Y136500D02*
Y173500D01*
X831000Y204000D02*
Y314000D01*
X807000D02*
X831000D01*
X807000Y204000D02*
X831000D01*
X807000D02*
Y314000D01*
X1264000Y744000D02*
X1364000D01*
X1264000Y544000D02*
X1364000D01*
X1264000D02*
Y744000D01*
X1364000Y544000D02*
Y744000D01*
X1369333D02*
X1469333D01*
X1369333Y544000D02*
X1469333D01*
X1369333D02*
Y744000D01*
X1469333Y544000D02*
Y744000D01*
X1474667D02*
X1574667D01*
X1474667Y544000D02*
X1574667D01*
X1474667D02*
Y744000D01*
X1574667Y544000D02*
Y744000D01*
X1580000D02*
X1680000D01*
X1580000Y544000D02*
X1680000D01*
X1580000D02*
Y744000D01*
X1680000Y544000D02*
Y744000D01*
X1273500Y512250D02*
Y529750D01*
Y512250D02*
X1278000Y507750D01*
X1273500Y529750D02*
X1278000Y534250D01*
X1327500Y507750D02*
X1351500D01*
X1327500Y534250D02*
X1351500D01*
Y507750D02*
Y534250D01*
X1278000Y507750D02*
X1300500D01*
X1278000Y534250D02*
X1300500D01*
X1378500Y512250D02*
Y529750D01*
Y512250D02*
X1383000Y507750D01*
X1378500Y529750D02*
X1383000Y534250D01*
X1432500Y507750D02*
X1456500D01*
X1432500Y534250D02*
X1456500D01*
Y507750D02*
Y534250D01*
X1383000Y507750D02*
X1405500D01*
X1383000Y534250D02*
X1405500D01*
X1484500Y512250D02*
Y529750D01*
Y512250D02*
X1489000Y507750D01*
X1484500Y529750D02*
X1489000Y534250D01*
X1538500Y507750D02*
X1562500D01*
X1538500Y534250D02*
X1562500D01*
Y507750D02*
Y534250D01*
X1489000Y507750D02*
X1511500D01*
X1489000Y534250D02*
X1511500D01*
X1589500Y512250D02*
Y529750D01*
Y512250D02*
X1594000Y507750D01*
X1589500Y529750D02*
X1594000Y534250D01*
X1643500Y507750D02*
X1667500D01*
X1643500Y534250D02*
X1667500D01*
Y507750D02*
Y534250D01*
X1594000Y507750D02*
X1616500D01*
X1594000Y534250D02*
X1616500D01*
X764650Y35350D02*
X777150D01*
X1351000Y484000D02*
X1360000D01*
Y458000D02*
Y484000D01*
X1314000D02*
X1323000D01*
X1314000Y458000D02*
Y484000D01*
X1456000D02*
X1465000D01*
Y458000D02*
Y484000D01*
X1419000D02*
X1428000D01*
X1419000Y458000D02*
Y484000D01*
X1561000D02*
X1570000D01*
Y458000D02*
Y484000D01*
X1524000D02*
X1533000D01*
X1524000Y458000D02*
Y484000D01*
X1667000D02*
X1676000D01*
Y458000D02*
Y484000D01*
X1630000D02*
X1639000D01*
X1630000Y458000D02*
Y484000D01*
X739650Y35350D02*
X752150D01*
X649500Y967000D02*
X682500D01*
X649500D02*
Y997000D01*
X682500Y967000D02*
Y997000D01*
X566000D02*
X766000D01*
X566000Y873750D02*
Y997000D01*
X766000Y873750D02*
Y997000D01*
X566000Y873750D02*
X766000D01*
X202500Y967000D02*
X235500D01*
X202500D02*
Y997000D01*
X235500Y967000D02*
Y997000D01*
X119000D02*
X319000D01*
X119000Y873750D02*
Y997000D01*
X319000Y873750D02*
Y997000D01*
X119000Y873750D02*
X319000D01*
X891500Y967000D02*
X924500D01*
X891500D02*
Y997000D01*
X924500Y967000D02*
Y997000D01*
X808000D02*
X1008000D01*
X808000Y873750D02*
Y997000D01*
X1008000Y873750D02*
Y997000D01*
X808000Y873750D02*
X1008000D01*
X442500Y967000D02*
X475500D01*
X442500D02*
Y997000D01*
X475500Y967000D02*
Y997000D01*
X359000D02*
X559000D01*
X359000Y873750D02*
Y997000D01*
X559000Y873750D02*
Y997000D01*
X359000Y873750D02*
X559000D01*
X1450500Y967000D02*
X1483500D01*
X1450500D02*
Y997000D01*
X1483500Y967000D02*
Y997000D01*
X1367000D02*
X1567000D01*
X1367000Y873750D02*
Y997000D01*
X1567000Y873750D02*
Y997000D01*
X1367000Y873750D02*
X1567000D01*
X34000Y375500D02*
Y408500D01*
X4000Y375500D02*
X34000D01*
X4000Y408500D02*
X34000D01*
X4000Y342000D02*
Y442000D01*
Y342000D02*
X127250D01*
X4000Y442000D02*
X127250D01*
Y342000D02*
Y442000D01*
X840200Y79000D02*
X879800D01*
X932200D02*
X971800D01*
X1533003Y293000D02*
X1541334D01*
X1543000Y294666D01*
Y297998D01*
X1541334Y299664D01*
X1533003D01*
Y302997D02*
Y309661D01*
X1534669D01*
X1541334Y302997D01*
X1543000D01*
X808000Y69997D02*
Y61666D01*
X809666Y60000D01*
X812998D01*
X814665Y61666D01*
Y69997D01*
X824661D02*
X821329Y68331D01*
X817997Y64998D01*
Y61666D01*
X819663Y60000D01*
X822995D01*
X824661Y61666D01*
Y63332D01*
X822995Y64998D01*
X817997D01*
X904000Y65997D02*
Y57666D01*
X905666Y56000D01*
X908998D01*
X910665Y57666D01*
Y65997D01*
X920661D02*
X913997D01*
Y60998D01*
X917329Y62664D01*
X918995D01*
X920661Y60998D01*
Y57666D01*
X918995Y56000D01*
X915663D01*
X913997Y57666D01*
X724000Y515997D02*
Y507666D01*
X725666Y506000D01*
X728998D01*
X730665Y507666D01*
Y515997D01*
X733997Y514331D02*
X735663Y515997D01*
X738995D01*
X740661Y514331D01*
Y512664D01*
X738995Y510998D01*
X737329D01*
X738995D01*
X740661Y509332D01*
Y507666D01*
X738995Y506000D01*
X735663D01*
X733997Y507666D01*
X231000Y552997D02*
Y544666D01*
X232666Y543000D01*
X235998D01*
X237665Y544666D01*
Y552997D01*
X247661Y543000D02*
X240997D01*
X247661Y549664D01*
Y551331D01*
X245995Y552997D01*
X242663D01*
X240997Y551331D01*
X1051000Y342997D02*
Y334666D01*
X1052666Y333000D01*
X1055998D01*
X1057664Y334666D01*
Y342997D01*
X1060997Y333000D02*
X1064329D01*
X1062663D01*
Y342997D01*
X1060997Y341331D01*
X809000Y88000D02*
Y97997D01*
X813998D01*
X815665Y96331D01*
Y92998D01*
X813998Y91332D01*
X809000D01*
X812332D02*
X815665Y88000D01*
X818997Y96331D02*
X820663Y97997D01*
X823995D01*
X825661Y96331D01*
Y94664D01*
X823995Y92998D01*
X822329D01*
X823995D01*
X825661Y91332D01*
Y89666D01*
X823995Y88000D01*
X820663D01*
X818997Y89666D01*
X828994Y96331D02*
X830660Y97997D01*
X833992D01*
X835658Y96331D01*
Y89666D01*
X833992Y88000D01*
X830660D01*
X828994Y89666D01*
Y96331D01*
X892000Y22000D02*
Y31997D01*
X896998D01*
X898664Y30331D01*
Y26998D01*
X896998Y25332D01*
X892000D01*
X895332D02*
X898664Y22000D01*
X908661D02*
X901997D01*
X908661Y28665D01*
Y30331D01*
X906995Y31997D01*
X903663D01*
X901997Y30331D01*
X911993Y23666D02*
X913660Y22000D01*
X916992D01*
X918658Y23666D01*
Y30331D01*
X916992Y31997D01*
X913660D01*
X911993Y30331D01*
Y28665D01*
X913660Y26998D01*
X918658D01*
X1200000Y71000D02*
Y80997D01*
X1204998D01*
X1206665Y79331D01*
Y75998D01*
X1204998Y74332D01*
X1200000D01*
X1203332D02*
X1206665Y71000D01*
X1216661D02*
X1209997D01*
X1216661Y77664D01*
Y79331D01*
X1214995Y80997D01*
X1211663D01*
X1209997Y79331D01*
X1219994D02*
X1221660Y80997D01*
X1224992D01*
X1226658Y79331D01*
Y77664D01*
X1224992Y75998D01*
X1226658Y74332D01*
Y72666D01*
X1224992Y71000D01*
X1221660D01*
X1219994Y72666D01*
Y74332D01*
X1221660Y75998D01*
X1219994Y77664D01*
Y79331D01*
X1221660Y75998D02*
X1224992D01*
X650000Y711000D02*
Y720997D01*
X654998D01*
X656665Y719331D01*
Y715998D01*
X654998Y714332D01*
X650000D01*
X653332D02*
X656665Y711000D01*
X666661D02*
X659997D01*
X666661Y717664D01*
Y719331D01*
X664995Y720997D01*
X661663D01*
X659997Y719331D01*
X676658Y720997D02*
X673326Y719331D01*
X669994Y715998D01*
Y712666D01*
X671660Y711000D01*
X674992D01*
X676658Y712666D01*
Y714332D01*
X674992Y715998D01*
X669994D01*
X205000Y711000D02*
Y720997D01*
X209998D01*
X211665Y719331D01*
Y715998D01*
X209998Y714332D01*
X205000D01*
X208332D02*
X211665Y711000D01*
X221661D02*
X214997D01*
X221661Y717664D01*
Y719331D01*
X219995Y720997D01*
X216663D01*
X214997Y719331D01*
X231658Y720997D02*
X224994D01*
Y715998D01*
X228326Y717664D01*
X229992D01*
X231658Y715998D01*
Y712666D01*
X229992Y711000D01*
X226660D01*
X224994Y712666D01*
X950000Y407000D02*
Y416997D01*
X954998D01*
X956665Y415331D01*
Y411998D01*
X954998Y410332D01*
X950000D01*
X953332D02*
X956665Y407000D01*
X966661D02*
X959997D01*
X966661Y413665D01*
Y415331D01*
X964995Y416997D01*
X961663D01*
X959997Y415331D01*
X974992Y407000D02*
Y416997D01*
X969994Y411998D01*
X976658D01*
X857000Y307000D02*
X847003D01*
Y311998D01*
X848669Y313664D01*
X852002D01*
X853668Y311998D01*
Y307000D01*
Y310332D02*
X857000Y313664D01*
Y323661D02*
Y316997D01*
X850335Y323661D01*
X848669D01*
X847003Y321995D01*
Y318663D01*
X848669Y316997D01*
Y326994D02*
X847003Y328660D01*
Y331992D01*
X848669Y333658D01*
X850335D01*
X852002Y331992D01*
Y330326D01*
Y331992D01*
X853668Y333658D01*
X855334D01*
X857000Y331992D01*
Y328660D01*
X855334Y326994D01*
X1028000Y439000D02*
X1018003D01*
Y443998D01*
X1019669Y445664D01*
X1023002D01*
X1024668Y443998D01*
Y439000D01*
Y442332D02*
X1028000Y445664D01*
Y455661D02*
Y448997D01*
X1021336Y455661D01*
X1019669D01*
X1018003Y453995D01*
Y450663D01*
X1019669Y448997D01*
X1028000Y465658D02*
Y458994D01*
X1021336Y465658D01*
X1019669D01*
X1018003Y463992D01*
Y460660D01*
X1019669Y458994D01*
X800000Y356000D02*
Y365997D01*
X804998D01*
X806665Y364331D01*
Y360998D01*
X804998Y359332D01*
X800000D01*
X803332D02*
X806665Y356000D01*
X816661D02*
X809997D01*
X816661Y362664D01*
Y364331D01*
X814995Y365997D01*
X811663D01*
X809997Y364331D01*
X819994Y356000D02*
X823326D01*
X821660D01*
Y365997D01*
X819994Y364331D01*
X1112000Y217000D02*
Y226997D01*
X1116998D01*
X1118664Y225331D01*
Y221998D01*
X1116998Y220332D01*
X1112000D01*
X1115332D02*
X1118664Y217000D01*
X1128661D02*
X1121997D01*
X1128661Y223664D01*
Y225331D01*
X1126995Y226997D01*
X1123663D01*
X1121997Y225331D01*
X1131994D02*
X1133660Y226997D01*
X1136992D01*
X1138658Y225331D01*
Y218666D01*
X1136992Y217000D01*
X1133660D01*
X1131994Y218666D01*
Y225331D01*
X1112000Y263000D02*
Y272997D01*
X1116998D01*
X1118664Y271331D01*
Y267998D01*
X1116998Y266332D01*
X1112000D01*
X1115332D02*
X1118664Y263000D01*
X1121997D02*
X1125329D01*
X1123663D01*
Y272997D01*
X1121997Y271331D01*
X1130327Y264666D02*
X1131994Y263000D01*
X1135326D01*
X1136992Y264666D01*
Y271331D01*
X1135326Y272997D01*
X1131994D01*
X1130327Y271331D01*
Y269664D01*
X1131994Y267998D01*
X1136992D01*
X1130000Y232000D02*
Y241997D01*
X1134998D01*
X1136665Y240331D01*
Y236998D01*
X1134998Y235332D01*
X1130000D01*
X1133332D02*
X1136665Y232000D01*
X1139997D02*
X1143329D01*
X1141663D01*
Y241997D01*
X1139997Y240331D01*
X1148327D02*
X1149994Y241997D01*
X1153326D01*
X1154992Y240331D01*
Y238664D01*
X1153326Y236998D01*
X1154992Y235332D01*
Y233666D01*
X1153326Y232000D01*
X1149994D01*
X1148327Y233666D01*
Y235332D01*
X1149994Y236998D01*
X1148327Y238664D01*
Y240331D01*
X1149994Y236998D02*
X1153326D01*
X1130000Y247000D02*
Y256997D01*
X1134998D01*
X1136665Y255331D01*
Y251998D01*
X1134998Y250332D01*
X1130000D01*
X1133332D02*
X1136665Y247000D01*
X1139997D02*
X1143329D01*
X1141663D01*
Y256997D01*
X1139997Y255331D01*
X1148327Y256997D02*
X1154992D01*
Y255331D01*
X1148327Y248666D01*
Y247000D01*
X1059000Y397000D02*
X1049003D01*
Y401998D01*
X1050669Y403665D01*
X1054002D01*
X1055668Y401998D01*
Y397000D01*
Y400332D02*
X1059000Y403665D01*
Y406997D02*
Y410329D01*
Y408663D01*
X1049003D01*
X1050669Y406997D01*
X1049003Y421992D02*
X1050669Y418660D01*
X1054002Y415327D01*
X1057334D01*
X1059000Y416994D01*
Y420326D01*
X1057334Y421992D01*
X1055668D01*
X1054002Y420326D01*
Y415327D01*
X800000Y387000D02*
Y396997D01*
X804998D01*
X806665Y395331D01*
Y391998D01*
X804998Y390332D01*
X800000D01*
X803332D02*
X806665Y387000D01*
X809997D02*
X813329D01*
X811663D01*
Y396997D01*
X809997Y395331D01*
X824992Y396997D02*
X818327D01*
Y391998D01*
X821660Y393665D01*
X823326D01*
X824992Y391998D01*
Y388666D01*
X823326Y387000D01*
X819994D01*
X818327Y388666D01*
X996000Y429000D02*
X986003D01*
Y433998D01*
X987669Y435664D01*
X991002D01*
X992668Y433998D01*
Y429000D01*
Y432332D02*
X996000Y435664D01*
Y438997D02*
Y442329D01*
Y440663D01*
X986003D01*
X987669Y438997D01*
X996000Y452326D02*
X986003D01*
X991002Y447327D01*
Y453992D01*
X800000Y326000D02*
Y335997D01*
X804998D01*
X806665Y334331D01*
Y330998D01*
X804998Y329332D01*
X800000D01*
X803332D02*
X806665Y326000D01*
X809997D02*
X813329D01*
X811663D01*
Y335997D01*
X809997Y334331D01*
X818327D02*
X819994Y335997D01*
X823326D01*
X824992Y334331D01*
Y332664D01*
X823326Y330998D01*
X821660D01*
X823326D01*
X824992Y329332D01*
Y327666D01*
X823326Y326000D01*
X819994D01*
X818327Y327666D01*
X1043000Y429000D02*
X1033003D01*
Y433998D01*
X1034669Y435664D01*
X1038002D01*
X1039668Y433998D01*
Y429000D01*
Y432332D02*
X1043000Y435664D01*
Y438997D02*
Y442329D01*
Y440663D01*
X1033003D01*
X1034669Y438997D01*
X1043000Y453992D02*
Y447327D01*
X1036336Y453992D01*
X1034669D01*
X1033003Y452326D01*
Y448994D01*
X1034669Y447327D01*
X793000Y372000D02*
Y381997D01*
X797998D01*
X799665Y380331D01*
Y376998D01*
X797998Y375332D01*
X793000D01*
X796332D02*
X799665Y372000D01*
X802997D02*
X806329D01*
X804663D01*
Y381997D01*
X802997Y380331D01*
X811327Y372000D02*
X814660D01*
X812993D01*
Y381997D01*
X811327Y380331D01*
X1043000Y461000D02*
X1033003D01*
Y465998D01*
X1034669Y467664D01*
X1038002D01*
X1039668Y465998D01*
Y461000D01*
Y464332D02*
X1043000Y467664D01*
Y470997D02*
Y474329D01*
Y472663D01*
X1033003D01*
X1034669Y470997D01*
Y479327D02*
X1033003Y480994D01*
Y484326D01*
X1034669Y485992D01*
X1041334D01*
X1043000Y484326D01*
Y480994D01*
X1041334Y479327D01*
X1034669D01*
X769000Y372000D02*
Y381997D01*
X773998D01*
X775665Y380331D01*
Y376998D01*
X773998Y375332D01*
X769000D01*
X772332D02*
X775665Y372000D01*
X778997Y373666D02*
X780663Y372000D01*
X783995D01*
X785661Y373666D01*
Y380331D01*
X783995Y381997D01*
X780663D01*
X778997Y380331D01*
Y378665D01*
X780663Y376998D01*
X785661D01*
X529000Y740000D02*
Y749997D01*
X533998D01*
X535664Y748331D01*
Y744998D01*
X533998Y743332D01*
X529000D01*
X532332D02*
X535664Y740000D01*
X538997Y748331D02*
X540663Y749997D01*
X543995D01*
X545661Y748331D01*
Y746665D01*
X543995Y744998D01*
X545661Y743332D01*
Y741666D01*
X543995Y740000D01*
X540663D01*
X538997Y741666D01*
Y743332D01*
X540663Y744998D01*
X538997Y746665D01*
Y748331D01*
X540663Y744998D02*
X543995D01*
X790000Y246000D02*
X780003D01*
Y250998D01*
X781669Y252665D01*
X785002D01*
X786668Y250998D01*
Y246000D01*
Y249332D02*
X790000Y252665D01*
X780003Y255997D02*
Y262661D01*
X781669D01*
X788334Y255997D01*
X790000D01*
X1286000Y482000D02*
Y491997D01*
X1290998D01*
X1292664Y490331D01*
Y486998D01*
X1290998Y485332D01*
X1286000D01*
X1289332D02*
X1292664Y482000D01*
X1302661Y491997D02*
X1299329Y490331D01*
X1295997Y486998D01*
Y483666D01*
X1297663Y482000D01*
X1300995D01*
X1302661Y483666D01*
Y485332D01*
X1300995Y486998D01*
X1295997D01*
X1391000Y482000D02*
Y491997D01*
X1395999D01*
X1397665Y490331D01*
Y486998D01*
X1395999Y485332D01*
X1391000D01*
X1394332D02*
X1397665Y482000D01*
X1407661Y491997D02*
X1400997D01*
Y486998D01*
X1404329Y488665D01*
X1405995D01*
X1407661Y486998D01*
Y483666D01*
X1405995Y482000D01*
X1402663D01*
X1400997Y483666D01*
X1496000Y482000D02*
Y491997D01*
X1500998D01*
X1502665Y490331D01*
Y486998D01*
X1500998Y485332D01*
X1496000D01*
X1499332D02*
X1502665Y482000D01*
X1510995D02*
Y491997D01*
X1505997Y486998D01*
X1512661D01*
X1603000Y482000D02*
Y491997D01*
X1607998D01*
X1609664Y490331D01*
Y486998D01*
X1607998Y485332D01*
X1603000D01*
X1606332D02*
X1609664Y482000D01*
X1612997Y490331D02*
X1614663Y491997D01*
X1617995D01*
X1619661Y490331D01*
Y488665D01*
X1617995Y486998D01*
X1616329D01*
X1617995D01*
X1619661Y485332D01*
Y483666D01*
X1617995Y482000D01*
X1614663D01*
X1612997Y483666D01*
X777000Y118000D02*
X767003D01*
Y122998D01*
X768669Y124664D01*
X772002D01*
X773668Y122998D01*
Y118000D01*
Y121332D02*
X777000Y124664D01*
Y134661D02*
Y127997D01*
X770335Y134661D01*
X768669D01*
X767003Y132995D01*
Y129663D01*
X768669Y127997D01*
X752000Y119000D02*
X742003D01*
Y123998D01*
X743669Y125665D01*
X747002D01*
X748668Y123998D01*
Y119000D01*
Y122332D02*
X752000Y125665D01*
Y128997D02*
Y132329D01*
Y130663D01*
X742003D01*
X743669Y128997D01*
X1336664Y425666D02*
Y432331D01*
X1334998Y433997D01*
X1331666D01*
X1330000Y432331D01*
Y425666D01*
X1331666Y424000D01*
X1334998D01*
X1333332Y427332D02*
X1336664Y424000D01*
X1334998D02*
X1336664Y425666D01*
X1344995Y424000D02*
Y433997D01*
X1339997Y428998D01*
X1346661D01*
X1440665Y423666D02*
Y430331D01*
X1438998Y431997D01*
X1435666D01*
X1434000Y430331D01*
Y423666D01*
X1435666Y422000D01*
X1438998D01*
X1437332Y425332D02*
X1440665Y422000D01*
X1438998D02*
X1440665Y423666D01*
X1443997Y430331D02*
X1445663Y431997D01*
X1448995D01*
X1450661Y430331D01*
Y428665D01*
X1448995Y426998D01*
X1447329D01*
X1448995D01*
X1450661Y425332D01*
Y423666D01*
X1448995Y422000D01*
X1445663D01*
X1443997Y423666D01*
X1543665Y424666D02*
Y431331D01*
X1541998Y432997D01*
X1538666D01*
X1537000Y431331D01*
Y424666D01*
X1538666Y423000D01*
X1541998D01*
X1540332Y426332D02*
X1543665Y423000D01*
X1541998D02*
X1543665Y424666D01*
X1553661Y423000D02*
X1546997D01*
X1553661Y429664D01*
Y431331D01*
X1551995Y432997D01*
X1548663D01*
X1546997Y431331D01*
X1691664Y462666D02*
Y469331D01*
X1689998Y470997D01*
X1686666D01*
X1685000Y469331D01*
Y462666D01*
X1686666Y461000D01*
X1689998D01*
X1688332Y464332D02*
X1691664Y461000D01*
X1689998D02*
X1691664Y462666D01*
X1694997Y461000D02*
X1698329D01*
X1696663D01*
Y470997D01*
X1694997Y469331D01*
X1180000Y6000D02*
Y15997D01*
X1184998D01*
X1186665Y14331D01*
Y10998D01*
X1184998Y9332D01*
X1180000D01*
X1196661Y6000D02*
X1189997D01*
X1196661Y12665D01*
Y14331D01*
X1194995Y15997D01*
X1191663D01*
X1189997Y14331D01*
X1288150Y34997D02*
Y25000D01*
X1293148D01*
X1294814Y26666D01*
Y33331D01*
X1293148Y34997D01*
X1288150D01*
X1298147Y25000D02*
X1301479D01*
X1299813D01*
Y34997D01*
X1298147Y33331D01*
X1306477Y34997D02*
X1313142D01*
Y33331D01*
X1306477Y26666D01*
Y25000D01*
X1292000Y60997D02*
Y51000D01*
X1296998D01*
X1298665Y52666D01*
Y59331D01*
X1296998Y60997D01*
X1292000D01*
X1301997Y51000D02*
X1305329D01*
X1303663D01*
Y60997D01*
X1301997Y59331D01*
X1316992Y60997D02*
X1313660Y59331D01*
X1310327Y55998D01*
Y52666D01*
X1311994Y51000D01*
X1315326D01*
X1316992Y52666D01*
Y54332D01*
X1315326Y55998D01*
X1310327D01*
X155000Y509997D02*
Y500000D01*
X159998D01*
X161665Y501666D01*
Y508331D01*
X159998Y509997D01*
X155000D01*
X164997Y500000D02*
X168329D01*
X166663D01*
Y509997D01*
X164997Y508331D01*
X178326Y500000D02*
Y509997D01*
X173327Y504998D01*
X179992D01*
X647003Y619000D02*
X657000D01*
Y623998D01*
X655334Y625664D01*
X648669D01*
X647003Y623998D01*
Y619000D01*
X657000Y628997D02*
Y632329D01*
Y630663D01*
X647003D01*
X648669Y628997D01*
X657000Y637327D02*
Y640660D01*
Y638993D01*
X647003D01*
X648669Y637327D01*
X225003Y617000D02*
X235000D01*
Y621998D01*
X233334Y623665D01*
X226669D01*
X225003Y621998D01*
Y617000D01*
X235000Y626997D02*
Y630329D01*
Y628663D01*
X225003D01*
X226669Y626997D01*
Y635327D02*
X225003Y636993D01*
Y640326D01*
X226669Y641992D01*
X233334D01*
X235000Y640326D01*
Y636993D01*
X233334Y635327D01*
X226669D01*
X671003Y619000D02*
X681000D01*
Y623998D01*
X679334Y625664D01*
X672669D01*
X671003Y623998D01*
Y619000D01*
X679334Y628997D02*
X681000Y630663D01*
Y633995D01*
X679334Y635661D01*
X672669D01*
X671003Y633995D01*
Y630663D01*
X672669Y628997D01*
X674335D01*
X676002Y630663D01*
Y635661D01*
X203003Y617000D02*
X213000D01*
Y621998D01*
X211334Y623665D01*
X204669D01*
X203003Y621998D01*
Y617000D01*
X204669Y626997D02*
X203003Y628663D01*
Y631995D01*
X204669Y633661D01*
X206336D01*
X208002Y631995D01*
X209668Y633661D01*
X211334D01*
X213000Y631995D01*
Y628663D01*
X211334Y626997D01*
X209668D01*
X208002Y628663D01*
X206336Y626997D01*
X204669D01*
X208002Y628663D02*
Y631995D01*
X569000Y751997D02*
Y742000D01*
X573998D01*
X575664Y743666D01*
Y750331D01*
X573998Y751997D01*
X569000D01*
X578997D02*
X585661D01*
Y750331D01*
X578997Y743666D01*
Y742000D01*
X741003Y11000D02*
X751000D01*
Y15998D01*
X749334Y17665D01*
X742669D01*
X741003Y15998D01*
Y11000D01*
Y27661D02*
X742669Y24329D01*
X746002Y20997D01*
X749334D01*
X751000Y22663D01*
Y25995D01*
X749334Y27661D01*
X747668D01*
X746002Y25995D01*
Y20997D01*
X766003Y12000D02*
X776000D01*
Y16998D01*
X774334Y18664D01*
X767669D01*
X766003Y16998D01*
Y12000D01*
Y28661D02*
Y21997D01*
X771002D01*
X769335Y25329D01*
Y26995D01*
X771002Y28661D01*
X774334D01*
X776000Y26995D01*
Y23663D01*
X774334Y21997D01*
X1357003Y508000D02*
X1367000D01*
Y512998D01*
X1365334Y514664D01*
X1358669D01*
X1357003Y512998D01*
Y508000D01*
X1367000Y522995D02*
X1357003D01*
X1362002Y517997D01*
Y524661D01*
X1462003Y508000D02*
X1472000D01*
Y512998D01*
X1470334Y514664D01*
X1463669D01*
X1462003Y512998D01*
Y508000D01*
X1463669Y517997D02*
X1462003Y519663D01*
Y522995D01*
X1463669Y524661D01*
X1465336D01*
X1467002Y522995D01*
Y521329D01*
Y522995D01*
X1468668Y524661D01*
X1470334D01*
X1472000Y522995D01*
Y519663D01*
X1470334Y517997D01*
X1569003Y508000D02*
X1579000D01*
Y512998D01*
X1577334Y514664D01*
X1570669D01*
X1569003Y512998D01*
Y508000D01*
X1579000Y524661D02*
Y517997D01*
X1572336Y524661D01*
X1570669D01*
X1569003Y522995D01*
Y519663D01*
X1570669Y517997D01*
X1674003Y508000D02*
X1684000D01*
Y512998D01*
X1682334Y514664D01*
X1675669D01*
X1674003Y512998D01*
Y508000D01*
X1684000Y517997D02*
Y521329D01*
Y519663D01*
X1674003D01*
X1675669Y517997D01*
X1580665Y273331D02*
X1578998Y274997D01*
X1575666D01*
X1574000Y273331D01*
Y266666D01*
X1575666Y265000D01*
X1578998D01*
X1580665Y266666D01*
X1590661Y265000D02*
X1583997D01*
X1590661Y271665D01*
Y273331D01*
X1588995Y274997D01*
X1585663D01*
X1583997Y273331D01*
X1593994D02*
X1595660Y274997D01*
X1598992D01*
X1600658Y273331D01*
Y271665D01*
X1598992Y269998D01*
X1600658Y268332D01*
Y266666D01*
X1598992Y265000D01*
X1595660D01*
X1593994Y266666D01*
Y268332D01*
X1595660Y269998D01*
X1593994Y271665D01*
Y273331D01*
X1595660Y269998D02*
X1598992D01*
X1554664Y142331D02*
X1552998Y143997D01*
X1549666D01*
X1548000Y142331D01*
Y135666D01*
X1549666Y134000D01*
X1552998D01*
X1554664Y135666D01*
X1564661Y134000D02*
X1557997D01*
X1564661Y140665D01*
Y142331D01*
X1562995Y143997D01*
X1559663D01*
X1557997Y142331D01*
X1567994Y143997D02*
X1574658D01*
Y142331D01*
X1567994Y135666D01*
Y134000D01*
X1559664Y172331D02*
X1557998Y173997D01*
X1554666D01*
X1553000Y172331D01*
Y165666D01*
X1554666Y164000D01*
X1557998D01*
X1559664Y165666D01*
X1569661Y164000D02*
X1562997D01*
X1569661Y170665D01*
Y172331D01*
X1567995Y173997D01*
X1564663D01*
X1562997Y172331D01*
X1579658Y173997D02*
X1576326Y172331D01*
X1572994Y168998D01*
Y165666D01*
X1574660Y164000D01*
X1577992D01*
X1579658Y165666D01*
Y167332D01*
X1577992Y168998D01*
X1572994D01*
X1592669Y223664D02*
X1591003Y221998D01*
Y218666D01*
X1592669Y217000D01*
X1599334D01*
X1601000Y218666D01*
Y221998D01*
X1599334Y223664D01*
X1601000Y233661D02*
Y226997D01*
X1594335Y233661D01*
X1592669D01*
X1591003Y231995D01*
Y228663D01*
X1592669Y226997D01*
X1591003Y243658D02*
Y236994D01*
X1596002D01*
X1594335Y240326D01*
Y241992D01*
X1596002Y243658D01*
X1599334D01*
X1601000Y241992D01*
Y238660D01*
X1599334Y236994D01*
X1462664Y171331D02*
X1460998Y172997D01*
X1457666D01*
X1456000Y171331D01*
Y164666D01*
X1457666Y163000D01*
X1460998D01*
X1462664Y164666D01*
X1472661Y163000D02*
X1465997D01*
X1472661Y169664D01*
Y171331D01*
X1470995Y172997D01*
X1467663D01*
X1465997Y171331D01*
X1480992Y163000D02*
Y172997D01*
X1475994Y167998D01*
X1482658D01*
X1593669Y179664D02*
X1592003Y177998D01*
Y174666D01*
X1593669Y173000D01*
X1600334D01*
X1602000Y174666D01*
Y177998D01*
X1600334Y179664D01*
X1602000Y189661D02*
Y182997D01*
X1595336Y189661D01*
X1593669D01*
X1592003Y187995D01*
Y184663D01*
X1593669Y182997D01*
Y192994D02*
X1592003Y194660D01*
Y197992D01*
X1593669Y199658D01*
X1595336D01*
X1597002Y197992D01*
Y196326D01*
Y197992D01*
X1598668Y199658D01*
X1600334D01*
X1602000Y197992D01*
Y194660D01*
X1600334Y192994D01*
X820665Y30331D02*
X818998Y31997D01*
X815666D01*
X814000Y30331D01*
Y23666D01*
X815666Y22000D01*
X818998D01*
X820665Y23666D01*
X830661Y22000D02*
X823997D01*
X830661Y28665D01*
Y30331D01*
X828995Y31997D01*
X825663D01*
X823997Y30331D01*
X840658Y22000D02*
X833994D01*
X840658Y28665D01*
Y30331D01*
X838992Y31997D01*
X835660D01*
X833994Y30331D01*
X995665D02*
X993998Y31997D01*
X990666D01*
X989000Y30331D01*
Y23666D01*
X990666Y22000D01*
X993998D01*
X995665Y23666D01*
X1005661Y22000D02*
X998997D01*
X1005661Y28665D01*
Y30331D01*
X1003995Y31997D01*
X1000663D01*
X998997Y30331D01*
X1008994Y22000D02*
X1012326D01*
X1010660D01*
Y31997D01*
X1008994Y30331D01*
X310669Y281665D02*
X309003Y279998D01*
Y276666D01*
X310669Y275000D01*
X317334D01*
X319000Y276666D01*
Y279998D01*
X317334Y281665D01*
X319000Y291661D02*
Y284997D01*
X312335Y291661D01*
X310669D01*
X309003Y289995D01*
Y286663D01*
X310669Y284997D01*
Y294994D02*
X309003Y296660D01*
Y299992D01*
X310669Y301658D01*
X317334D01*
X319000Y299992D01*
Y296660D01*
X317334Y294994D01*
X310669D01*
X310669Y214664D02*
X309003Y212998D01*
Y209666D01*
X310669Y208000D01*
X317334D01*
X319000Y209666D01*
Y212998D01*
X317334Y214664D01*
X319000Y217997D02*
Y221329D01*
Y219663D01*
X309003D01*
X310669Y217997D01*
Y226327D02*
X309003Y227994D01*
Y231326D01*
X310669Y232992D01*
X312335D01*
X314002Y231326D01*
X315668Y232992D01*
X317334D01*
X319000Y231326D01*
Y227994D01*
X317334Y226327D01*
X315668D01*
X314002Y227994D01*
X312335Y226327D01*
X310669D01*
X314002Y227994D02*
Y231326D01*
X1002669Y435664D02*
X1001003Y433998D01*
Y430666D01*
X1002669Y429000D01*
X1009334D01*
X1011000Y430666D01*
Y433998D01*
X1009334Y435664D01*
X1011000Y438997D02*
Y442329D01*
Y440663D01*
X1001003D01*
X1002669Y438997D01*
X1001003Y453992D02*
X1002669Y450660D01*
X1006002Y447327D01*
X1009334D01*
X1011000Y448994D01*
Y452326D01*
X1009334Y453992D01*
X1007668D01*
X1006002Y452326D01*
Y447327D01*
X806665Y349331D02*
X804998Y350997D01*
X801666D01*
X800000Y349331D01*
Y342666D01*
X801666Y341000D01*
X804998D01*
X806665Y342666D01*
X809997Y341000D02*
X813329D01*
X811663D01*
Y350997D01*
X809997Y349331D01*
X824992Y350997D02*
X818327D01*
Y345998D01*
X821660Y347664D01*
X823326D01*
X824992Y345998D01*
Y342666D01*
X823326Y341000D01*
X819994D01*
X818327Y342666D01*
X1005665Y550331D02*
X1003998Y551997D01*
X1000666D01*
X999000Y550331D01*
Y543666D01*
X1000666Y542000D01*
X1003998D01*
X1005665Y543666D01*
X1008997Y542000D02*
X1012329D01*
X1010663D01*
Y551997D01*
X1008997Y550331D01*
X1022326Y542000D02*
Y551997D01*
X1017327Y546998D01*
X1023992D01*
X838669Y485664D02*
X837003Y483998D01*
Y480666D01*
X838669Y479000D01*
X845334D01*
X847000Y480666D01*
Y483998D01*
X845334Y485664D01*
X847000Y488997D02*
Y492329D01*
Y490663D01*
X837003D01*
X838669Y488997D01*
Y497327D02*
X837003Y498994D01*
Y502326D01*
X838669Y503992D01*
X840335D01*
X842002Y502326D01*
Y500660D01*
Y502326D01*
X843668Y503992D01*
X845334D01*
X847000Y502326D01*
Y498994D01*
X845334Y497327D01*
X552664Y550331D02*
X550998Y551997D01*
X547666D01*
X546000Y550331D01*
Y543666D01*
X547666Y542000D01*
X550998D01*
X552664Y543666D01*
X555997Y542000D02*
X559329D01*
X557663D01*
Y551997D01*
X555997Y550331D01*
X570992Y542000D02*
X564327D01*
X570992Y548665D01*
Y550331D01*
X569326Y551997D01*
X565994D01*
X564327Y550331D01*
X392331Y490336D02*
X393997Y492002D01*
Y495334D01*
X392331Y497000D01*
X385666D01*
X384000Y495334D01*
Y492002D01*
X385666Y490336D01*
X384000Y487003D02*
Y483671D01*
Y485337D01*
X393997D01*
X392331Y487003D01*
X384000Y478673D02*
Y475340D01*
Y477006D01*
X393997D01*
X392331Y478673D01*
X1031669Y634664D02*
X1030003Y632998D01*
Y629666D01*
X1031669Y628000D01*
X1038334D01*
X1040000Y629666D01*
Y632998D01*
X1038334Y634664D01*
X1040000Y637997D02*
Y641329D01*
Y639663D01*
X1030003D01*
X1031669Y637997D01*
Y646327D02*
X1030003Y647993D01*
Y651326D01*
X1031669Y652992D01*
X1038334D01*
X1040000Y651326D01*
Y647993D01*
X1038334Y646327D01*
X1031669D01*
X1032669Y569664D02*
X1031003Y567998D01*
Y564666D01*
X1032669Y563000D01*
X1039334D01*
X1041000Y564666D01*
Y567998D01*
X1039334Y569664D01*
Y572997D02*
X1041000Y574663D01*
Y577995D01*
X1039334Y579661D01*
X1032669D01*
X1031003Y577995D01*
Y574663D01*
X1032669Y572997D01*
X1034335D01*
X1036002Y574663D01*
Y579661D01*
X580669Y567664D02*
X579003Y565998D01*
Y562666D01*
X580669Y561000D01*
X587334D01*
X589000Y562666D01*
Y565998D01*
X587334Y567664D01*
X580669Y570997D02*
X579003Y572663D01*
Y575995D01*
X580669Y577661D01*
X582336D01*
X584002Y575995D01*
X585668Y577661D01*
X587334D01*
X589000Y575995D01*
Y572663D01*
X587334Y570997D01*
X585668D01*
X584002Y572663D01*
X582336Y570997D01*
X580669D01*
X584002Y572663D02*
Y575995D01*
X578669Y645665D02*
X577003Y643998D01*
Y640666D01*
X578669Y639000D01*
X585334D01*
X587000Y640666D01*
Y643998D01*
X585334Y645665D01*
X577003Y648997D02*
Y655661D01*
X578669D01*
X585334Y648997D01*
X587000D01*
X764669Y252665D02*
X763003Y250998D01*
Y247666D01*
X764669Y246000D01*
X771334D01*
X773000Y247666D01*
Y250998D01*
X771334Y252665D01*
X763003Y262661D02*
X764669Y259329D01*
X768002Y255997D01*
X771334D01*
X773000Y257663D01*
Y260995D01*
X771334Y262661D01*
X769668D01*
X768002Y260995D01*
Y255997D01*
X1101665Y115331D02*
X1099998Y116997D01*
X1096666D01*
X1095000Y115331D01*
Y108666D01*
X1096666Y107000D01*
X1099998D01*
X1101665Y108666D01*
X1111661Y116997D02*
X1104997D01*
Y111998D01*
X1108329Y113665D01*
X1109995D01*
X1111661Y111998D01*
Y108666D01*
X1109995Y107000D01*
X1106663D01*
X1104997Y108666D01*
X1039665Y112331D02*
X1037998Y113997D01*
X1034666D01*
X1033000Y112331D01*
Y105666D01*
X1034666Y104000D01*
X1037998D01*
X1039665Y105666D01*
X1047995Y104000D02*
Y113997D01*
X1042997Y108998D01*
X1049661D01*
X954669Y372664D02*
X953003Y370998D01*
Y367666D01*
X954669Y366000D01*
X961334D01*
X963000Y367666D01*
Y370998D01*
X961334Y372664D01*
X954669Y375997D02*
X953003Y377663D01*
Y380995D01*
X954669Y382661D01*
X956336D01*
X958002Y380995D01*
Y379329D01*
Y380995D01*
X959668Y382661D01*
X961334D01*
X963000Y380995D01*
Y377663D01*
X961334Y375997D01*
X953664Y121331D02*
X951998Y122997D01*
X948666D01*
X947000Y121331D01*
Y114666D01*
X948666Y113000D01*
X951998D01*
X953664Y114666D01*
X963661Y113000D02*
X956997D01*
X963661Y119664D01*
Y121331D01*
X961995Y122997D01*
X958663D01*
X956997Y121331D01*
X980669Y141664D02*
X979003Y139998D01*
Y136666D01*
X980669Y135000D01*
X987334D01*
X989000Y136666D01*
Y139998D01*
X987334Y141664D01*
X989000Y144997D02*
Y148329D01*
Y146663D01*
X979003D01*
X980669Y144997D01*
X462664Y615666D02*
Y622331D01*
X460998Y623997D01*
X457666D01*
X456000Y622331D01*
Y615666D01*
X457666Y614000D01*
X460998D01*
X459332Y617332D02*
X462664Y614000D01*
X460998D02*
X462664Y615666D01*
X472661Y623997D02*
X465997D01*
Y618998D01*
X469329Y620664D01*
X470995D01*
X472661Y618998D01*
Y615666D01*
X470995Y614000D01*
X467663D01*
X465997Y615666D01*
X916665Y618666D02*
Y625331D01*
X914998Y626997D01*
X911666D01*
X910000Y625331D01*
Y618666D01*
X911666Y617000D01*
X914998D01*
X913332Y620332D02*
X916665Y617000D01*
X914998D02*
X916665Y618666D01*
X926661Y626997D02*
X923329Y625331D01*
X919997Y621998D01*
Y618666D01*
X921663Y617000D01*
X924995D01*
X926661Y618666D01*
Y620332D01*
X924995Y621998D01*
X919997D01*
X1527667Y1187000D02*
G03*
X1520333Y1187000I-3667J0D01*
G01*
X1800050Y1177400D02*
G03*
X1807000Y1184350I0J6950D01*
G01*
X1754000Y1177350D02*
G03*
X1747050Y1170400I0J-6950D01*
G01*
X1807000Y1347650D02*
G03*
X1800050Y1354600I-6950J0D01*
G01*
X1747050Y1361600D02*
G03*
X1754000Y1354650I6950J0D01*
G01*
X1161000Y1038000D02*
G03*
X1161000Y1038000I-16000J0D01*
G01*
X1111000D02*
G03*
X1111000Y1038000I-16000J0D01*
G01*
X1061000D02*
G03*
X1061000Y1038000I-16000J0D01*
G01*
X350863Y1256110D02*
G03*
X351388Y1205253I31137J-25110D01*
G01*
X413136Y1205890D02*
G03*
X412612Y1256747I-31137J25110D01*
G01*
X349949Y1117413D02*
G03*
X234051Y1117413I-57949J-23413D01*
G01*
Y1070587D02*
G03*
X349949Y1070587I57949J23413D01*
G01*
X543413Y1160051D02*
G03*
X543413Y1275949I-23413J57949D01*
G01*
X496587D02*
G03*
X496587Y1160051I23413J-57949D01*
G01*
X840200Y1081000D02*
G03*
X879800Y1081000I19800J-15000D01*
G01*
X932200D02*
G03*
X971800Y1081000I19800J-15000D01*
G01*
X1106231Y1188500D02*
X1106254Y1188477D01*
X1041500Y1188500D02*
X1106231D01*
X1041500Y1153500D02*
X1041523Y1153477D01*
X1106254D01*
X1016500Y1194500D02*
X1131500D01*
X1016500Y1147500D02*
X1131500D01*
X1016500D02*
Y1163500D01*
Y1178500D02*
Y1194500D01*
X1131500Y1178500D02*
Y1194500D01*
Y1147500D02*
Y1163500D01*
X1504000Y1187000D02*
Y1287000D01*
X1544000Y1187000D02*
Y1287000D01*
X1504000D02*
X1544000D01*
X1504000Y1187000D02*
X1520333D01*
X1527666D02*
X1544000D01*
X1754000Y1177350D02*
X1800000D01*
X1754000Y1354650D02*
X1800000D01*
X1623000Y1336000D02*
X1717000D01*
X1747000Y1112000D02*
Y1420000D01*
X1623000Y1196000D02*
X1717000D01*
X1623000Y1112000D02*
Y1420000D01*
X1807000Y1184350D02*
Y1347650D01*
X1623000Y1420000D02*
X1747000D01*
X1623000Y1112000D02*
X1747000D01*
X1717000D02*
Y1420000D01*
X1495500Y1127000D02*
X1532500D01*
X1495500Y1157000D02*
X1532500D01*
X1020000Y1083000D02*
X1170000D01*
Y1007000D02*
Y1083000D01*
X1160000Y1007000D02*
Y1015000D01*
X1130000Y1007000D02*
Y1015000D01*
X1160000D01*
X1110000Y1007000D02*
Y1015000D01*
X1080000Y1007000D02*
Y1015000D01*
X1110000D01*
X1060000Y1007000D02*
Y1015000D01*
X1030000Y1007000D02*
Y1015000D01*
X1060000D01*
X1120000Y1007000D02*
Y1083000D01*
X1070000Y1007000D02*
Y1083000D01*
X1020000Y1007000D02*
Y1083000D01*
Y1007000D02*
X1170000D01*
X1285400Y1048500D02*
Y1067814D01*
X1205000Y1041000D02*
Y1047000D01*
X1221000Y1041000D02*
Y1047000D01*
X1232750Y1022186D02*
Y1041500D01*
X136000Y1059700D02*
Y1129800D01*
X196000Y1059700D02*
Y1129800D01*
X241000Y1284000D02*
X252000D01*
Y1180000D02*
Y1284000D01*
X240100Y1180000D02*
X252000D01*
X329500Y1178500D02*
Y1283500D01*
X434500Y1178500D02*
Y1283500D01*
X410300Y1178500D02*
X434500D01*
X410300Y1283500D02*
X434500D01*
X329500Y1178500D02*
X353700D01*
X329500Y1283500D02*
X353700D01*
X604650Y1237350D02*
X617150D01*
X359500Y1161500D02*
X359600Y1117050D01*
X359500Y1026500D02*
Y1070900D01*
X224500Y1119000D02*
Y1133350D01*
Y1056100D02*
Y1069000D01*
X252650Y1161500D02*
X359500D01*
X254100Y1026500D02*
X359500D01*
X224500Y1056100D02*
X254100Y1026500D01*
X224500Y1133350D02*
X252650Y1161500D01*
X445000Y1060200D02*
Y1130300D01*
X385000Y1060200D02*
Y1130300D01*
X184300Y1453000D02*
Y1493000D01*
X209300Y1453000D02*
Y1493000D01*
X139200Y1453000D02*
Y1493000D01*
Y1453000D02*
X209200D01*
X139200Y1493000D02*
X209200D01*
X543050Y1150400D02*
X587500Y1150500D01*
X452500D02*
X496900D01*
X545000Y1285500D02*
X559350D01*
X482100D02*
X495000D01*
X587500Y1150500D02*
Y1257350D01*
X452500Y1150500D02*
Y1255900D01*
X482100Y1285500D01*
X559350D02*
X587500Y1257350D01*
X556350Y1724850D02*
Y1737350D01*
X957000Y1689000D02*
X973000Y1705000D01*
X957000Y1655000D02*
X973000Y1639000D01*
X1023000D01*
X973000Y1705000D02*
X1023000D01*
Y1684000D02*
Y1705000D01*
Y1639000D02*
Y1660000D01*
X957000Y1655000D02*
Y1660000D01*
Y1684000D02*
Y1689000D01*
Y1613000D02*
X973000Y1629000D01*
X957000Y1579000D02*
X973000Y1563000D01*
X1023000D01*
X973000Y1629000D02*
X1023000D01*
Y1608000D02*
Y1629000D01*
Y1563000D02*
Y1584000D01*
X957000Y1579000D02*
Y1584000D01*
Y1608000D02*
Y1613000D01*
X505000D02*
X521000Y1629000D01*
X505000Y1579000D02*
X521000Y1563000D01*
X571000D01*
X521000Y1629000D02*
X571000D01*
Y1608000D02*
Y1629000D01*
Y1563000D02*
Y1584000D01*
X505000Y1579000D02*
Y1584000D01*
Y1608000D02*
Y1613000D01*
Y1689000D02*
X521000Y1705000D01*
X505000Y1655000D02*
X521000Y1639000D01*
X571000D01*
X521000Y1705000D02*
X571000D01*
Y1684000D02*
Y1705000D01*
Y1639000D02*
Y1660000D01*
X505000Y1655000D02*
Y1660000D01*
Y1684000D02*
Y1689000D01*
X853000Y1492000D02*
Y1498000D01*
X869000Y1492000D02*
Y1498000D01*
X400000Y1488000D02*
Y1494000D01*
X416000Y1488000D02*
Y1494000D01*
X669650Y1647350D02*
X682150D01*
X200650D02*
X213150D01*
X646850Y1686650D02*
X659350D01*
X222850D02*
X235350D01*
X939000Y1235000D02*
X1025000D01*
X939000Y1321000D02*
X1025000D01*
Y1235000D02*
Y1321000D01*
X939000Y1235000D02*
Y1321000D01*
X942000Y1138500D02*
Y1175500D01*
X972000Y1138500D02*
Y1175500D01*
X831000Y1206000D02*
Y1316000D01*
X807000D02*
X831000D01*
X807000Y1206000D02*
X831000D01*
X807000D02*
Y1316000D01*
X1264000Y1746000D02*
X1364000D01*
X1264000Y1546000D02*
X1364000D01*
X1264000D02*
Y1746000D01*
X1364000Y1546000D02*
Y1746000D01*
X1369333D02*
X1469333D01*
X1369333Y1546000D02*
X1469333D01*
X1369333D02*
Y1746000D01*
X1469333Y1546000D02*
Y1746000D01*
X1474667D02*
X1574667D01*
X1474667Y1546000D02*
X1574667D01*
X1474667D02*
Y1746000D01*
X1574667Y1546000D02*
Y1746000D01*
X1580000D02*
X1680000D01*
X1580000Y1546000D02*
X1680000D01*
X1580000D02*
Y1746000D01*
X1680000Y1546000D02*
Y1746000D01*
X1273500Y1514250D02*
Y1531750D01*
Y1514250D02*
X1278000Y1509750D01*
X1273500Y1531750D02*
X1278000Y1536250D01*
X1327500Y1509750D02*
X1351500D01*
X1327500Y1536250D02*
X1351500D01*
Y1509750D02*
Y1536250D01*
X1278000Y1509750D02*
X1300500D01*
X1278000Y1536250D02*
X1300500D01*
X1378500Y1514250D02*
Y1531750D01*
Y1514250D02*
X1383000Y1509750D01*
X1378500Y1531750D02*
X1383000Y1536250D01*
X1432500Y1509750D02*
X1456500D01*
X1432500Y1536250D02*
X1456500D01*
Y1509750D02*
Y1536250D01*
X1383000Y1509750D02*
X1405500D01*
X1383000Y1536250D02*
X1405500D01*
X1484500Y1514250D02*
Y1531750D01*
Y1514250D02*
X1489000Y1509750D01*
X1484500Y1531750D02*
X1489000Y1536250D01*
X1538500Y1509750D02*
X1562500D01*
X1538500Y1536250D02*
X1562500D01*
Y1509750D02*
Y1536250D01*
X1489000Y1509750D02*
X1511500D01*
X1489000Y1536250D02*
X1511500D01*
X1589500Y1514250D02*
Y1531750D01*
Y1514250D02*
X1594000Y1509750D01*
X1589500Y1531750D02*
X1594000Y1536250D01*
X1643500Y1509750D02*
X1667500D01*
X1643500Y1536250D02*
X1667500D01*
Y1509750D02*
Y1536250D01*
X1594000Y1509750D02*
X1616500D01*
X1594000Y1536250D02*
X1616500D01*
X764650Y1037350D02*
X777150D01*
X1351000Y1486000D02*
X1360000D01*
Y1460000D02*
Y1486000D01*
X1314000D02*
X1323000D01*
X1314000Y1460000D02*
Y1486000D01*
X1456000D02*
X1465000D01*
Y1460000D02*
Y1486000D01*
X1419000D02*
X1428000D01*
X1419000Y1460000D02*
Y1486000D01*
X1561000D02*
X1570000D01*
Y1460000D02*
Y1486000D01*
X1524000D02*
X1533000D01*
X1524000Y1460000D02*
Y1486000D01*
X1667000D02*
X1676000D01*
Y1460000D02*
Y1486000D01*
X1630000D02*
X1639000D01*
X1630000Y1460000D02*
Y1486000D01*
X739650Y1037350D02*
X752150D01*
X649500Y1969000D02*
X682500D01*
X649500D02*
Y1999000D01*
X682500Y1969000D02*
Y1999000D01*
X566000D02*
X766000D01*
X566000Y1875750D02*
Y1999000D01*
X766000Y1875750D02*
Y1999000D01*
X566000Y1875750D02*
X766000D01*
X202500Y1969000D02*
X235500D01*
X202500D02*
Y1999000D01*
X235500Y1969000D02*
Y1999000D01*
X119000D02*
X319000D01*
X119000Y1875750D02*
Y1999000D01*
X319000Y1875750D02*
Y1999000D01*
X119000Y1875750D02*
X319000D01*
X891500Y1969000D02*
X924500D01*
X891500D02*
Y1999000D01*
X924500Y1969000D02*
Y1999000D01*
X808000D02*
X1008000D01*
X808000Y1875750D02*
Y1999000D01*
X1008000Y1875750D02*
Y1999000D01*
X808000Y1875750D02*
X1008000D01*
X442500Y1969000D02*
X475500D01*
X442500D02*
Y1999000D01*
X475500Y1969000D02*
Y1999000D01*
X359000D02*
X559000D01*
X359000Y1875750D02*
Y1999000D01*
X559000Y1875750D02*
Y1999000D01*
X359000Y1875750D02*
X559000D01*
X1450500Y1969000D02*
X1483500D01*
X1450500D02*
Y1999000D01*
X1483500Y1969000D02*
Y1999000D01*
X1367000D02*
X1567000D01*
X1367000Y1875750D02*
Y1999000D01*
X1567000Y1875750D02*
Y1999000D01*
X1367000Y1875750D02*
X1567000D01*
X34000Y1377500D02*
Y1410500D01*
X4000Y1377500D02*
X34000D01*
X4000Y1410500D02*
X34000D01*
X4000Y1344000D02*
Y1444000D01*
Y1344000D02*
X127250D01*
X4000Y1444000D02*
X127250D01*
Y1344000D02*
Y1444000D01*
X840200Y1081000D02*
X879800D01*
X932200D02*
X971800D01*
X1533003Y1295000D02*
X1541334D01*
X1543000Y1296666D01*
Y1299998D01*
X1541334Y1301664D01*
X1533003D01*
Y1304997D02*
Y1311661D01*
X1534669D01*
X1541334Y1304997D01*
X1543000D01*
X808000Y1071997D02*
Y1063666D01*
X809666Y1062000D01*
X812998D01*
X814665Y1063666D01*
Y1071997D01*
X824661D02*
X821329Y1070331D01*
X817997Y1066998D01*
Y1063666D01*
X819663Y1062000D01*
X822995D01*
X824661Y1063666D01*
Y1065332D01*
X822995Y1066998D01*
X817997D01*
X904000Y1067997D02*
Y1059666D01*
X905666Y1058000D01*
X908998D01*
X910665Y1059666D01*
Y1067997D01*
X920661D02*
X913997D01*
Y1062998D01*
X917329Y1064665D01*
X918995D01*
X920661Y1062998D01*
Y1059666D01*
X918995Y1058000D01*
X915663D01*
X913997Y1059666D01*
X724000Y1517997D02*
Y1509666D01*
X725666Y1508000D01*
X728998D01*
X730665Y1509666D01*
Y1517997D01*
X733997Y1516331D02*
X735663Y1517997D01*
X738995D01*
X740661Y1516331D01*
Y1514664D01*
X738995Y1512998D01*
X737329D01*
X738995D01*
X740661Y1511332D01*
Y1509666D01*
X738995Y1508000D01*
X735663D01*
X733997Y1509666D01*
X231000Y1554997D02*
Y1546666D01*
X232666Y1545000D01*
X235998D01*
X237665Y1546666D01*
Y1554997D01*
X247661Y1545000D02*
X240997D01*
X247661Y1551664D01*
Y1553331D01*
X245995Y1554997D01*
X242663D01*
X240997Y1553331D01*
X1051000Y1344997D02*
Y1336666D01*
X1052666Y1335000D01*
X1055998D01*
X1057664Y1336666D01*
Y1344997D01*
X1060997Y1335000D02*
X1064329D01*
X1062663D01*
Y1344997D01*
X1060997Y1343331D01*
X809000Y1090000D02*
Y1099997D01*
X813998D01*
X815665Y1098331D01*
Y1094998D01*
X813998Y1093332D01*
X809000D01*
X812332D02*
X815665Y1090000D01*
X818997Y1098331D02*
X820663Y1099997D01*
X823995D01*
X825661Y1098331D01*
Y1096665D01*
X823995Y1094998D01*
X822329D01*
X823995D01*
X825661Y1093332D01*
Y1091666D01*
X823995Y1090000D01*
X820663D01*
X818997Y1091666D01*
X828994Y1098331D02*
X830660Y1099997D01*
X833992D01*
X835658Y1098331D01*
Y1091666D01*
X833992Y1090000D01*
X830660D01*
X828994Y1091666D01*
Y1098331D01*
X892000Y1024000D02*
Y1033997D01*
X896998D01*
X898664Y1032331D01*
Y1028998D01*
X896998Y1027332D01*
X892000D01*
X895332D02*
X898664Y1024000D01*
X908661D02*
X901997D01*
X908661Y1030665D01*
Y1032331D01*
X906995Y1033997D01*
X903663D01*
X901997Y1032331D01*
X911993Y1025666D02*
X913660Y1024000D01*
X916992D01*
X918658Y1025666D01*
Y1032331D01*
X916992Y1033997D01*
X913660D01*
X911993Y1032331D01*
Y1030665D01*
X913660Y1028998D01*
X918658D01*
X1200000Y1073000D02*
Y1082997D01*
X1204998D01*
X1206665Y1081331D01*
Y1077998D01*
X1204998Y1076332D01*
X1200000D01*
X1203332D02*
X1206665Y1073000D01*
X1216661D02*
X1209997D01*
X1216661Y1079665D01*
Y1081331D01*
X1214995Y1082997D01*
X1211663D01*
X1209997Y1081331D01*
X1219994D02*
X1221660Y1082997D01*
X1224992D01*
X1226658Y1081331D01*
Y1079665D01*
X1224992Y1077998D01*
X1226658Y1076332D01*
Y1074666D01*
X1224992Y1073000D01*
X1221660D01*
X1219994Y1074666D01*
Y1076332D01*
X1221660Y1077998D01*
X1219994Y1079665D01*
Y1081331D01*
X1221660Y1077998D02*
X1224992D01*
X650000Y1713000D02*
Y1722997D01*
X654998D01*
X656665Y1721331D01*
Y1717998D01*
X654998Y1716332D01*
X650000D01*
X653332D02*
X656665Y1713000D01*
X666661D02*
X659997D01*
X666661Y1719664D01*
Y1721331D01*
X664995Y1722997D01*
X661663D01*
X659997Y1721331D01*
X676658Y1722997D02*
X673326Y1721331D01*
X669994Y1717998D01*
Y1714666D01*
X671660Y1713000D01*
X674992D01*
X676658Y1714666D01*
Y1716332D01*
X674992Y1717998D01*
X669994D01*
X205000Y1713000D02*
Y1722997D01*
X209998D01*
X211665Y1721331D01*
Y1717998D01*
X209998Y1716332D01*
X205000D01*
X208332D02*
X211665Y1713000D01*
X221661D02*
X214997D01*
X221661Y1719664D01*
Y1721331D01*
X219995Y1722997D01*
X216663D01*
X214997Y1721331D01*
X231658Y1722997D02*
X224994D01*
Y1717998D01*
X228326Y1719664D01*
X229992D01*
X231658Y1717998D01*
Y1714666D01*
X229992Y1713000D01*
X226660D01*
X224994Y1714666D01*
X950000Y1409000D02*
Y1418997D01*
X954998D01*
X956665Y1417331D01*
Y1413998D01*
X954998Y1412332D01*
X950000D01*
X953332D02*
X956665Y1409000D01*
X966661D02*
X959997D01*
X966661Y1415665D01*
Y1417331D01*
X964995Y1418997D01*
X961663D01*
X959997Y1417331D01*
X974992Y1409000D02*
Y1418997D01*
X969994Y1413998D01*
X976658D01*
X857000Y1309000D02*
X847003D01*
Y1313998D01*
X848669Y1315665D01*
X852002D01*
X853668Y1313998D01*
Y1309000D01*
Y1312332D02*
X857000Y1315665D01*
Y1325661D02*
Y1318997D01*
X850335Y1325661D01*
X848669D01*
X847003Y1323995D01*
Y1320663D01*
X848669Y1318997D01*
Y1328994D02*
X847003Y1330660D01*
Y1333992D01*
X848669Y1335658D01*
X850335D01*
X852002Y1333992D01*
Y1332326D01*
Y1333992D01*
X853668Y1335658D01*
X855334D01*
X857000Y1333992D01*
Y1330660D01*
X855334Y1328994D01*
X1028000Y1441000D02*
X1018003D01*
Y1445998D01*
X1019669Y1447664D01*
X1023002D01*
X1024668Y1445998D01*
Y1441000D01*
Y1444332D02*
X1028000Y1447664D01*
Y1457661D02*
Y1450997D01*
X1021336Y1457661D01*
X1019669D01*
X1018003Y1455995D01*
Y1452663D01*
X1019669Y1450997D01*
X1028000Y1467658D02*
Y1460994D01*
X1021336Y1467658D01*
X1019669D01*
X1018003Y1465992D01*
Y1462660D01*
X1019669Y1460994D01*
X800000Y1358000D02*
Y1367997D01*
X804998D01*
X806665Y1366331D01*
Y1362998D01*
X804998Y1361332D01*
X800000D01*
X803332D02*
X806665Y1358000D01*
X816661D02*
X809997D01*
X816661Y1364664D01*
Y1366331D01*
X814995Y1367997D01*
X811663D01*
X809997Y1366331D01*
X819994Y1358000D02*
X823326D01*
X821660D01*
Y1367997D01*
X819994Y1366331D01*
X1112000Y1219000D02*
Y1228997D01*
X1116998D01*
X1118664Y1227331D01*
Y1223998D01*
X1116998Y1222332D01*
X1112000D01*
X1115332D02*
X1118664Y1219000D01*
X1128661D02*
X1121997D01*
X1128661Y1225665D01*
Y1227331D01*
X1126995Y1228997D01*
X1123663D01*
X1121997Y1227331D01*
X1131994D02*
X1133660Y1228997D01*
X1136992D01*
X1138658Y1227331D01*
Y1220666D01*
X1136992Y1219000D01*
X1133660D01*
X1131994Y1220666D01*
Y1227331D01*
X1112000Y1265000D02*
Y1274997D01*
X1116998D01*
X1118664Y1273331D01*
Y1269998D01*
X1116998Y1268332D01*
X1112000D01*
X1115332D02*
X1118664Y1265000D01*
X1121997D02*
X1125329D01*
X1123663D01*
Y1274997D01*
X1121997Y1273331D01*
X1130327Y1266666D02*
X1131994Y1265000D01*
X1135326D01*
X1136992Y1266666D01*
Y1273331D01*
X1135326Y1274997D01*
X1131994D01*
X1130327Y1273331D01*
Y1271665D01*
X1131994Y1269998D01*
X1136992D01*
X1130000Y1234000D02*
Y1243997D01*
X1134998D01*
X1136665Y1242331D01*
Y1238998D01*
X1134998Y1237332D01*
X1130000D01*
X1133332D02*
X1136665Y1234000D01*
X1139997D02*
X1143329D01*
X1141663D01*
Y1243997D01*
X1139997Y1242331D01*
X1148327D02*
X1149994Y1243997D01*
X1153326D01*
X1154992Y1242331D01*
Y1240665D01*
X1153326Y1238998D01*
X1154992Y1237332D01*
Y1235666D01*
X1153326Y1234000D01*
X1149994D01*
X1148327Y1235666D01*
Y1237332D01*
X1149994Y1238998D01*
X1148327Y1240665D01*
Y1242331D01*
X1149994Y1238998D02*
X1153326D01*
X1130000Y1249000D02*
Y1258997D01*
X1134998D01*
X1136665Y1257331D01*
Y1253998D01*
X1134998Y1252332D01*
X1130000D01*
X1133332D02*
X1136665Y1249000D01*
X1139997D02*
X1143329D01*
X1141663D01*
Y1258997D01*
X1139997Y1257331D01*
X1148327Y1258997D02*
X1154992D01*
Y1257331D01*
X1148327Y1250666D01*
Y1249000D01*
X1059000Y1399000D02*
X1049003D01*
Y1403998D01*
X1050669Y1405665D01*
X1054002D01*
X1055668Y1403998D01*
Y1399000D01*
Y1402332D02*
X1059000Y1405665D01*
Y1408997D02*
Y1412329D01*
Y1410663D01*
X1049003D01*
X1050669Y1408997D01*
X1049003Y1423992D02*
X1050669Y1420660D01*
X1054002Y1417327D01*
X1057334D01*
X1059000Y1418994D01*
Y1422326D01*
X1057334Y1423992D01*
X1055668D01*
X1054002Y1422326D01*
Y1417327D01*
X800000Y1389000D02*
Y1398997D01*
X804998D01*
X806665Y1397331D01*
Y1393998D01*
X804998Y1392332D01*
X800000D01*
X803332D02*
X806665Y1389000D01*
X809997D02*
X813329D01*
X811663D01*
Y1398997D01*
X809997Y1397331D01*
X824992Y1398997D02*
X818327D01*
Y1393998D01*
X821660Y1395665D01*
X823326D01*
X824992Y1393998D01*
Y1390666D01*
X823326Y1389000D01*
X819994D01*
X818327Y1390666D01*
X996000Y1431000D02*
X986003D01*
Y1435998D01*
X987669Y1437664D01*
X991002D01*
X992668Y1435998D01*
Y1431000D01*
Y1434332D02*
X996000Y1437664D01*
Y1440997D02*
Y1444329D01*
Y1442663D01*
X986003D01*
X987669Y1440997D01*
X996000Y1454326D02*
X986003D01*
X991002Y1449327D01*
Y1455992D01*
X800000Y1328000D02*
Y1337997D01*
X804998D01*
X806665Y1336331D01*
Y1332998D01*
X804998Y1331332D01*
X800000D01*
X803332D02*
X806665Y1328000D01*
X809997D02*
X813329D01*
X811663D01*
Y1337997D01*
X809997Y1336331D01*
X818327D02*
X819994Y1337997D01*
X823326D01*
X824992Y1336331D01*
Y1334664D01*
X823326Y1332998D01*
X821660D01*
X823326D01*
X824992Y1331332D01*
Y1329666D01*
X823326Y1328000D01*
X819994D01*
X818327Y1329666D01*
X1043000Y1431000D02*
X1033003D01*
Y1435998D01*
X1034669Y1437664D01*
X1038002D01*
X1039668Y1435998D01*
Y1431000D01*
Y1434332D02*
X1043000Y1437664D01*
Y1440997D02*
Y1444329D01*
Y1442663D01*
X1033003D01*
X1034669Y1440997D01*
X1043000Y1455992D02*
Y1449327D01*
X1036336Y1455992D01*
X1034669D01*
X1033003Y1454326D01*
Y1450994D01*
X1034669Y1449327D01*
X793000Y1374000D02*
Y1383997D01*
X797998D01*
X799665Y1382331D01*
Y1378998D01*
X797998Y1377332D01*
X793000D01*
X796332D02*
X799665Y1374000D01*
X802997D02*
X806329D01*
X804663D01*
Y1383997D01*
X802997Y1382331D01*
X811327Y1374000D02*
X814660D01*
X812993D01*
Y1383997D01*
X811327Y1382331D01*
X1043000Y1463000D02*
X1033003D01*
Y1467998D01*
X1034669Y1469664D01*
X1038002D01*
X1039668Y1467998D01*
Y1463000D01*
Y1466332D02*
X1043000Y1469664D01*
Y1472997D02*
Y1476329D01*
Y1474663D01*
X1033003D01*
X1034669Y1472997D01*
Y1481327D02*
X1033003Y1482994D01*
Y1486326D01*
X1034669Y1487992D01*
X1041334D01*
X1043000Y1486326D01*
Y1482994D01*
X1041334Y1481327D01*
X1034669D01*
X769000Y1374000D02*
Y1383997D01*
X773998D01*
X775665Y1382331D01*
Y1378998D01*
X773998Y1377332D01*
X769000D01*
X772332D02*
X775665Y1374000D01*
X778997Y1375666D02*
X780663Y1374000D01*
X783995D01*
X785661Y1375666D01*
Y1382331D01*
X783995Y1383997D01*
X780663D01*
X778997Y1382331D01*
Y1380665D01*
X780663Y1378998D01*
X785661D01*
X529000Y1742000D02*
Y1751997D01*
X533998D01*
X535664Y1750331D01*
Y1746998D01*
X533998Y1745332D01*
X529000D01*
X532332D02*
X535664Y1742000D01*
X538997Y1750331D02*
X540663Y1751997D01*
X543995D01*
X545661Y1750331D01*
Y1748665D01*
X543995Y1746998D01*
X545661Y1745332D01*
Y1743666D01*
X543995Y1742000D01*
X540663D01*
X538997Y1743666D01*
Y1745332D01*
X540663Y1746998D01*
X538997Y1748665D01*
Y1750331D01*
X540663Y1746998D02*
X543995D01*
X790000Y1248000D02*
X780003D01*
Y1252998D01*
X781669Y1254665D01*
X785002D01*
X786668Y1252998D01*
Y1248000D01*
Y1251332D02*
X790000Y1254665D01*
X780003Y1257997D02*
Y1264661D01*
X781669D01*
X788334Y1257997D01*
X790000D01*
X1286000Y1484000D02*
Y1493997D01*
X1290998D01*
X1292664Y1492331D01*
Y1488998D01*
X1290998Y1487332D01*
X1286000D01*
X1289332D02*
X1292664Y1484000D01*
X1302661Y1493997D02*
X1299329Y1492331D01*
X1295997Y1488998D01*
Y1485666D01*
X1297663Y1484000D01*
X1300995D01*
X1302661Y1485666D01*
Y1487332D01*
X1300995Y1488998D01*
X1295997D01*
X1391000Y1484000D02*
Y1493997D01*
X1395999D01*
X1397665Y1492331D01*
Y1488998D01*
X1395999Y1487332D01*
X1391000D01*
X1394332D02*
X1397665Y1484000D01*
X1407661Y1493997D02*
X1400997D01*
Y1488998D01*
X1404329Y1490665D01*
X1405995D01*
X1407661Y1488998D01*
Y1485666D01*
X1405995Y1484000D01*
X1402663D01*
X1400997Y1485666D01*
X1496000Y1484000D02*
Y1493997D01*
X1500998D01*
X1502665Y1492331D01*
Y1488998D01*
X1500998Y1487332D01*
X1496000D01*
X1499332D02*
X1502665Y1484000D01*
X1510995D02*
Y1493997D01*
X1505997Y1488998D01*
X1512661D01*
X1603000Y1484000D02*
Y1493997D01*
X1607998D01*
X1609664Y1492331D01*
Y1488998D01*
X1607998Y1487332D01*
X1603000D01*
X1606332D02*
X1609664Y1484000D01*
X1612997Y1492331D02*
X1614663Y1493997D01*
X1617995D01*
X1619661Y1492331D01*
Y1490665D01*
X1617995Y1488998D01*
X1616329D01*
X1617995D01*
X1619661Y1487332D01*
Y1485666D01*
X1617995Y1484000D01*
X1614663D01*
X1612997Y1485666D01*
X777000Y1120000D02*
X767003D01*
Y1124998D01*
X768669Y1126665D01*
X772002D01*
X773668Y1124998D01*
Y1120000D01*
Y1123332D02*
X777000Y1126665D01*
Y1136661D02*
Y1129997D01*
X770335Y1136661D01*
X768669D01*
X767003Y1134995D01*
Y1131663D01*
X768669Y1129997D01*
X752000Y1121000D02*
X742003D01*
Y1125998D01*
X743669Y1127664D01*
X747002D01*
X748668Y1125998D01*
Y1121000D01*
Y1124332D02*
X752000Y1127664D01*
Y1130997D02*
Y1134329D01*
Y1132663D01*
X742003D01*
X743669Y1130997D01*
X1336664Y1427666D02*
Y1434331D01*
X1334998Y1435997D01*
X1331666D01*
X1330000Y1434331D01*
Y1427666D01*
X1331666Y1426000D01*
X1334998D01*
X1333332Y1429332D02*
X1336664Y1426000D01*
X1334998D02*
X1336664Y1427666D01*
X1344995Y1426000D02*
Y1435997D01*
X1339997Y1430998D01*
X1346661D01*
X1440665Y1425666D02*
Y1432331D01*
X1438998Y1433997D01*
X1435666D01*
X1434000Y1432331D01*
Y1425666D01*
X1435666Y1424000D01*
X1438998D01*
X1437332Y1427332D02*
X1440665Y1424000D01*
X1438998D02*
X1440665Y1425666D01*
X1443997Y1432331D02*
X1445663Y1433997D01*
X1448995D01*
X1450661Y1432331D01*
Y1430665D01*
X1448995Y1428998D01*
X1447329D01*
X1448995D01*
X1450661Y1427332D01*
Y1425666D01*
X1448995Y1424000D01*
X1445663D01*
X1443997Y1425666D01*
X1543665Y1426666D02*
Y1433331D01*
X1541998Y1434997D01*
X1538666D01*
X1537000Y1433331D01*
Y1426666D01*
X1538666Y1425000D01*
X1541998D01*
X1540332Y1428332D02*
X1543665Y1425000D01*
X1541998D02*
X1543665Y1426666D01*
X1553661Y1425000D02*
X1546997D01*
X1553661Y1431664D01*
Y1433331D01*
X1551995Y1434997D01*
X1548663D01*
X1546997Y1433331D01*
X1691664Y1464666D02*
Y1471331D01*
X1689998Y1472997D01*
X1686666D01*
X1685000Y1471331D01*
Y1464666D01*
X1686666Y1463000D01*
X1689998D01*
X1688332Y1466332D02*
X1691664Y1463000D01*
X1689998D02*
X1691664Y1464666D01*
X1694997Y1463000D02*
X1698329D01*
X1696663D01*
Y1472997D01*
X1694997Y1471331D01*
X1180000Y1008000D02*
Y1017997D01*
X1184998D01*
X1186665Y1016331D01*
Y1012998D01*
X1184998Y1011332D01*
X1180000D01*
X1196661Y1008000D02*
X1189997D01*
X1196661Y1014665D01*
Y1016331D01*
X1194995Y1017997D01*
X1191663D01*
X1189997Y1016331D01*
X1288150Y1036997D02*
Y1027000D01*
X1293148D01*
X1294814Y1028666D01*
Y1035331D01*
X1293148Y1036997D01*
X1288150D01*
X1298147Y1027000D02*
X1301479D01*
X1299813D01*
Y1036997D01*
X1298147Y1035331D01*
X1306477Y1036997D02*
X1313142D01*
Y1035331D01*
X1306477Y1028666D01*
Y1027000D01*
X1292000Y1062997D02*
Y1053000D01*
X1296998D01*
X1298665Y1054666D01*
Y1061331D01*
X1296998Y1062997D01*
X1292000D01*
X1301997Y1053000D02*
X1305329D01*
X1303663D01*
Y1062997D01*
X1301997Y1061331D01*
X1316992Y1062997D02*
X1313660Y1061331D01*
X1310327Y1057998D01*
Y1054666D01*
X1311994Y1053000D01*
X1315326D01*
X1316992Y1054666D01*
Y1056332D01*
X1315326Y1057998D01*
X1310327D01*
X155000Y1511997D02*
Y1502000D01*
X159998D01*
X161665Y1503666D01*
Y1510331D01*
X159998Y1511997D01*
X155000D01*
X164997Y1502000D02*
X168329D01*
X166663D01*
Y1511997D01*
X164997Y1510331D01*
X178326Y1502000D02*
Y1511997D01*
X173327Y1506998D01*
X179992D01*
X647003Y1621000D02*
X657000D01*
Y1625998D01*
X655334Y1627664D01*
X648669D01*
X647003Y1625998D01*
Y1621000D01*
X657000Y1630997D02*
Y1634329D01*
Y1632663D01*
X647003D01*
X648669Y1630997D01*
X657000Y1639327D02*
Y1642660D01*
Y1640993D01*
X647003D01*
X648669Y1639327D01*
X225003Y1619000D02*
X235000D01*
Y1623998D01*
X233334Y1625665D01*
X226669D01*
X225003Y1623998D01*
Y1619000D01*
X235000Y1628997D02*
Y1632329D01*
Y1630663D01*
X225003D01*
X226669Y1628997D01*
Y1637327D02*
X225003Y1638994D01*
Y1642326D01*
X226669Y1643992D01*
X233334D01*
X235000Y1642326D01*
Y1638994D01*
X233334Y1637327D01*
X226669D01*
X671003Y1621000D02*
X681000D01*
Y1625998D01*
X679334Y1627664D01*
X672669D01*
X671003Y1625998D01*
Y1621000D01*
X679334Y1630997D02*
X681000Y1632663D01*
Y1635995D01*
X679334Y1637661D01*
X672669D01*
X671003Y1635995D01*
Y1632663D01*
X672669Y1630997D01*
X674335D01*
X676002Y1632663D01*
Y1637661D01*
X203003Y1619000D02*
X213000D01*
Y1623998D01*
X211334Y1625665D01*
X204669D01*
X203003Y1623998D01*
Y1619000D01*
X204669Y1628997D02*
X203003Y1630663D01*
Y1633995D01*
X204669Y1635661D01*
X206336D01*
X208002Y1633995D01*
X209668Y1635661D01*
X211334D01*
X213000Y1633995D01*
Y1630663D01*
X211334Y1628997D01*
X209668D01*
X208002Y1630663D01*
X206336Y1628997D01*
X204669D01*
X208002Y1630663D02*
Y1633995D01*
X569000Y1753997D02*
Y1744000D01*
X573998D01*
X575664Y1745666D01*
Y1752331D01*
X573998Y1753997D01*
X569000D01*
X578997D02*
X585661D01*
Y1752331D01*
X578997Y1745666D01*
Y1744000D01*
X741003Y1013000D02*
X751000D01*
Y1017998D01*
X749334Y1019665D01*
X742669D01*
X741003Y1017998D01*
Y1013000D01*
Y1029661D02*
X742669Y1026329D01*
X746002Y1022997D01*
X749334D01*
X751000Y1024663D01*
Y1027995D01*
X749334Y1029661D01*
X747668D01*
X746002Y1027995D01*
Y1022997D01*
X766003Y1014000D02*
X776000D01*
Y1018998D01*
X774334Y1020665D01*
X767669D01*
X766003Y1018998D01*
Y1014000D01*
Y1030661D02*
Y1023997D01*
X771002D01*
X769335Y1027329D01*
Y1028995D01*
X771002Y1030661D01*
X774334D01*
X776000Y1028995D01*
Y1025663D01*
X774334Y1023997D01*
X1357003Y1510000D02*
X1367000D01*
Y1514998D01*
X1365334Y1516664D01*
X1358669D01*
X1357003Y1514998D01*
Y1510000D01*
X1367000Y1524995D02*
X1357003D01*
X1362002Y1519997D01*
Y1526661D01*
X1462003Y1510000D02*
X1472000D01*
Y1514998D01*
X1470334Y1516664D01*
X1463669D01*
X1462003Y1514998D01*
Y1510000D01*
X1463669Y1519997D02*
X1462003Y1521663D01*
Y1524995D01*
X1463669Y1526661D01*
X1465336D01*
X1467002Y1524995D01*
Y1523329D01*
Y1524995D01*
X1468668Y1526661D01*
X1470334D01*
X1472000Y1524995D01*
Y1521663D01*
X1470334Y1519997D01*
X1569003Y1510000D02*
X1579000D01*
Y1514998D01*
X1577334Y1516664D01*
X1570669D01*
X1569003Y1514998D01*
Y1510000D01*
X1579000Y1526661D02*
Y1519997D01*
X1572336Y1526661D01*
X1570669D01*
X1569003Y1524995D01*
Y1521663D01*
X1570669Y1519997D01*
X1674003Y1510000D02*
X1684000D01*
Y1514998D01*
X1682334Y1516664D01*
X1675669D01*
X1674003Y1514998D01*
Y1510000D01*
X1684000Y1519997D02*
Y1523329D01*
Y1521663D01*
X1674003D01*
X1675669Y1519997D01*
X1580665Y1275331D02*
X1578998Y1276997D01*
X1575666D01*
X1574000Y1275331D01*
Y1268666D01*
X1575666Y1267000D01*
X1578998D01*
X1580665Y1268666D01*
X1590661Y1267000D02*
X1583997D01*
X1590661Y1273664D01*
Y1275331D01*
X1588995Y1276997D01*
X1585663D01*
X1583997Y1275331D01*
X1593994D02*
X1595660Y1276997D01*
X1598992D01*
X1600658Y1275331D01*
Y1273664D01*
X1598992Y1271998D01*
X1600658Y1270332D01*
Y1268666D01*
X1598992Y1267000D01*
X1595660D01*
X1593994Y1268666D01*
Y1270332D01*
X1595660Y1271998D01*
X1593994Y1273664D01*
Y1275331D01*
X1595660Y1271998D02*
X1598992D01*
X1554664Y1144331D02*
X1552998Y1145997D01*
X1549666D01*
X1548000Y1144331D01*
Y1137666D01*
X1549666Y1136000D01*
X1552998D01*
X1554664Y1137666D01*
X1564661Y1136000D02*
X1557997D01*
X1564661Y1142664D01*
Y1144331D01*
X1562995Y1145997D01*
X1559663D01*
X1557997Y1144331D01*
X1567994Y1145997D02*
X1574658D01*
Y1144331D01*
X1567994Y1137666D01*
Y1136000D01*
X1559664Y1174331D02*
X1557998Y1175997D01*
X1554666D01*
X1553000Y1174331D01*
Y1167666D01*
X1554666Y1166000D01*
X1557998D01*
X1559664Y1167666D01*
X1569661Y1166000D02*
X1562997D01*
X1569661Y1172664D01*
Y1174331D01*
X1567995Y1175997D01*
X1564663D01*
X1562997Y1174331D01*
X1579658Y1175997D02*
X1576326Y1174331D01*
X1572994Y1170998D01*
Y1167666D01*
X1574660Y1166000D01*
X1577992D01*
X1579658Y1167666D01*
Y1169332D01*
X1577992Y1170998D01*
X1572994D01*
X1592669Y1225665D02*
X1591003Y1223998D01*
Y1220666D01*
X1592669Y1219000D01*
X1599334D01*
X1601000Y1220666D01*
Y1223998D01*
X1599334Y1225665D01*
X1601000Y1235661D02*
Y1228997D01*
X1594335Y1235661D01*
X1592669D01*
X1591003Y1233995D01*
Y1230663D01*
X1592669Y1228997D01*
X1591003Y1245658D02*
Y1238994D01*
X1596002D01*
X1594335Y1242326D01*
Y1243992D01*
X1596002Y1245658D01*
X1599334D01*
X1601000Y1243992D01*
Y1240660D01*
X1599334Y1238994D01*
X1462664Y1173331D02*
X1460998Y1174997D01*
X1457666D01*
X1456000Y1173331D01*
Y1166666D01*
X1457666Y1165000D01*
X1460998D01*
X1462664Y1166666D01*
X1472661Y1165000D02*
X1465997D01*
X1472661Y1171665D01*
Y1173331D01*
X1470995Y1174997D01*
X1467663D01*
X1465997Y1173331D01*
X1480992Y1165000D02*
Y1174997D01*
X1475994Y1169998D01*
X1482658D01*
X1593669Y1181665D02*
X1592003Y1179998D01*
Y1176666D01*
X1593669Y1175000D01*
X1600334D01*
X1602000Y1176666D01*
Y1179998D01*
X1600334Y1181665D01*
X1602000Y1191661D02*
Y1184997D01*
X1595336Y1191661D01*
X1593669D01*
X1592003Y1189995D01*
Y1186663D01*
X1593669Y1184997D01*
Y1194994D02*
X1592003Y1196660D01*
Y1199992D01*
X1593669Y1201658D01*
X1595336D01*
X1597002Y1199992D01*
Y1198326D01*
Y1199992D01*
X1598668Y1201658D01*
X1600334D01*
X1602000Y1199992D01*
Y1196660D01*
X1600334Y1194994D01*
X820665Y1032331D02*
X818998Y1033997D01*
X815666D01*
X814000Y1032331D01*
Y1025666D01*
X815666Y1024000D01*
X818998D01*
X820665Y1025666D01*
X830661Y1024000D02*
X823997D01*
X830661Y1030665D01*
Y1032331D01*
X828995Y1033997D01*
X825663D01*
X823997Y1032331D01*
X840658Y1024000D02*
X833994D01*
X840658Y1030665D01*
Y1032331D01*
X838992Y1033997D01*
X835660D01*
X833994Y1032331D01*
X995665D02*
X993998Y1033997D01*
X990666D01*
X989000Y1032331D01*
Y1025666D01*
X990666Y1024000D01*
X993998D01*
X995665Y1025666D01*
X1005661Y1024000D02*
X998997D01*
X1005661Y1030665D01*
Y1032331D01*
X1003995Y1033997D01*
X1000663D01*
X998997Y1032331D01*
X1008994Y1024000D02*
X1012326D01*
X1010660D01*
Y1033997D01*
X1008994Y1032331D01*
X310669Y1283665D02*
X309003Y1281998D01*
Y1278666D01*
X310669Y1277000D01*
X317334D01*
X319000Y1278666D01*
Y1281998D01*
X317334Y1283665D01*
X319000Y1293661D02*
Y1286997D01*
X312335Y1293661D01*
X310669D01*
X309003Y1291995D01*
Y1288663D01*
X310669Y1286997D01*
Y1296994D02*
X309003Y1298660D01*
Y1301992D01*
X310669Y1303658D01*
X317334D01*
X319000Y1301992D01*
Y1298660D01*
X317334Y1296994D01*
X310669D01*
X310669Y1216665D02*
X309003Y1214998D01*
Y1211666D01*
X310669Y1210000D01*
X317334D01*
X319000Y1211666D01*
Y1214998D01*
X317334Y1216665D01*
X319000Y1219997D02*
Y1223329D01*
Y1221663D01*
X309003D01*
X310669Y1219997D01*
Y1228327D02*
X309003Y1229994D01*
Y1233326D01*
X310669Y1234992D01*
X312335D01*
X314002Y1233326D01*
X315668Y1234992D01*
X317334D01*
X319000Y1233326D01*
Y1229994D01*
X317334Y1228327D01*
X315668D01*
X314002Y1229994D01*
X312335Y1228327D01*
X310669D01*
X314002Y1229994D02*
Y1233326D01*
X1002669Y1437664D02*
X1001003Y1435998D01*
Y1432666D01*
X1002669Y1431000D01*
X1009334D01*
X1011000Y1432666D01*
Y1435998D01*
X1009334Y1437664D01*
X1011000Y1440997D02*
Y1444329D01*
Y1442663D01*
X1001003D01*
X1002669Y1440997D01*
X1001003Y1455992D02*
X1002669Y1452660D01*
X1006002Y1449327D01*
X1009334D01*
X1011000Y1450994D01*
Y1454326D01*
X1009334Y1455992D01*
X1007668D01*
X1006002Y1454326D01*
Y1449327D01*
X806665Y1351331D02*
X804998Y1352997D01*
X801666D01*
X800000Y1351331D01*
Y1344666D01*
X801666Y1343000D01*
X804998D01*
X806665Y1344666D01*
X809997Y1343000D02*
X813329D01*
X811663D01*
Y1352997D01*
X809997Y1351331D01*
X824992Y1352997D02*
X818327D01*
Y1347998D01*
X821660Y1349664D01*
X823326D01*
X824992Y1347998D01*
Y1344666D01*
X823326Y1343000D01*
X819994D01*
X818327Y1344666D01*
X1005665Y1552331D02*
X1003998Y1553997D01*
X1000666D01*
X999000Y1552331D01*
Y1545666D01*
X1000666Y1544000D01*
X1003998D01*
X1005665Y1545666D01*
X1008997Y1544000D02*
X1012329D01*
X1010663D01*
Y1553997D01*
X1008997Y1552331D01*
X1022326Y1544000D02*
Y1553997D01*
X1017327Y1548998D01*
X1023992D01*
X838669Y1487664D02*
X837003Y1485998D01*
Y1482666D01*
X838669Y1481000D01*
X845334D01*
X847000Y1482666D01*
Y1485998D01*
X845334Y1487664D01*
X847000Y1490997D02*
Y1494329D01*
Y1492663D01*
X837003D01*
X838669Y1490997D01*
Y1499327D02*
X837003Y1500994D01*
Y1504326D01*
X838669Y1505992D01*
X840335D01*
X842002Y1504326D01*
Y1502660D01*
Y1504326D01*
X843668Y1505992D01*
X845334D01*
X847000Y1504326D01*
Y1500994D01*
X845334Y1499327D01*
X552664Y1552331D02*
X550998Y1553997D01*
X547666D01*
X546000Y1552331D01*
Y1545666D01*
X547666Y1544000D01*
X550998D01*
X552664Y1545666D01*
X555997Y1544000D02*
X559329D01*
X557663D01*
Y1553997D01*
X555997Y1552331D01*
X570992Y1544000D02*
X564327D01*
X570992Y1550665D01*
Y1552331D01*
X569326Y1553997D01*
X565994D01*
X564327Y1552331D01*
X392331Y1492336D02*
X393997Y1494002D01*
Y1497334D01*
X392331Y1499000D01*
X385666D01*
X384000Y1497334D01*
Y1494002D01*
X385666Y1492336D01*
X384000Y1489003D02*
Y1485671D01*
Y1487337D01*
X393997D01*
X392331Y1489003D01*
X384000Y1480673D02*
Y1477340D01*
Y1479006D01*
X393997D01*
X392331Y1480673D01*
X1031669Y1636664D02*
X1030003Y1634998D01*
Y1631666D01*
X1031669Y1630000D01*
X1038334D01*
X1040000Y1631666D01*
Y1634998D01*
X1038334Y1636664D01*
X1040000Y1639997D02*
Y1643329D01*
Y1641663D01*
X1030003D01*
X1031669Y1639997D01*
Y1648327D02*
X1030003Y1649994D01*
Y1653326D01*
X1031669Y1654992D01*
X1038334D01*
X1040000Y1653326D01*
Y1649994D01*
X1038334Y1648327D01*
X1031669D01*
X1032669Y1571664D02*
X1031003Y1569998D01*
Y1566666D01*
X1032669Y1565000D01*
X1039334D01*
X1041000Y1566666D01*
Y1569998D01*
X1039334Y1571664D01*
Y1574997D02*
X1041000Y1576663D01*
Y1579995D01*
X1039334Y1581661D01*
X1032669D01*
X1031003Y1579995D01*
Y1576663D01*
X1032669Y1574997D01*
X1034335D01*
X1036002Y1576663D01*
Y1581661D01*
X580669Y1569664D02*
X579003Y1567998D01*
Y1564666D01*
X580669Y1563000D01*
X587334D01*
X589000Y1564666D01*
Y1567998D01*
X587334Y1569664D01*
X580669Y1572997D02*
X579003Y1574663D01*
Y1577995D01*
X580669Y1579661D01*
X582336D01*
X584002Y1577995D01*
X585668Y1579661D01*
X587334D01*
X589000Y1577995D01*
Y1574663D01*
X587334Y1572997D01*
X585668D01*
X584002Y1574663D01*
X582336Y1572997D01*
X580669D01*
X584002Y1574663D02*
Y1577995D01*
X578669Y1647664D02*
X577003Y1645998D01*
Y1642666D01*
X578669Y1641000D01*
X585334D01*
X587000Y1642666D01*
Y1645998D01*
X585334Y1647664D01*
X577003Y1650997D02*
Y1657661D01*
X578669D01*
X585334Y1650997D01*
X587000D01*
X764669Y1254665D02*
X763003Y1252998D01*
Y1249666D01*
X764669Y1248000D01*
X771334D01*
X773000Y1249666D01*
Y1252998D01*
X771334Y1254665D01*
X763003Y1264661D02*
X764669Y1261329D01*
X768002Y1257997D01*
X771334D01*
X773000Y1259663D01*
Y1262995D01*
X771334Y1264661D01*
X769668D01*
X768002Y1262995D01*
Y1257997D01*
X1101665Y1117331D02*
X1099998Y1118997D01*
X1096666D01*
X1095000Y1117331D01*
Y1110666D01*
X1096666Y1109000D01*
X1099998D01*
X1101665Y1110666D01*
X1111661Y1118997D02*
X1104997D01*
Y1113998D01*
X1108329Y1115665D01*
X1109995D01*
X1111661Y1113998D01*
Y1110666D01*
X1109995Y1109000D01*
X1106663D01*
X1104997Y1110666D01*
X1039665Y1114331D02*
X1037998Y1115997D01*
X1034666D01*
X1033000Y1114331D01*
Y1107666D01*
X1034666Y1106000D01*
X1037998D01*
X1039665Y1107666D01*
X1047995Y1106000D02*
Y1115997D01*
X1042997Y1110998D01*
X1049661D01*
X954669Y1374664D02*
X953003Y1372998D01*
Y1369666D01*
X954669Y1368000D01*
X961334D01*
X963000Y1369666D01*
Y1372998D01*
X961334Y1374664D01*
X954669Y1377997D02*
X953003Y1379663D01*
Y1382995D01*
X954669Y1384661D01*
X956336D01*
X958002Y1382995D01*
Y1381329D01*
Y1382995D01*
X959668Y1384661D01*
X961334D01*
X963000Y1382995D01*
Y1379663D01*
X961334Y1377997D01*
X953664Y1123331D02*
X951998Y1124997D01*
X948666D01*
X947000Y1123331D01*
Y1116666D01*
X948666Y1115000D01*
X951998D01*
X953664Y1116666D01*
X963661Y1115000D02*
X956997D01*
X963661Y1121665D01*
Y1123331D01*
X961995Y1124997D01*
X958663D01*
X956997Y1123331D01*
X980669Y1143664D02*
X979003Y1141998D01*
Y1138666D01*
X980669Y1137000D01*
X987334D01*
X989000Y1138666D01*
Y1141998D01*
X987334Y1143664D01*
X989000Y1146997D02*
Y1150329D01*
Y1148663D01*
X979003D01*
X980669Y1146997D01*
X462664Y1617666D02*
Y1624331D01*
X460998Y1625997D01*
X457666D01*
X456000Y1624331D01*
Y1617666D01*
X457666Y1616000D01*
X460998D01*
X459332Y1619332D02*
X462664Y1616000D01*
X460998D02*
X462664Y1617666D01*
X472661Y1625997D02*
X465997D01*
Y1620998D01*
X469329Y1622664D01*
X470995D01*
X472661Y1620998D01*
Y1617666D01*
X470995Y1616000D01*
X467663D01*
X465997Y1617666D01*
X916665Y1620666D02*
Y1627331D01*
X914998Y1628997D01*
X911666D01*
X910000Y1627331D01*
Y1620666D01*
X911666Y1619000D01*
X914998D01*
X913332Y1622332D02*
X916665Y1619000D01*
X914998D02*
X916665Y1620666D01*
X926661Y1628997D02*
X923329Y1627331D01*
X919997Y1623998D01*
Y1620666D01*
X921663Y1619000D01*
X924995D01*
X926661Y1620666D01*
Y1622332D01*
X924995Y1623998D01*
X919997D01*
D93*
X1553250Y181750D02*
G03*
X1553250Y181750I-1250J0D01*
G01*
X1491000Y156500D02*
G03*
X1491000Y156500I-1250J0D01*
G01*
X280750Y185000D02*
G03*
X280750Y185000I-1250J0D01*
G01*
X1031250Y331000D02*
G03*
X1031250Y331000I-1250J0D01*
G01*
X974750Y179250D02*
G03*
X974750Y179250I-1250J0D01*
G01*
X1314750Y451500D02*
G03*
X1314750Y451500I-1250J0D01*
G01*
X1419750D02*
G03*
X1419750Y451500I-1250J0D01*
G01*
X1524750D02*
G03*
X1524750Y451500I-1250J0D01*
G01*
X1630750D02*
G03*
X1630750Y451500I-1250J0D01*
G01*
X1553250Y1183750D02*
G03*
X1553250Y1183750I-1250J0D01*
G01*
X1491000Y1158500D02*
G03*
X1491000Y1158500I-1250J0D01*
G01*
X280750Y1187000D02*
G03*
X280750Y1187000I-1250J0D01*
G01*
X1031250Y1333000D02*
G03*
X1031250Y1333000I-1250J0D01*
G01*
X974750Y1181250D02*
G03*
X974750Y1181250I-1250J0D01*
G01*
X1314750Y1453500D02*
G03*
X1314750Y1453500I-1250J0D01*
G01*
X1419750D02*
G03*
X1419750Y1453500I-1250J0D01*
G01*
X1524750D02*
G03*
X1524750Y1453500I-1250J0D01*
G01*
X1630750D02*
G03*
X1630750Y1453500I-1250J0D01*
G01*
D94*
X1157000Y193235D02*
Y190696D01*
X1162078Y185618D01*
X1167157Y190696D01*
Y193235D01*
X1162078Y185618D02*
Y178000D01*
X1172235D02*
X1177313D01*
X1174774D01*
Y193235D01*
X1172235Y190696D01*
X98000Y191235D02*
Y178539D01*
X100539Y176000D01*
X105617D01*
X108157Y178539D01*
Y191235D01*
X120852Y176000D02*
Y191235D01*
X113235Y183617D01*
X123392D01*
X619000Y143000D02*
X603765D01*
Y150618D01*
X606304Y153157D01*
X611382D01*
X613922Y150618D01*
Y143000D01*
Y148078D02*
X619000Y153157D01*
Y168392D02*
Y158235D01*
X608843Y168392D01*
X606304D01*
X603765Y165853D01*
Y160774D01*
X606304Y158235D01*
X603765Y173470D02*
Y183627D01*
X606304D01*
X616461Y173470D01*
X619000D01*
X776000Y297000D02*
Y312235D01*
X783617D01*
X786157Y309696D01*
Y304618D01*
X783617Y302078D01*
X776000D01*
X791235Y297000D02*
X796313D01*
X793774D01*
Y312235D01*
X791235Y309696D01*
X328000Y312235D02*
Y297000D01*
X338157D01*
X343235D02*
X348313D01*
X345774D01*
Y312235D01*
X343235Y309696D01*
X1265613Y767820D02*
Y752585D01*
Y757663D01*
X1275770Y767820D01*
X1268152Y760203D01*
X1275770Y752585D01*
X1288466D02*
Y767820D01*
X1280848Y760203D01*
X1291005D01*
X1370946Y767820D02*
Y752585D01*
Y757663D01*
X1381103Y767820D01*
X1373486Y760203D01*
X1381103Y752585D01*
X1386181Y765281D02*
X1388721Y767820D01*
X1393799D01*
X1396338Y765281D01*
Y762742D01*
X1393799Y760203D01*
X1391260D01*
X1393799D01*
X1396338Y757663D01*
Y755124D01*
X1393799Y752585D01*
X1388721D01*
X1386181Y755124D01*
X1476280Y767820D02*
Y752585D01*
Y757663D01*
X1486436Y767820D01*
X1478819Y760203D01*
X1486436Y752585D01*
X1501671D02*
X1491515D01*
X1501671Y762742D01*
Y765281D01*
X1499132Y767820D01*
X1494054D01*
X1491515Y765281D01*
X1581613Y767820D02*
Y752585D01*
Y757663D01*
X1591770Y767820D01*
X1584152Y760203D01*
X1591770Y752585D01*
X1596848D02*
X1601927D01*
X1599387D01*
Y767820D01*
X1596848Y765281D01*
X1598765Y398157D02*
Y393078D01*
Y395617D01*
X1611461D01*
X1614000Y393078D01*
Y390539D01*
X1611461Y388000D01*
X1598765Y413392D02*
Y403235D01*
X1606382D01*
X1603843Y408313D01*
Y410853D01*
X1606382Y413392D01*
X1611461D01*
X1614000Y410853D01*
Y405774D01*
X1611461Y403235D01*
X455765Y62000D02*
X471000D01*
Y69618D01*
X468461Y72157D01*
X458304D01*
X455765Y69618D01*
Y62000D01*
X471000Y77235D02*
Y82313D01*
Y79774D01*
X455765D01*
X458304Y77235D01*
X455765Y100088D02*
Y89931D01*
X463382D01*
X460843Y95009D01*
Y97549D01*
X463382Y100088D01*
X468461D01*
X471000Y97549D01*
Y92470D01*
X468461Y89931D01*
X603765Y282000D02*
X619000D01*
Y289618D01*
X616461Y292157D01*
X606304D01*
X603765Y289618D01*
Y282000D01*
X619000Y297235D02*
Y302313D01*
Y299774D01*
X603765D01*
X606304Y297235D01*
Y309931D02*
X603765Y312470D01*
Y317549D01*
X606304Y320088D01*
X608843D01*
X611382Y317549D01*
Y315009D01*
Y317549D01*
X613922Y320088D01*
X616461D01*
X619000Y317549D01*
Y312470D01*
X616461Y309931D01*
X105765Y69000D02*
X121000D01*
Y76617D01*
X118461Y79157D01*
X108304D01*
X105765Y76617D01*
Y69000D01*
X121000Y84235D02*
Y89313D01*
Y86774D01*
X105765D01*
X108304Y84235D01*
X121000Y107088D02*
Y96931D01*
X110843Y107088D01*
X108304D01*
X105765Y104549D01*
Y99470D01*
X108304Y96931D01*
X94157Y325696D02*
X91617Y328235D01*
X86539D01*
X84000Y325696D01*
Y315539D01*
X86539Y313000D01*
X91617D01*
X94157Y315539D01*
X99235Y313000D02*
Y328235D01*
X109392Y313000D01*
Y328235D01*
X124627D02*
X119549Y325696D01*
X114470Y320617D01*
Y315539D01*
X117009Y313000D01*
X122088D01*
X124627Y315539D01*
Y318078D01*
X122088Y320617D01*
X114470D01*
X1347304Y884157D02*
X1344765Y881618D01*
Y876539D01*
X1347304Y874000D01*
X1357461D01*
X1360000Y876539D01*
Y881618D01*
X1357461Y884157D01*
X1360000Y889235D02*
X1344765D01*
X1360000Y899392D01*
X1344765D01*
Y914627D02*
Y904470D01*
X1352383D01*
X1349843Y909548D01*
Y912088D01*
X1352383Y914627D01*
X1357461D01*
X1360000Y912088D01*
Y907009D01*
X1357461Y904470D01*
X818304Y959157D02*
X815765Y956618D01*
Y951539D01*
X818304Y949000D01*
X828461D01*
X831000Y951539D01*
Y956618D01*
X828461Y959157D01*
X831000Y964235D02*
X815765D01*
X831000Y974392D01*
X815765D01*
X831000Y987088D02*
X815765D01*
X823382Y979470D01*
Y989627D01*
X369304Y957157D02*
X366765Y954617D01*
Y949539D01*
X369304Y947000D01*
X379461D01*
X382000Y949539D01*
Y954617D01*
X379461Y957157D01*
X382000Y962235D02*
X366765D01*
X382000Y972392D01*
X366765D01*
X382000Y987627D02*
Y977470D01*
X371843Y987627D01*
X369304D01*
X366765Y985088D01*
Y980009D01*
X369304Y977470D01*
X577304Y958157D02*
X574765Y955618D01*
Y950539D01*
X577304Y948000D01*
X587461D01*
X590000Y950539D01*
Y955618D01*
X587461Y958157D01*
X590000Y963235D02*
X574765D01*
X590000Y973392D01*
X574765D01*
X577304Y978470D02*
X574765Y981009D01*
Y986088D01*
X577304Y988627D01*
X579843D01*
X582383Y986088D01*
Y983549D01*
Y986088D01*
X584922Y988627D01*
X587461D01*
X590000Y986088D01*
Y981009D01*
X587461Y978470D01*
X130304Y963157D02*
X127765Y960618D01*
Y955539D01*
X130304Y953000D01*
X140461D01*
X143000Y955539D01*
Y960618D01*
X140461Y963157D01*
X143000Y968235D02*
X127765D01*
X143000Y978392D01*
X127765D01*
X143000Y983470D02*
Y988549D01*
Y986009D01*
X127765D01*
X130304Y983470D01*
X462212Y314929D02*
X459672Y317468D01*
X454594D01*
X452055Y314929D01*
Y304772D01*
X454594Y302233D01*
X459672D01*
X462212Y304772D01*
X467290Y302233D02*
X472368D01*
X469829D01*
Y317468D01*
X467290Y314929D01*
X479986Y304772D02*
X482525Y302233D01*
X487603D01*
X490143Y304772D01*
Y314929D01*
X487603Y317468D01*
X482525D01*
X479986Y314929D01*
Y312390D01*
X482525Y309851D01*
X490143D01*
X204304Y139157D02*
X201765Y136617D01*
Y131539D01*
X204304Y129000D01*
X214461D01*
X217000Y131539D01*
Y136617D01*
X214461Y139157D01*
X217000Y144235D02*
Y149313D01*
Y146774D01*
X201765D01*
X204304Y144235D01*
X201765Y156931D02*
Y167088D01*
X204304D01*
X214461Y156931D01*
X217000D01*
X233104Y23950D02*
Y40611D01*
X224773Y32281D02*
X241435D01*
X451950Y274896D02*
X468611D01*
X460280Y283227D02*
Y266565D01*
X1157000Y1195235D02*
Y1192696D01*
X1162078Y1187617D01*
X1167157Y1192696D01*
Y1195235D01*
X1162078Y1187617D02*
Y1180000D01*
X1172235D02*
X1177313D01*
X1174774D01*
Y1195235D01*
X1172235Y1192696D01*
X98000Y1193235D02*
Y1180539D01*
X100539Y1178000D01*
X105617D01*
X108157Y1180539D01*
Y1193235D01*
X120852Y1178000D02*
Y1193235D01*
X113235Y1185618D01*
X123392D01*
X619000Y1145000D02*
X603765D01*
Y1152617D01*
X606304Y1155157D01*
X611382D01*
X613922Y1152617D01*
Y1145000D01*
Y1150078D02*
X619000Y1155157D01*
Y1170392D02*
Y1160235D01*
X608843Y1170392D01*
X606304D01*
X603765Y1167853D01*
Y1162774D01*
X606304Y1160235D01*
X603765Y1175470D02*
Y1185627D01*
X606304D01*
X616461Y1175470D01*
X619000D01*
X776000Y1299000D02*
Y1314235D01*
X783617D01*
X786157Y1311696D01*
Y1306617D01*
X783617Y1304078D01*
X776000D01*
X791235Y1299000D02*
X796313D01*
X793774D01*
Y1314235D01*
X791235Y1311696D01*
X328000Y1314235D02*
Y1299000D01*
X338157D01*
X343235D02*
X348313D01*
X345774D01*
Y1314235D01*
X343235Y1311696D01*
X1265613Y1769820D02*
Y1754585D01*
Y1759663D01*
X1275770Y1769820D01*
X1268152Y1762203D01*
X1275770Y1754585D01*
X1288466D02*
Y1769820D01*
X1280848Y1762203D01*
X1291005D01*
X1370946Y1769820D02*
Y1754585D01*
Y1759663D01*
X1381103Y1769820D01*
X1373486Y1762203D01*
X1381103Y1754585D01*
X1386181Y1767281D02*
X1388721Y1769820D01*
X1393799D01*
X1396338Y1767281D01*
Y1764742D01*
X1393799Y1762203D01*
X1391260D01*
X1393799D01*
X1396338Y1759663D01*
Y1757124D01*
X1393799Y1754585D01*
X1388721D01*
X1386181Y1757124D01*
X1476280Y1769820D02*
Y1754585D01*
Y1759663D01*
X1486436Y1769820D01*
X1478819Y1762203D01*
X1486436Y1754585D01*
X1501671D02*
X1491515D01*
X1501671Y1764742D01*
Y1767281D01*
X1499132Y1769820D01*
X1494054D01*
X1491515Y1767281D01*
X1581613Y1769820D02*
Y1754585D01*
Y1759663D01*
X1591770Y1769820D01*
X1584152Y1762203D01*
X1591770Y1754585D01*
X1596848D02*
X1601927D01*
X1599387D01*
Y1769820D01*
X1596848Y1767281D01*
X1598765Y1400157D02*
Y1395078D01*
Y1397617D01*
X1611461D01*
X1614000Y1395078D01*
Y1392539D01*
X1611461Y1390000D01*
X1598765Y1415392D02*
Y1405235D01*
X1606382D01*
X1603843Y1410313D01*
Y1412853D01*
X1606382Y1415392D01*
X1611461D01*
X1614000Y1412853D01*
Y1407774D01*
X1611461Y1405235D01*
X455765Y1064000D02*
X471000D01*
Y1071618D01*
X468461Y1074157D01*
X458304D01*
X455765Y1071618D01*
Y1064000D01*
X471000Y1079235D02*
Y1084313D01*
Y1081774D01*
X455765D01*
X458304Y1079235D01*
X455765Y1102088D02*
Y1091931D01*
X463382D01*
X460843Y1097009D01*
Y1099548D01*
X463382Y1102088D01*
X468461D01*
X471000Y1099548D01*
Y1094470D01*
X468461Y1091931D01*
X603765Y1284000D02*
X619000D01*
Y1291617D01*
X616461Y1294157D01*
X606304D01*
X603765Y1291617D01*
Y1284000D01*
X619000Y1299235D02*
Y1304313D01*
Y1301774D01*
X603765D01*
X606304Y1299235D01*
Y1311931D02*
X603765Y1314470D01*
Y1319548D01*
X606304Y1322088D01*
X608843D01*
X611382Y1319548D01*
Y1317009D01*
Y1319548D01*
X613922Y1322088D01*
X616461D01*
X619000Y1319548D01*
Y1314470D01*
X616461Y1311931D01*
X105765Y1071000D02*
X121000D01*
Y1078617D01*
X118461Y1081157D01*
X108304D01*
X105765Y1078617D01*
Y1071000D01*
X121000Y1086235D02*
Y1091313D01*
Y1088774D01*
X105765D01*
X108304Y1086235D01*
X121000Y1109088D02*
Y1098931D01*
X110843Y1109088D01*
X108304D01*
X105765Y1106548D01*
Y1101470D01*
X108304Y1098931D01*
X94157Y1327696D02*
X91617Y1330235D01*
X86539D01*
X84000Y1327696D01*
Y1317539D01*
X86539Y1315000D01*
X91617D01*
X94157Y1317539D01*
X99235Y1315000D02*
Y1330235D01*
X109392Y1315000D01*
Y1330235D01*
X124627D02*
X119549Y1327696D01*
X114470Y1322617D01*
Y1317539D01*
X117009Y1315000D01*
X122088D01*
X124627Y1317539D01*
Y1320078D01*
X122088Y1322617D01*
X114470D01*
X1347304Y1886157D02*
X1344765Y1883618D01*
Y1878539D01*
X1347304Y1876000D01*
X1357461D01*
X1360000Y1878539D01*
Y1883618D01*
X1357461Y1886157D01*
X1360000Y1891235D02*
X1344765D01*
X1360000Y1901392D01*
X1344765D01*
Y1916627D02*
Y1906470D01*
X1352383D01*
X1349843Y1911548D01*
Y1914088D01*
X1352383Y1916627D01*
X1357461D01*
X1360000Y1914088D01*
Y1909009D01*
X1357461Y1906470D01*
X818304Y1961157D02*
X815765Y1958618D01*
Y1953539D01*
X818304Y1951000D01*
X828461D01*
X831000Y1953539D01*
Y1958618D01*
X828461Y1961157D01*
X831000Y1966235D02*
X815765D01*
X831000Y1976392D01*
X815765D01*
X831000Y1989088D02*
X815765D01*
X823382Y1981470D01*
Y1991627D01*
X369304Y1959157D02*
X366765Y1956617D01*
Y1951539D01*
X369304Y1949000D01*
X379461D01*
X382000Y1951539D01*
Y1956617D01*
X379461Y1959157D01*
X382000Y1964235D02*
X366765D01*
X382000Y1974392D01*
X366765D01*
X382000Y1989627D02*
Y1979470D01*
X371843Y1989627D01*
X369304D01*
X366765Y1987088D01*
Y1982009D01*
X369304Y1979470D01*
X577304Y1960157D02*
X574765Y1957617D01*
Y1952539D01*
X577304Y1950000D01*
X587461D01*
X590000Y1952539D01*
Y1957617D01*
X587461Y1960157D01*
X590000Y1965235D02*
X574765D01*
X590000Y1975392D01*
X574765D01*
X577304Y1980470D02*
X574765Y1983009D01*
Y1988088D01*
X577304Y1990627D01*
X579843D01*
X582383Y1988088D01*
Y1985549D01*
Y1988088D01*
X584922Y1990627D01*
X587461D01*
X590000Y1988088D01*
Y1983009D01*
X587461Y1980470D01*
X130304Y1965157D02*
X127765Y1962617D01*
Y1957539D01*
X130304Y1955000D01*
X140461D01*
X143000Y1957539D01*
Y1962617D01*
X140461Y1965157D01*
X143000Y1970235D02*
X127765D01*
X143000Y1980392D01*
X127765D01*
X143000Y1985470D02*
Y1990549D01*
Y1988009D01*
X127765D01*
X130304Y1985470D01*
X462212Y1316929D02*
X459672Y1319468D01*
X454594D01*
X452055Y1316929D01*
Y1306772D01*
X454594Y1304233D01*
X459672D01*
X462212Y1306772D01*
X467290Y1304233D02*
X472368D01*
X469829D01*
Y1319468D01*
X467290Y1316929D01*
X479986Y1306772D02*
X482525Y1304233D01*
X487603D01*
X490143Y1306772D01*
Y1316929D01*
X487603Y1319468D01*
X482525D01*
X479986Y1316929D01*
Y1314390D01*
X482525Y1311850D01*
X490143D01*
X204304Y1141157D02*
X201765Y1138617D01*
Y1133539D01*
X204304Y1131000D01*
X214461D01*
X217000Y1133539D01*
Y1138617D01*
X214461Y1141157D01*
X217000Y1146235D02*
Y1151313D01*
Y1148774D01*
X201765D01*
X204304Y1146235D01*
X201765Y1158931D02*
Y1169088D01*
X204304D01*
X214461Y1158931D01*
X217000D01*
X233104Y1025950D02*
Y1042611D01*
X224773Y1034281D02*
X241435D01*
X451950Y1276896D02*
X468611D01*
X460280Y1285227D02*
Y1268565D01*
D95*
X1712245Y300553D02*
X1709746Y305552D01*
X1704748Y310550D01*
X1699749D01*
X1697250Y308051D01*
Y303053D01*
X1699749Y300553D01*
X1702248D01*
X1704748Y303053D01*
Y310550D01*
X1699749Y227450D02*
X1697250Y224951D01*
Y219952D01*
X1699749Y217453D01*
X1709746D01*
X1712245Y219952D01*
Y224951D01*
X1709746Y227450D01*
X1707247D01*
X1704748Y224951D01*
Y217453D01*
X1618245Y203603D02*
Y213600D01*
X1610748D01*
X1613247Y208602D01*
Y206102D01*
X1610748Y203603D01*
X1605749D01*
X1603250Y206102D01*
Y211101D01*
X1605749Y213600D01*
X1603250Y321900D02*
Y316902D01*
Y319401D01*
X1618245D01*
X1615746Y321900D01*
X1712245Y1302553D02*
X1709746Y1307552D01*
X1704748Y1312550D01*
X1699749D01*
X1697250Y1310051D01*
Y1305052D01*
X1699749Y1302553D01*
X1702248D01*
X1704748Y1305052D01*
Y1312550D01*
X1699749Y1229450D02*
X1697250Y1226951D01*
Y1221952D01*
X1699749Y1219453D01*
X1709746D01*
X1712245Y1221952D01*
Y1226951D01*
X1709746Y1229450D01*
X1707247D01*
X1704748Y1226951D01*
Y1219453D01*
X1618245Y1205603D02*
Y1215600D01*
X1610748D01*
X1613247Y1210602D01*
Y1208102D01*
X1610748Y1205603D01*
X1605749D01*
X1603250Y1208102D01*
Y1213101D01*
X1605749Y1215600D01*
X1603250Y1323900D02*
Y1318902D01*
Y1321401D01*
X1618245D01*
X1615746Y1323900D01*
M02*
