M48
;Layer_Color=9474304
;FILE_FORMAT=4:4
METRIC,LZ
;TYPE=PLATED
T1F00S00C0.6000
T2F00S00C0.7000
T3F00S00C0.8000
T4F00S00C1.0000
T5F00S00C1.3000
T6F00S00C1.7000
T7F00S00C3.2600
T8F00S00C4.0000
;TYPE=NON_PLATED
T9F00S00C2.5500
%
T01
X00948333Y00485
Y00498
Y00511
X00963167
Y00498
Y00485
X00978
Y00498
Y00511
X009335
Y00498
Y00485
X00918667
Y00498
Y00511
X00903833
Y00498
Y00485
X00889
Y00498
Y00511
X00924Y00531
X00826Y00507
X00526Y00501
Y00488
X00511167
Y00501
Y00514
X00496333
Y00501
Y00488
X004815
Y00501
Y00514
X00466667
Y00501
Y00488
X00451833
Y00501
Y00514
X00437
Y00501
Y00488
X00472Y00532
X00526Y00514
X00373Y00511
X00226Y00269
X00213
X002
X00187
X00174
X00161
Y002532
X00174
X00187
X002
X00213
X00226
Y002374
X00213
X002
X00187
X00174
X00161
Y002216
X00174
X00187
X002
X00213
X00226
Y002058
X00213
X002
X00187
X00174
X00161
Y0019
X00174
X00187
X002
X00213
X00226
X00297Y00587
Y006
Y00613
Y00626
X00311833
Y00613
Y006
Y00587
X00326667
Y006
Y00613
Y00626
X003415
Y00613
Y006
Y00587
X00356333
Y006
Y00613
Y00626
X00371167
Y00613
Y006
Y00587
X00386
Y006
Y00613
Y00626
X00391Y00649
Y00662
Y00675
Y00688
X00375
Y00675
Y00662
Y00649
X00359
Y00662
Y00675
Y00688
X00323Y00687
Y00674
Y00661
Y00648
X00307
Y00661
Y00674
Y00687
X00291
Y00674
Y00661
Y00648
X00275Y00648
Y00661
Y00674
Y00687
X00407Y00688
Y00675
Y00662
Y00649
X00487Y00649
Y00662
Y00675
Y00636
Y00623
X00487Y0061
Y00597
Y00584
Y00571
Y00558
Y00545
X00468Y00571
Y00584
Y00597
X00453167
Y00584
Y00571
X00438333
Y00584
Y00597
X00748Y006
Y00613
Y00626
X00762833
Y00613
Y006
Y00587
X00777667
Y006
Y00613
Y00626
X007925
Y00613
Y006
Y00587
X00807333
Y006
Y00613
Y00626
X00822167
Y00613
Y006
Y00587
X00837
Y006
Y00613
Y00626
X00843Y00649
Y00662
Y00675
Y00688
X00859
Y00675
Y00662
Y00649
X00827
Y00662
Y00675
Y00688
X00811
Y00675
Y00662
Y00649
X00775Y00648
Y00661
Y00674
Y00687
X00759
Y00674
Y00661
Y00648
X00743
Y00661
Y00674
Y00687
X00727
Y00674
Y00661
Y00648
X00748Y00587
X00890333Y00583
Y0057
X00905167
Y00583
Y00596
X00890333
X0092
Y00583
Y0057
X00939Y00573
Y00586
Y00599
Y00612
X00939Y00625
Y00638
Y00651
Y00664
Y00677
X00939Y0056
Y00547
X00226Y01192
X00213
X002
X00187
X00174
X00161
Y012078
X00174
X00187
X002
X00213
X00226
Y012236
X00213
X002
X00187
X00174
X00161
Y012394
X00174
X00187
X002
X00213
X00226
Y012552
X00213
X002
X00187
X00174
X00161
Y01271
X00174
X00187
X002
X00213
X00226
X00297Y01589
Y01602
Y01615
Y01628
X00311833
Y01615
Y01602
Y01589
X00326667
Y01602
Y01615
Y01628
X003415
Y01615
Y01602
Y01589
X00356333
Y01602
Y01615
Y01628
X00371167
Y01615
Y01602
Y01589
X00386
Y01602
Y01615
Y01628
X00391Y01651
Y01664
Y01677
Y0169
X00375
Y01677
Y01664
Y01651
X00359
Y01664
Y01677
Y0169
X00323Y01689
Y01676
Y01663
Y0165
X00307
Y01663
Y01676
Y01689
X00291
Y01676
Y01663
Y0165
X00275Y0165
Y01663
Y01676
Y01689
X00407Y0169
Y01677
Y01664
Y01651
X00487Y01651
Y01664
Y01677
Y01638
Y01625
X00487Y01612
Y01599
Y01586
Y01573
Y0156
Y01547
X00472Y01534
X00466667Y01516
Y01503
Y0149
X004815
Y01503
Y01516
X00496333
Y01503
Y0149
X00511167
Y01503
Y01516
X00526
Y01503
Y0149
X00451833
Y01503
Y01516
X00437
Y01503
Y0149
X00438333Y01573
Y01586
Y01599
X00453167
Y01586
Y01573
X00468
Y01586
Y01599
X00373Y01513
X00748Y01589
Y01602
Y01615
Y01628
X00762833
Y01615
Y01602
Y01589
X00777667
Y01602
Y01615
Y01628
X007925
Y01615
Y01602
Y01589
X00807333
Y01602
Y01615
Y01628
X00822167
Y01615
Y01602
Y01589
X00837
Y01602
Y01615
Y01628
X00843Y01651
Y01664
Y01677
Y0169
X00859
Y01677
Y01664
Y01651
X00827
Y01664
Y01677
Y0169
X00811
Y01677
Y01664
Y01651
X00775Y0165
Y01663
Y01676
Y01689
X00759
Y01676
Y01663
Y0165
X00743
Y01663
Y01676
Y01689
X00727
Y01676
Y01663
Y0165
X00890333Y01598
Y01585
Y01572
X00905167
Y01585
Y01598
X0092
Y01585
Y01572
X00924Y01533
X00918667Y01513
Y015
Y01487
X00903833
Y015
Y01513
X00889
Y015
Y01487
X009335
Y015
Y01513
X00826Y01509
X00948333Y01513
Y015
Y01487
X00963167
Y015
Y01513
X00978
Y015
Y01487
X00939Y01549
Y01562
Y01575
Y01588
Y01601
Y01614
X00939Y01627
Y0164
Y01653
Y01666
Y01679
T02
X00013Y00105
Y00125
X00109Y00013
X00129
X00149
X00169
X00189
X00209
X00229
X00249
X00269
X00289
X00309
X00329
X00349
X00369
X00389
X00409
X00429
X00449
X00469
X00489
X00509
X00529
X00549
X00569
X00589
X00609
X00629
X00649
X00669
X00689
X00709
X01313Y00014
X01333
X01353
X01373
X01393
X01413
X01433
X01453
X01473
X01493
X01513
X01533
X01553
X01573
X01593
X01613
X01633
X01653
X01474Y00138
X01735Y00128
Y00148
Y00168
Y00188
Y00208
Y00228
Y00248
Y00268
Y00288
Y00308
Y00328
Y00348
Y00368
Y00388
Y00408
Y00428
Y00448
Y00468
Y00488
Y00508
Y00528
X01339Y00336
X01325Y00321
X01266Y00336
X01251Y00321
X01116Y00252
X01115998Y00236
X01008Y0028
X00974Y00311
X00947Y0026
X00954Y00392
X00987956Y004055
X00987Y00421
X01023Y00429
X00824Y00377
X00817Y00339
X00789Y00347
X00863Y00233
Y00175
X00903086Y00193437
X00921Y00206
X00903Y00256
X00848Y00529
X00738
X00396
X00286
X00012Y00522
Y00502
Y00482
Y00462
X00013Y00325
Y00305
Y00285
Y00265
Y00245
Y00225
Y00205
Y00185
Y00165
Y00145
X00012Y00542
Y00562
Y00582
Y00602
Y00622
Y00642
Y00662
Y00682
Y00702
Y00722
Y00742
Y00762
Y00782
Y00802
Y00822
Y00842
Y00862
Y00882
X00268Y00743
X00326Y00744
X00356
X00415Y00743
X006Y00729
X00719Y00743
X00778Y00744
X00808
X00867Y00743
X01735Y00748
Y00768
Y00788
Y00808
Y00828
Y00848
Y00868
Y00888
Y00728
Y00708
Y00688
Y00668
Y00648
Y00628
Y00608
Y00588
Y00568
Y00548
Y0113
Y0115
Y0117
Y0119
Y0121
Y0123
Y0125
Y0127
Y0129
Y0131
Y0133
X01653Y01016
X01633
X01613
X01593
X01573
X01553
X01533
X01513
X01493
X01473
X01453
X01433
X01413
X01393
X01373
X01353
X01474Y0114
X01333Y01016
X01313
X01325Y01323
X01251
X01116Y01254
X01115998Y01237999
X01008Y01282
X00974Y01313
X00947Y01262
X00903Y01258
X00903086Y01195436
X00921Y01208
X00863Y01235
Y01177
X00709Y01015
X00689
X00669
X00649
X00629
X00609
X00589
X00569
X00549
X00529
X00509
X00489
X00469
X00449
X00429
X00409
X00389
X00369
X00349
X00329
X00309
X00289
X00269
X00249
X00229
X00209
X00189
X00169
X00149
X00129
X00109
X00013Y01107
Y01127
Y01147
Y01167
Y01187
Y01207
Y01227
Y01247
Y01267
Y01287
Y01307
Y01327
X00012Y01464
Y01484
Y01504
Y01524
Y01544
Y01564
Y01584
Y01604
Y01624
Y01644
Y01664
Y01684
Y01704
Y01724
X00286Y01531
X00396
X00738
X00848
X00824Y01379
X00817Y01341
X00789Y01349
X00954Y01394
X00987956Y014075
X00987Y01423
X01023Y01431
X01266Y01338
X01339
X01735Y0135
Y0137
Y0139
Y0141
Y0143
Y0145
Y0147
Y0149
Y0151
Y0153
Y0155
Y0157
Y0159
Y0161
Y0163
Y0165
Y0167
Y0169
Y0171
Y0173
Y0175
Y0177
Y0179
Y0181
Y0183
Y0185
Y0187
Y0189
X00867Y01745
X00808Y01746
X00778
X00719Y01745
X006Y01731
X00415Y01745
X00356Y01746
X00326
X00268Y01745
X00012Y01744
Y01764
Y01784
Y01804
Y01824
Y01844
Y01864
Y01884
T03
X00844Y00064
X0086
X00876
X00936
X00952
X00968
X00819Y00219
Y00239
Y00259
Y00279
Y00299
X00952Y01066
X00968
X00936
X00876
X0086
X00844
X00819Y01221
Y01241
Y01261
Y01281
Y01301
T04
X01779Y00171
X016662Y0022245
Y0025015
Y0027785
Y0030555
X016378Y003194
Y002917
Y00264
Y002363
Y002086
X00382Y001915
Y002665
X-0003Y0017
X012759Y005551
X013521
X01381233
X01457433
X01486567
X01562767
X015919
X016681
Y006567
Y007329
X01562767
Y006567
X01457433
Y007329
X013521
Y006567
X016378Y012106
Y012383
Y01266
Y012937
Y013214
X016662Y0130755
Y0127985
Y0125215
Y0122445
X00382Y011935
Y012685
X012759Y015571
X013521
X01381233
X01457433
X01486567
X01562767
X015919
X016681
Y016587
X01562767
X01457433
X013521
X0178Y01782001
X016681Y017349
X01562767
X01457433
X013521
X-0003Y01832001
T05
X01045Y00036
X01095
X01145
Y01038
X01095
X01045
T06
X001465Y00371
Y00413
X002015
Y00371
X00198Y007995
X00156
Y008545
X00198
X0024
X00282
Y007995
X0024
X00396
X00438
X0048
X00522
Y008545
X0048
X00438
X00396
X00603
X00645
X00687
X00729
Y007995
X00687
X00645
X00603
X00845
X00887
X00929
Y008545
X00887
X00845
X00971
Y007995
X01404
X01446
X01488
X0153
Y008545
X01488
X01446
X01404
X002015Y01373
Y01415
X001465
Y01373
X01404Y018015
X01446
X01488
X0153
Y018565
X01488
X01446
X01404
X00971
Y018015
X00929
X00887
X00845
Y018565
X00887
X00929
X00729
X00687
X00645
X00603
Y018015
X00645
X00687
X00729
X00522
X0048
X00438
X00396
Y018565
X00438
X0048
X00522
X00282
X0024
X00198
X00156
Y018015
X00198
X0024
X00282
T07
X01652Y0013905
Y0038895
Y0114105
Y0139095
T08
X0005Y0005
X017
Y0095
Y01052
X0005
Y0095
X017Y01952
X0005
T09
X-0003Y001
X01779Y00100999
X0178Y01852
X-0003Y01902
M30
